<svg xmlns="http://www.w3.org/2000/svg" width="36.785" height="39.048" viewBox="0 0 36.785 39.048">
  <path id="icons8-add-song" d="M15.055,6a9.055,9.055,0,1,0,1.132,18.031v9.05a6.085,6.085,0,0,0-2.264-.483,6.225,6.225,0,1,0,6.225,6.225V22.536a9.115,9.115,0,0,0,2.344-2.331l16.331-1.451V30.817a6.083,6.083,0,0,0-2.264-.483,6.225,6.225,0,1,0,6.225,6.225V8.777L22.9,10.545A9.052,9.052,0,0,0,15.055,6Zm0,1.132a7.923,7.923,0,1,1-7.923,7.923A7.914,7.914,0,0,1,15.055,7.132Zm26.6,2.883V36.56a5.107,5.107,0,1,1-2.548-4.406l.85.492V17.517L23.189,19.008a8.967,8.967,0,0,0,.244-7.375ZM14.489,11.093v3.4h-3.4v1.132h3.4v3.4h1.132v-3.4h3.4V14.489h-3.4v-3.4Zm4.527,12.091V38.823a5.1,5.1,0,1,1-2.547-4.407l.849.492v-11.1A8.972,8.972,0,0,0,19.016,23.184Z" transform="translate(-6 -6)" fill="#1dcbff"/>
</svg>
