<svg xmlns="http://www.w3.org/2000/svg" width="25" height="25" viewBox="0 0 25 25">
  <path id="icons8-network" d="M17.029,6a1.109,1.109,0,0,0-1.1,1.1v1.1a.368.368,0,1,0,0,.735v1.1a1.109,1.109,0,0,0,.882,1.08,1.023,1.023,0,0,0,.221.023h2.941a1.109,1.109,0,0,0,1.08-.882,1.023,1.023,0,0,0,.023-.221v-1.1a.368.368,0,1,0,0-.735V7.1a1.109,1.109,0,0,0-1.1-1.1Zm0,.735h2.941a.361.361,0,0,1,.368.368v2.941a.361.361,0,0,1-.368.368H17.029a.361.361,0,0,1-.368-.368V7.1a.373.373,0,0,1,.029-.145.345.345,0,0,1,.07-.1l.026-.023a.323.323,0,0,1,.078-.053.345.345,0,0,1,.033-.016A.367.367,0,0,1,17.029,6.735ZM8.574,8.206a.368.368,0,1,0,.368.368A.368.368,0,0,0,8.574,8.206Zm1.471,0a.368.368,0,1,0,.368.368A.368.368,0,0,0,10.044,8.206Zm1.471,0a.368.368,0,1,0,.368.368A.368.368,0,0,0,11.515,8.206Zm1.471,0a.368.368,0,1,0,.368.368A.368.368,0,0,0,12.985,8.206Zm1.471,0a.368.368,0,1,0,.368.368A.368.368,0,0,0,14.456,8.206Zm8.088,0a.368.368,0,1,0,.368.368A.368.368,0,0,0,22.544,8.206Zm1.471,0a.368.368,0,1,0,.368.368A.368.368,0,0,0,24.015,8.206Zm1.471,0a.368.368,0,1,0,.368.368A.368.368,0,0,0,25.485,8.206Zm1.471,0a.368.368,0,1,0,.368.368A.368.368,0,0,0,26.956,8.206Zm1.471,0a.368.368,0,1,0,.368.368A.368.368,0,0,0,28.426,8.206ZM8.574,9.676a.368.368,0,1,0,.368.368A.368.368,0,0,0,8.574,9.676Zm19.853,0a.368.368,0,1,0,.368.368A.368.368,0,0,0,28.426,9.676ZM8.574,11.147a.368.368,0,1,0,.368.368A.368.368,0,0,0,8.574,11.147Zm19.853,0a.368.368,0,1,0,.368.368A.368.368,0,0,0,28.426,11.147ZM8.574,12.618a.368.368,0,1,0,.368.368A.368.368,0,0,0,8.574,12.618Zm19.853,0a.368.368,0,1,0,.368.368A.368.368,0,0,0,28.426,12.618ZM8.574,14.088a.368.368,0,1,0,.368.368A.368.368,0,0,0,8.574,14.088Zm19.853,0a.368.368,0,1,0,.368.368A.368.368,0,0,0,28.426,14.088ZM8.574,15.559a.368.368,0,0,0-.368.368H7.1a1.109,1.109,0,0,0-1.1,1.1v2.941a1.109,1.109,0,0,0,1.1,1.1h1.1a.368.368,0,1,0,.735,0h1.1a1.109,1.109,0,0,0,1.08-.882,1.023,1.023,0,0,0,.023-.221V17.029a1.023,1.023,0,0,0-.023-.221.978.978,0,0,0-.065-.205,1.107,1.107,0,0,0-1.015-.676h-1.1A.368.368,0,0,0,8.574,15.559Zm19.853,0a.368.368,0,0,0-.368.368h-1.1a1.023,1.023,0,0,0-.221.023,1.112,1.112,0,0,0-.865.886,1.082,1.082,0,0,0-.017.194v2.941a1.109,1.109,0,0,0,1.1,1.1h1.1a.368.368,0,1,0,.735,0h1.1a1.109,1.109,0,0,0,1.08-.882A1.023,1.023,0,0,0,31,19.971V17.029a1.023,1.023,0,0,0-.023-.221,1.108,1.108,0,0,0-.859-.859,1.023,1.023,0,0,0-.221-.023h-1.1A.368.368,0,0,0,28.426,15.559ZM7.1,16.662h2.941a.361.361,0,0,1,.368.368v2.941a.361.361,0,0,1-.368.368H7.1a.361.361,0,0,1-.368-.368V17.029a.373.373,0,0,1,.029-.145.345.345,0,0,1,.07-.1l.026-.024a.365.365,0,0,1,.078-.052l.033-.017A.4.4,0,0,1,7.1,16.662Zm19.853,0H29.9a.361.361,0,0,1,.368.368v2.941a.361.361,0,0,1-.368.368H26.956a.361.361,0,0,1-.368-.368V17.029a.373.373,0,0,1,.029-.145A.362.362,0,0,1,26.956,16.662ZM8.574,22.176a.368.368,0,1,0,.368.368A.368.368,0,0,0,8.574,22.176Zm19.853,0a.368.368,0,1,0,.368.368A.368.368,0,0,0,28.426,22.176ZM8.574,23.647a.368.368,0,1,0,.368.368A.368.368,0,0,0,8.574,23.647Zm19.853,0a.368.368,0,1,0,.368.368A.368.368,0,0,0,28.426,23.647ZM8.574,25.118a.368.368,0,1,0,.368.368A.368.368,0,0,0,8.574,25.118Zm19.853,0a.368.368,0,1,0,.368.368A.368.368,0,0,0,28.426,25.118Zm-11.4.735a1.109,1.109,0,0,0-1.08.882,1.023,1.023,0,0,0-.023.221v1.1a.368.368,0,0,0,0,.735v1.1a1.109,1.109,0,0,0,1.1,1.1h2.941a1.109,1.109,0,0,0,1.08-.882,1.023,1.023,0,0,0,.023-.221v-1.1a.368.368,0,1,0,0-.735v-1.1a1.109,1.109,0,0,0-1.1-1.1Zm-8.456.735a.368.368,0,1,0,.368.368A.368.368,0,0,0,8.574,26.588Zm8.456,0h2.941a.361.361,0,0,1,.368.368V29.9a.361.361,0,0,1-.368.368H17.029a.361.361,0,0,1-.368-.368V26.956a.373.373,0,0,1,.029-.145A.362.362,0,0,1,17.029,26.588Zm11.4,0a.368.368,0,1,0,.368.368A.368.368,0,0,0,28.426,26.588ZM8.574,28.059a.368.368,0,1,0,.368.368A.368.368,0,0,0,8.574,28.059Zm1.471,0a.368.368,0,1,0,.368.368A.368.368,0,0,0,10.044,28.059Zm1.471,0a.368.368,0,1,0,.368.368A.368.368,0,0,0,11.515,28.059Zm1.471,0a.368.368,0,1,0,.368.368A.368.368,0,0,0,12.985,28.059Zm1.471,0a.368.368,0,1,0,.368.368A.368.368,0,0,0,14.456,28.059Zm8.088,0a.368.368,0,1,0,.368.368A.368.368,0,0,0,22.544,28.059Zm1.471,0a.368.368,0,1,0,.368.368A.368.368,0,0,0,24.015,28.059Zm1.471,0a.368.368,0,1,0,.368.368A.368.368,0,0,0,25.485,28.059Zm1.471,0a.368.368,0,1,0,.368.368A.368.368,0,0,0,26.956,28.059Zm1.471,0a.368.368,0,1,0,.368.368A.368.368,0,0,0,28.426,28.059Z" transform="translate(-6 -6)" fill="#fff"/>
</svg>
