<svg xmlns="http://www.w3.org/2000/svg" width="17.5" height="17" viewBox="0 0 17.5 17">
  <g id="Component_1_1" data-name="Component 1 – 1" transform="translate(0 0.501)">
    <g id="Polygon_4" data-name="Polygon 4" transform="translate(15) rotate(90)" fill="#fff">
      <path d="M 14.33332920074463 14.5000057220459 L 1.666669487953186 14.5000057220459 C 1.411159515380859 14.5000057220459 1.281709551811218 14.33023643493652 1.237919569015503 14.25724601745605 C 1.194129467010498 14.18425559997559 1.105249524116516 13.99015617370605 1.225489497184753 13.76470565795898 L 7.558829307556152 1.889706015586853 C 7.686249732971191 1.650796055793762 7.909799575805664 1.624996066093445 7.999999523162842 1.624996066093445 C 8.09019947052002 1.624996066093445 8.313749313354492 1.650796055793762 8.441169738769531 1.889706015586853 L 14.77450942993164 13.76470565795898 C 14.89474964141846 13.99015617370605 14.80586910247803 14.18425559997559 14.7620792388916 14.25724601745605 C 14.71828937530518 14.33023643493652 14.58883953094482 14.5000057220459 14.33331966400146 14.5000057220459 L 14.33332920074463 14.5000057220459 Z" stroke="none"/>
      <path d="M 7.999999523162842 2.125005722045898 L 1.666669845581055 14.0000057220459 L 14.33333969116211 14.0000057220459 L 7.999999523162842 2.125005722045898 M 7.999999523162842 1.124998092651367 C 8.347057342529297 1.124998092651367 8.694114685058594 1.301470756530762 8.882349014282227 1.654415130615234 L 15.21568965911865 13.52941513061523 C 15.57093906402588 14.19551563262939 15.08824920654297 14.99999523162842 14.33332920074463 15.0000057220459 L 1.666669845581055 15.0000057220459 C 0.9117498397827148 14.99999523162842 0.4290599822998047 14.19551563262939 0.7843093872070312 13.52941513061523 L 7.117649078369141 1.654415130615234 C 7.30588436126709 1.301470756530762 7.652941703796387 1.124998092651367 7.999999523162842 1.124998092651367 Z" stroke="none" fill="#fff"/>
    </g>
    <line id="Line_22" data-name="Line 22" y2="15" transform="translate(16.5 0.499)" fill="none" stroke="#fff" stroke-linecap="round" stroke-width="2"/>
  </g>
</svg>
