<svg xmlns="http://www.w3.org/2000/svg" width="28" height="19.158" viewBox="0 0 28 19.158">
  <path id="icons8-bar-chart" d="M23.833,19.667a.736.736,0,0,0-.737.737V31.456H20.149V29.246a.736.736,0,0,0-.737-.737H14.991a.736.736,0,0,0-.737.737v8.105H10.57a.737.737,0,1,0,0,1.474H37.1a.737.737,0,1,0,0-1.474H33.412V24.825a.736.736,0,0,0-.737-.737H28.991V20.4a.736.736,0,0,0-.737-.737Zm.737,1.474h2.947V37.351H24.57Zm4.421,4.421h2.947V37.351H28.991ZM15.728,29.982h2.947v7.368H15.728Zm4.421,2.947H23.1v4.421H20.149Z" transform="translate(-9.833 -19.667)" fill="#fff"/>
</svg>
