<svg xmlns="http://www.w3.org/2000/svg" width="40.73" height="40.739" viewBox="0 0 40.73 40.739">
  <path id="icons8-bell-curve" d="M10.668,9.986a.679.679,0,0,0-.668.688V50.725H50.051a.679.679,0,1,0,0-1.358H47.916A158.47,158.47,0,0,0,43.928,30.9q-.006-.026-.013-.052l0-.013a62.113,62.113,0,0,0-5.15-13.2,17.37,17.37,0,0,0-3.452-4.48,6.5,6.5,0,0,0-4.265-1.8,6.5,6.5,0,0,0-4.265,1.8,17.37,17.37,0,0,0-3.452,4.48,62.147,62.147,0,0,0-5.154,13.217v.005a158.279,158.279,0,0,0-4,18.51H11.358V10.674a.679.679,0,0,0-.689-.688Zm20.376,2.725a5.11,5.11,0,0,1,3.372,1.465,16.206,16.206,0,0,1,3.166,4.133A61.254,61.254,0,0,1,42.61,31.226l0,.013a156.74,156.74,0,0,1,3.928,18.128h-31a156.732,156.732,0,0,1,3.932-18.141,61.254,61.254,0,0,1,5.029-12.918,16.206,16.206,0,0,1,3.166-4.133A5.11,5.11,0,0,1,31.044,12.711ZM13.394,30.36a.679.679,0,1,0,.679.679A.679.679,0,0,0,13.394,30.36Zm2.715,0a.679.679,0,1,0,.679.679A.679.679,0,0,0,16.109,30.36Zm5.431,0a.679.679,0,1,0,.679.679A.679.679,0,0,0,21.54,30.36Zm2.715,0a.679.679,0,1,0,.679.679A.679.679,0,0,0,24.255,30.36Zm2.715,0a.679.679,0,1,0,.679.679A.679.679,0,0,0,26.971,30.36Zm2.715,0a.679.679,0,1,0,.679.679A.679.679,0,0,0,29.686,30.36Zm2.715,0a.679.679,0,1,0,.679.679A.679.679,0,0,0,32.4,30.36Zm2.715,0a.679.679,0,1,0,.679.679A.679.679,0,0,0,35.117,30.36Zm2.715,0a.679.679,0,1,0,.679.679A.679.679,0,0,0,37.832,30.36Zm2.715,0a.679.679,0,1,0,.679.679A.679.679,0,0,0,40.547,30.36Zm5.431,0a.679.679,0,1,0,.679.679A.679.679,0,0,0,45.978,30.36Zm2.715,0a.679.679,0,1,0,.679.679A.679.679,0,0,0,48.693,30.36Z" transform="translate(-10 -9.986)" fill="#fff"/>
</svg>
