<svg xmlns="http://www.w3.org/2000/svg" width="39.039" height="39.048" viewBox="0 0 39.039 39.048">
  <path id="icons8-bell-curve" d="M10.64,9.986a.651.651,0,0,0-.64.66V49.034H48.389a.651.651,0,1,0,0-1.3H46.343a151.892,151.892,0,0,0-3.823-17.7q-.005-.025-.013-.05l0-.013a59.535,59.535,0,0,0-4.936-12.656,16.649,16.649,0,0,0-3.309-4.294A6.23,6.23,0,0,0,30.17,11.3a6.23,6.23,0,0,0-4.088,1.727,16.649,16.649,0,0,0-3.309,4.294,59.568,59.568,0,0,0-4.94,12.669v.005A151.71,151.71,0,0,0,14,47.733H11.3V10.646a.651.651,0,0,0-.661-.66ZM30.17,12.6A4.9,4.9,0,0,1,33.4,14a15.533,15.533,0,0,1,3.035,3.961,58.711,58.711,0,0,1,4.82,12.382l0,.013a150.235,150.235,0,0,1,3.765,17.376H15.315a150.226,150.226,0,0,1,3.769-17.389A58.711,58.711,0,0,1,23.9,17.963,15.534,15.534,0,0,1,26.939,14,4.9,4.9,0,0,1,30.17,12.6ZM13.253,29.515a.651.651,0,1,0,.651.651A.651.651,0,0,0,13.253,29.515Zm2.6,0a.651.651,0,1,0,.651.651A.651.651,0,0,0,15.856,29.515Zm5.205,0a.651.651,0,1,0,.651.651A.651.651,0,0,0,21.061,29.515Zm2.6,0a.651.651,0,1,0,.651.651A.651.651,0,0,0,23.664,29.515Zm2.6,0a.651.651,0,1,0,.651.651A.651.651,0,0,0,26.266,29.515Zm2.6,0a.651.651,0,1,0,.651.651A.651.651,0,0,0,28.869,29.515Zm2.6,0a.651.651,0,1,0,.651.651A.651.651,0,0,0,31.472,29.515Zm2.6,0a.651.651,0,1,0,.651.651A.651.651,0,0,0,34.074,29.515Zm2.6,0a.651.651,0,1,0,.651.651A.651.651,0,0,0,36.677,29.515Zm2.6,0a.651.651,0,1,0,.651.651A.651.651,0,0,0,39.279,29.515Zm5.205,0a.651.651,0,1,0,.651.651A.651.651,0,0,0,44.485,29.515Zm2.6,0a.651.651,0,1,0,.651.651A.651.651,0,0,0,47.087,29.515Z" transform="translate(-10 -9.986)" fill="#1dcbff"/>
</svg>
