<svg xmlns="http://www.w3.org/2000/svg" width="36.591" height="35" viewBox="0 0 36.591 35">
  <path id="icons8-topic" d="M20.3,5.591c9.21,0,16.7,6.42,16.7,14.312S29.505,34.218,20.3,34.218a18.2,18.2,0,0,1-4.189-.491l-.941-.221-.631.733A9.37,9.37,0,0,1,9.15,37.272a14.147,14.147,0,0,0,1.3-3.151,6.647,6.647,0,0,0,.273-1.631l.037-.889-.736-.5c-4.086-2.762-6.429-6.845-6.429-11.2,0-7.892,7.495-14.312,16.7-14.312M20.3,4C10.216,4,2,11.063,2,19.9c0,5.133,2.809,9.6,7.128,12.519a4.548,4.548,0,0,1-.221,1.283,13.286,13.286,0,0,1-1.986,4.13L6.108,39h1.42a11.006,11.006,0,0,0,8.216-3.726,19.777,19.777,0,0,0,4.552.534c10.08,0,18.3-7.063,18.3-15.906S30.375,4,20.3,4Z" transform="translate(-2 -4)" fill="#fff"/>
</svg>
