<svg id="icons8-goal" xmlns="http://www.w3.org/2000/svg" width="38.949" height="35" viewBox="0 0 38.949 35">
  <path id="icons8-goal-2" data-name="icons8-goal" d="M49.091,62.049a.5.5,0,0,0-.824-.023l-2.71,3.77-4.4-7.738V52.707h8.006a.52.52,0,0,0,.342-.89l-3.167-2.994,3.167-2.992a.479.479,0,0,0,.121-.534.487.487,0,0,0-.463-.3H40.672a.483.483,0,0,0-.506.472V58.03l-4.4,7.766-2.7-3.77a.5.5,0,0,0-.822.023l-10.969,17.2a.474.474,0,0,0-.017.494.486.486,0,0,0,.436.245H59.641a.482.482,0,0,0,.42-.746Zm-7.93-16.06h6.754l-2.64,2.479a.483.483,0,0,0-.156.355.537.537,0,0,0,.156.379l2.64,2.509H41.162Zm-8.481,17.2,2.545,3.539L28.259,79H22.595ZM43.625,79H29.4l11.261-19.84L51.925,79Zm9.445,0L46.1,66.736l2.545-3.552L58.733,79Z" transform="translate(-21.19 -44.993)" fill="#fff"/>
</svg>
