<svg xmlns="http://www.w3.org/2000/svg" width="39.66" height="39.048" viewBox="0 0 39.66 39.048">
  <path id="icons8-connected-people" d="M16.49,8a5.293,5.293,0,0,0-3.576,1.269,4.513,4.513,0,0,0-1.467,3.409,24.314,24.314,0,0,0,.279,2.872,1.059,1.059,0,0,0-.279.688,1.69,1.69,0,0,0,.116.588c.024.079.046.15.058.2s.006.1.006-.021a1.022,1.022,0,0,0,.925.98A4.015,4.015,0,0,0,14.1,20.443v1.173a18.984,18.984,0,0,0-2.7,1.013,10.854,10.854,0,0,0-2.224,1.308A2.613,2.613,0,0,0,8,25.9v1.625h3.053s0,0,0,.006a.61.61,0,1,0,1.22,0s0,0,0-.006H25.082V25.9h0a2.612,2.612,0,0,0-1.18-1.962,10.85,10.85,0,0,0-2.224-1.308,19.045,19.045,0,0,0-2.7-1.014V20.442a4.015,4.015,0,0,0,1.548-2.461,1.022,1.022,0,0,0,.925-.98c0,.125-.007.068.006.021s.035-.118.058-.2a1.69,1.69,0,0,0,.116-.588,1.059,1.059,0,0,0-.28-.689,25.283,25.283,0,0,0,.28-2.871c0-.076-.013-.141-.015-.215A.6.6,0,0,0,21.587,12v0A3.264,3.264,0,0,0,20.8,10.14a2.414,2.414,0,0,0-1.516-.72,1.5,1.5,0,0,0-.418-.58A3.47,3.47,0,0,0,16.49,8Zm0,1.22a2.151,2.151,0,0,1,1.555.518,1.218,1.218,0,0,1,.338.442l.149.4h.422a1.259,1.259,0,0,1,.956.4,2.394,2.394,0,0,1,.5,1.705c0,.711-.209,2.371-.3,3.02l-.062.449.343.157c-.009.03-.016.069-.046.172-.021.071-.045.146-.066.222-.008.029-.011.087-.019.116H19.38v.736a2.956,2.956,0,0,1-1.37,2.162l-.248.184v2.6l.44.128a24.093,24.093,0,0,1,2.965,1.114,9.957,9.957,0,0,1,1.97,1.152c.506.407.726.784.726,1.011v.408H9.218V25.9c0-.227.22-.6.726-1.012a9.97,9.97,0,0,1,1.971-1.151,24.226,24.226,0,0,1,2.965-1.115l.44-.128V19.9l-.248-.182a2.958,2.958,0,0,1-1.37-2.163v-.736h-.885c-.008-.029-.011-.087-.019-.116-.021-.076-.044-.15-.066-.222-.031-.1-.038-.144-.046-.173l.343-.158-.063-.448a30.158,30.158,0,0,1-.3-3.019,3.23,3.23,0,0,1,1.062-2.5A4.071,4.071,0,0,1,16.49,9.222Zm11.564.621a.612.612,0,0,0-.585.635.6.6,0,0,0,.6.585H28.1a.611.611,0,0,0-.043-1.22Zm2.52.08a.619.619,0,0,0-.671.549.61.61,0,0,0,.549.665.185.185,0,0,0,.061.006.6.6,0,0,0,.6-.549A.61.61,0,0,0,30.575,9.923Zm-5.034.2a.612.612,0,0,0,.11,1.214.664.664,0,0,0,.11-.013.611.611,0,1,0-.219-1.2Zm7.28.231a.611.611,0,0,0-.056,1.2.6.6,0,0,0,.147.018.611.611,0,1,0-.091-1.214Zm-9.485.371a.615.615,0,0,0-.627.8.627.627,0,0,0,.58.422.53.53,0,0,0,.2-.037.6.6,0,0,0,.384-.769A.609.609,0,0,0,23.336,10.72Zm11.888.384a.612.612,0,0,0-.555.381.6.6,0,0,0,.329.792.531.531,0,0,0,.232.049.611.611,0,0,0,.231-1.177A.6.6,0,0,0,35.225,11.1Zm2.27,1.094a.6.6,0,0,0-.605.293.613.613,0,0,0,.213.837.586.586,0,0,0,.312.085.61.61,0,0,0,.31-1.134A.625.625,0,0,0,37.495,12.2Zm1.858,1.385a.588.588,0,0,0-.406.226.6.6,0,0,0,.091.854.61.61,0,1,0,.763-.952h.007A.632.632,0,0,0,39.353,13.583Zm1.877,1.653a.608.608,0,1,0-.02,1.216.569.569,0,0,0,.415-.164.6.6,0,0,0,.031-.86A.61.61,0,0,0,41.23,15.236Zm1.623,1.9a.613.613,0,0,0-.605.951.608.608,0,0,0,.5.263.6.6,0,0,0,.347-.111.61.61,0,0,0-.242-1.1Zm1.1,2.083a.6.6,0,0,0-.232.064A.61.61,0,0,0,44,20.436a.556.556,0,0,0,.274-.068.6.6,0,0,0,.268-.817A.611.611,0,0,0,43.955,19.218Zm1.032,2.251a.61.61,0,1,0-.043,1.218.675.675,0,0,0,.188-.031.61.61,0,0,0-.145-1.187Zm.45,2.364a.613.613,0,0,0,.11,1.214.684.684,0,0,0,.111-.012.611.611,0,1,0-.22-1.2Zm.354,2.417a.61.61,0,0,0,.024,1.22h.025a.611.611,0,0,0-.049-1.22Zm-6.726,1.276A5.293,5.293,0,0,0,35.489,28.8a4.513,4.513,0,0,0-1.467,3.409,24.314,24.314,0,0,0,.279,2.872,1.059,1.059,0,0,0-.279.688,1.69,1.69,0,0,0,.116.588c.024.079.046.15.058.2s.006.1.006-.021a1.022,1.022,0,0,0,.925.98,4.015,4.015,0,0,0,1.548,2.461v1.173a18.983,18.983,0,0,0-2.7,1.013,10.853,10.853,0,0,0-2.224,1.308,5.183,5.183,0,0,0-.429.385.6.6,0,0,0-.226-.012.606.606,0,0,0-.518.689.593.593,0,0,0,.112.262,1.822,1.822,0,0,0-.119.639V47.05H47.658V45.424h0a2.612,2.612,0,0,0-1.18-1.962,10.85,10.85,0,0,0-2.224-1.308,19.044,19.044,0,0,0-2.7-1.014V39.967a4.015,4.015,0,0,0,1.548-2.461,1.022,1.022,0,0,0,.925-.98c0,.125-.007.068.006.021s.035-.118.058-.2a1.69,1.69,0,0,0,.116-.588,1.059,1.059,0,0,0-.28-.689,25.283,25.283,0,0,0,.28-2.871,3.619,3.619,0,0,0-.833-2.54,2.414,2.414,0,0,0-1.516-.72,1.5,1.5,0,0,0-.418-.58A3.47,3.47,0,0,0,39.066,27.527ZM45.8,28.691a.6.6,0,0,0-.665.543.61.61,0,0,0,.543.671h.061a.609.609,0,0,0,.061-1.214Zm-6.732.056a2.151,2.151,0,0,1,1.555.518,1.218,1.218,0,0,1,.338.442l.149.4h.422a1.259,1.259,0,0,1,.956.4,2.394,2.394,0,0,1,.5,1.705c0,.711-.209,2.371-.3,3.02l-.062.449.343.157c-.009.03-.016.069-.046.172-.021.071-.045.146-.066.222-.008.029-.011.087-.019.116h-.885v.736a2.956,2.956,0,0,1-1.37,2.162l-.248.184v2.6l.44.128a24.094,24.094,0,0,1,2.965,1.114,9.957,9.957,0,0,1,1.97,1.152c.506.407.726.784.726,1.011v.408H31.794v-.405c0-.227.22-.6.726-1.012a9.97,9.97,0,0,1,1.971-1.151,24.226,24.226,0,0,1,2.965-1.115l.44-.128v-2.6l-.248-.182a2.958,2.958,0,0,1-1.37-2.163V36.34h-.885c-.008-.029-.011-.087-.019-.116-.021-.076-.044-.15-.066-.222-.031-.1-.038-.144-.046-.173l.343-.158-.063-.448a30.159,30.159,0,0,1-.3-3.019A3.23,3.23,0,0,1,36.3,29.7,4.071,4.071,0,0,1,39.066,28.747Zm-27.32.615a.617.617,0,0,0-.52.69.61.61,0,0,0,.6.524c.031,0,.061-.006.086-.006a.61.61,0,0,0-.17-1.208Zm.673,2.379a.61.61,0,1,0-.069,1.216.552.552,0,0,0,.17-.025.609.609,0,0,0-.1-1.191Zm.764,2.282a.611.611,0,0,0,.02,1.221.6.6,0,0,0,.25-.055.61.61,0,0,0-.271-1.167Zm1.084,2.145a.629.629,0,0,0-.229.089.611.611,0,0,0,.666,1.025.617.617,0,0,0,.182-.843A.607.607,0,0,0,14.268,36.168Zm1.614,1.942a.617.617,0,0,0-.445.148.609.609,0,0,0-.061.86.6.6,0,0,0,.458.207.619.619,0,0,0,.4-.147.609.609,0,0,0,.061-.86A.6.6,0,0,0,15.881,38.11Zm1.637,1.721a.616.616,0,0,0-.422.209.609.609,0,0,0,.067.86.58.58,0,0,0,.4.153.612.612,0,1,0-.043-1.221Zm2.1,1.469a.611.611,0,0,0-.615.271.6.6,0,0,0,.184.843.577.577,0,0,0,.329.1.61.61,0,0,0,.33-1.123A.617.617,0,0,0,19.615,41.3Zm2.054,1.161a.612.612,0,0,0-.271,1.167.635.635,0,0,0,.249.055.609.609,0,0,0,.256-1.165A.605.605,0,0,0,21.669,42.461Zm2.2.858a.614.614,0,0,0-.515.436.605.605,0,0,0,.415.751v.006a.822.822,0,0,0,.17.025.62.62,0,0,0,.586-.44.607.607,0,0,0-.416-.757A.594.594,0,0,0,23.865,43.319Zm2.542.516a.61.61,0,1,0-.17,1.208.4.4,0,0,0,.086.006.61.61,0,0,0,.085-1.214ZM28.75,44a.61.61,0,1,0,.61.61A.612.612,0,0,0,28.75,44Z" transform="translate(-7.998 -8.002)" fill="#1dcbff"/>
</svg>
