<svg xmlns="http://www.w3.org/2000/svg" width="39.048" height="39.048" viewBox="0 0 39.048 39.048">
  <path id="icons8-connected" d="M39.927,4.586l-6.6,6.6L31.376,9.232a3.856,3.856,0,0,0-5.443,0l-5.527,5.527-.3-.3a2.291,2.291,0,0,0-3.895,1.933,2.438,2.438,0,0,0-.307-.03,2.3,2.3,0,0,0-1.626,3.925l.3.3L9.053,26.114a3.853,3.853,0,0,0,0,5.441l1.953,1.955-6.6,6.6,3.525,3.525,6.6-6.6,1.953,1.953a3.856,3.856,0,0,0,5.443,0l5.527-5.527.3.3a2.289,2.289,0,0,0,3.892-1.933,2.291,2.291,0,0,0,1.935-3.895l-.3-.3,5.527-5.527a3.856,3.856,0,0,0,0-5.443l-1.953-1.953,6.6-6.6Zm0,1.555L41.9,8.113l-6.6,6.6,2.73,2.73a2.741,2.741,0,0,1,0,3.888l-5.544,5.544a.54.54,0,0,0-.258-.064.551.551,0,0,0-.55.55.54.54,0,0,0,.064.258l-.017.017L32.8,28.711a1.2,1.2,0,1,1-1.7,1.7L17.632,16.935a1.2,1.2,0,0,1,1.7-1.7l.956.958.12.118.017-.017a.54.54,0,0,0,.258.064.551.551,0,0,0,.55-.55.54.54,0,0,0-.064-.258L26.71,10.01a2.741,2.741,0,0,1,3.888,0l2.73,2.73Zm-5.5,6.921a.55.55,0,1,0,.55.55A.551.551,0,0,0,34.428,13.062Zm-12.1,3.849a.55.55,0,1,0,.55.55A.551.551,0,0,0,22.33,16.912Zm-6.425.548a1.189,1.189,0,0,1,.849.354L30.226,31.287a1.2,1.2,0,1,1-1.7,1.695l-.949-.947-.006-.009a.057.057,0,0,0-.013-.011l-.107-.11-.017.017a.563.563,0,0,0-.258-.062.55.55,0,0,0-.55.55.566.566,0,0,0,.067.256l-5.544,5.546a2.747,2.747,0,0,1-3.89,0L14.53,35.48l-6.6,6.6-1.97-1.97,6.6-6.6-.389-.391L9.828,30.78a2.747,2.747,0,0,1,0-3.89l5.544-5.544a.575.575,0,0,0,.258.067.55.55,0,0,0,.55-.55.534.534,0,0,0-.064-.258l.017-.017-.082-.082a.139.139,0,0,0-.017-.019l-.019-.019-.009-.006-.949-.952a1.2,1.2,0,0,1,.849-2.049Zm8.075,1.1a.55.55,0,1,0,.55.55A.551.551,0,0,0,23.98,18.562Zm1.65,1.65a.55.55,0,1,0,.55.55A.551.551,0,0,0,25.63,20.211Zm1.65,1.65a.55.55,0,1,0,.55.55A.551.551,0,0,0,27.279,21.861Zm-10,.1a.55.55,0,1,0,.55.55A.55.55,0,0,0,17.28,21.962Zm11.649,1.549a.55.55,0,1,0,.55.55A.551.551,0,0,0,28.929,23.511Zm-10,.1a.55.55,0,1,0,.55.55A.55.55,0,0,0,18.93,23.612Zm11.649,1.549a.55.55,0,1,0,.55.55A.551.551,0,0,0,30.579,25.161Zm-10,.1a.55.55,0,1,0,.55.55A.55.55,0,0,0,20.579,25.261Zm1.65,1.65a.55.55,0,1,0,.55.55A.55.55,0,0,0,22.229,26.911Zm1.65,1.65a.55.55,0,1,0,.55.55A.55.55,0,0,0,23.879,28.561Zm1.65,1.65a.55.55,0,1,0,.55.55A.55.55,0,0,0,25.529,30.211ZM13.43,34.06a.55.55,0,1,0,.55.55A.55.55,0,0,0,13.43,34.06Z" transform="translate(-4.406 -4.586)" fill="#1dcbff"/>
</svg>
