<svg xmlns="http://www.w3.org/2000/svg" width="40.943" height="35" viewBox="0 0 40.943 35">
  <path id="icons8-crowd-2" d="M15.858,6A4.293,4.293,0,1,0,20.1,10.566a.7.7,0,0,0,0-.544A4.274,4.274,0,0,0,15.858,6ZM27.085,6a4.293,4.293,0,1,0,4.237,4.566.7.7,0,0,0,0-.544A4.274,4.274,0,0,0,27.085,6ZM15.858,7.321a2.972,2.972,0,1,1-2.972,2.972A2.962,2.962,0,0,1,15.858,7.321Zm11.226,0a2.972,2.972,0,1,1-2.972,2.972A2.962,2.962,0,0,1,27.085,7.321ZM8.264,14.585a4.623,4.623,0,1,0,4.567,4.9.7.7,0,0,0,0-.546A4.6,4.6,0,0,0,8.264,14.585Zm26.415,0a4.623,4.623,0,1,0,4.567,4.9.7.7,0,0,0,0-.546A4.6,4.6,0,0,0,34.679,14.585ZM8.264,15.906a3.3,3.3,0,1,1-3.3,3.3A3.293,3.293,0,0,1,8.264,15.906Zm26.415,0a3.3,3.3,0,1,1-3.3,3.3A3.293,3.293,0,0,1,34.679,15.906Zm-13.208,3.3A5.283,5.283,0,1,0,26.7,24.764a.7.7,0,0,0,0-.544A5.264,5.264,0,0,0,21.472,19.208Zm0,1.321a3.962,3.962,0,1,1-3.962,3.962A3.953,3.953,0,0,1,21.472,20.528ZM8.264,24.491a7.936,7.936,0,0,0-7.219,4.666A.66.66,0,0,0,1,29.4v1.7a.66.66,0,0,0,.66.66H14.868a.66.66,0,0,0,.66-.66V29.4a.66.66,0,0,0-.045-.24A7.936,7.936,0,0,0,8.264,24.491Zm26.415,0a7.936,7.936,0,0,0-7.219,4.666.66.66,0,0,0-.045.24v1.7a.66.66,0,0,0,.66.66H41.283a.66.66,0,0,0,.66-.66V29.4a.66.66,0,0,0-.045-.24A7.936,7.936,0,0,0,34.679,24.491ZM8.264,25.811a6.234,6.234,0,0,1,5.943,3.733v.89H2.321v-.89A6.234,6.234,0,0,1,8.264,25.811Zm26.415,0a6.234,6.234,0,0,1,5.943,3.733v.89H28.736v-.89A6.234,6.234,0,0,1,34.679,25.811ZM21.472,31.094c-7.1,0-9.854,6.413-9.854,6.413a.66.66,0,0,0-.052.257V40.34a.66.66,0,0,0,.66.66H30.717a.66.66,0,0,0,.66-.66V37.764a.66.66,0,0,0-.052-.257S28.569,31.094,21.472,31.094Zm0,1.321a9.481,9.481,0,0,1,8.585,5.509v1.755H12.887V37.924A9.481,9.481,0,0,1,21.472,32.415Zm-5.283,3.3a.661.661,0,0,0-.66.66V37.7a.66.66,0,1,0,1.321,0V36.377A.661.661,0,0,0,16.189,35.717Zm3.3,0a.661.661,0,0,0-.66.66V37.7a.66.66,0,1,0,1.321,0V36.377A.661.661,0,0,0,19.491,35.717Zm3.962,0a.661.661,0,0,0-.66.66V37.7a.66.66,0,1,0,1.321,0V36.377A.661.661,0,0,0,23.453,35.717Zm3.3,0a.661.661,0,0,0-.66.66V37.7a.66.66,0,1,0,1.321,0V36.377A.661.661,0,0,0,26.755,35.717Z" transform="translate(-1 -6)" fill="#fff"/>
</svg>
