<svg xmlns="http://www.w3.org/2000/svg" width="37.242" height="39.048" viewBox="0 0 37.242 39.048">
  <path id="icons8-customer-support" d="M26.821,8C17.488,8,10,15.514,10,24.276c0,4.942,2.053,8.1,4.02,10.8s3.79,4.909,3.79,8.211v3.764h1.2V43.284c0-3.745-2.081-6.261-4.02-8.917S11.2,28.892,11.2,24.276A15.386,15.386,0,0,1,23.817,9.49V22.031a6,6,0,1,0,6.8,9.84l4.351,4.355a2.367,2.367,0,0,0-.34,1.211,2.4,2.4,0,1,0,2.4-2.4,2.367,2.367,0,0,0-1.211.34l-4.355-4.351a5.988,5.988,0,0,0-1.643-8.992V9.431c7.948,1.244,12.015,7.408,12.015,13.521v.164l4.132,7.019a.505.505,0,0,1-.209.723l-3.924,2.006v5.172a4.2,4.2,0,0,1-4.205,4.205H33.429a.6.6,0,0,0,0,1.2v3.6h1.2v-3.6h3a5.417,5.417,0,0,0,5.407-5.407V33.6l3.267-1.668a1.731,1.731,0,0,0,.7-2.4l-3.987-6.768C42.924,15.376,37.224,8,26.821,8Zm0,1.2c.62,0,1.22.028,1.8.08V21.5a5.955,5.955,0,0,0-3.6,0V9.307A15.749,15.749,0,0,1,26.821,9.2Zm0,13.216a4.806,4.806,0,1,1-4.806,4.806A4.8,4.8,0,0,1,26.821,22.418ZM37.033,36.235a1.2,1.2,0,1,1-1.2,1.2A1.192,1.192,0,0,1,37.033,36.235Z" transform="translate(-10 -8)" fill="#1dcbff"/>
</svg>
