<svg xmlns="http://www.w3.org/2000/svg" width="42.083" height="44.124" viewBox="0 0 42.083 44.124">
  <path id="icons8-depression-2" d="M29.007,7C18.46,7,10,15.49,10,25.393c0,5.583,2.321,9.156,4.542,12.2s4.282,5.545,4.282,9.277v4.253h1.358V46.871c0-4.233-2.351-7.074-4.542-10.078s-4.282-6.186-4.282-11.4c0-9.128,7.832-17.036,17.65-17.036,11.221,0,16.971,7.809,16.971,15.539v.186l4.671,7.932a.572.572,0,0,1-.237.815h0L45.978,35.1v5.846a4.742,4.742,0,0,1-4.752,4.752H36.474a.679.679,0,1,0,0,1.358v4.073h1.358V47.051h3.394a6.12,6.12,0,0,0,6.109-6.109V35.926l3.692-1.887a1.953,1.953,0,0,0,.79-2.714l-4.5-7.649C47.2,15.335,40.763,7,29.007,7Zm-.339,4.752a6.323,6.323,0,0,0-6.1,4.647,4.5,4.5,0,0,0-3.6,3.106h0a5.531,5.531,0,0,0-2.992,1.311,5.189,5.189,0,0,0-1.9,3.789,5.528,5.528,0,0,0,5.372,5.473H21.58a.679.679,0,1,0,0-1.358H19.506a4.184,4.184,0,0,1-4.074-4.081,3.808,3.808,0,0,1,1.423-2.794,4.344,4.344,0,0,1,2.538-1.075c-.046,0-.023,0,.066,0h.563l.1-.554A3.207,3.207,0,0,1,23.1,17.65a.676.676,0,0,0,.48.211.542.542,0,0,0,.155-.021.675.675,0,0,0,.5-.814.668.668,0,0,0-.373-.447,5.059,5.059,0,0,1,9.4-.532h0a.677.677,0,0,0,.048.957.684.684,0,0,0,.455.176.677.677,0,0,0,.5-.224.667.667,0,0,0,.147-.3,3.915,3.915,0,0,1,4.64,3.783,3.72,3.72,0,0,1-.134.976l-.077.286a.674.674,0,1,0-.593,1,.786.786,0,0,0,.245-.048.671.671,0,0,0,.42-.545l.465.139A3.432,3.432,0,0,1,41.9,25.339a3.479,3.479,0,0,1-3.072,3.384H34.706a.679.679,0,1,0,0,1.358h4.248L39,30.074a4.829,4.829,0,0,0,4.26-4.772A4.7,4.7,0,0,0,40.3,21.2a4.735,4.735,0,0,0,.1-.756,5.273,5.273,0,0,0-5.317-5.208,5.038,5.038,0,0,0-.725.086A6.345,6.345,0,0,0,28.668,11.752Zm-2.43,4.96a.68.68,0,0,0-.265,1.3.677.677,0,0,0,.89-.359.682.682,0,0,0-.624-.945Zm7.724,1.545a.678.678,0,0,0-.312,1.213.658.658,0,0,0,.407.137.681.681,0,0,0,.544-.265.69.69,0,0,0-.137-.957A.674.674,0,0,0,33.962,18.256Zm-5.807.2a.7.7,0,0,0-.255.1.685.685,0,0,0-.2.944V19.5a.669.669,0,0,0,.57.312.677.677,0,0,0,.57-1.045v-.008A.679.679,0,0,0,28.155,18.461Zm-6.208,1.782a.681.681,0,0,0-.481,1.163.693.693,0,0,0,.481.2.708.708,0,0,0,.483-.2.681.681,0,0,0-.483-1.163Zm6.985,2.094-.57.887s-.358.555-.719,1.221a11.138,11.138,0,0,0-.506,1.049,2.7,2.7,0,0,0-.266,1.066,2.064,2.064,0,1,0,4.123,0,2.7,2.7,0,0,0-.266-1.066,11.138,11.138,0,0,0-.506-1.049c-.36-.666-.717-1.221-.717-1.221Zm-5.96.345a.68.68,0,0,0,.048,1.358.118.118,0,0,0,.048-.007.673.673,0,0,0,.631-.72A.682.682,0,0,0,22.972,22.681Zm13.453.615a.659.659,0,0,0-.589.457H35.83a.679.679,0,0,0,.42.862.884.884,0,0,0,.224.034.694.694,0,0,0,.646-.455l-.008-.008a.663.663,0,0,0-.42-.855A.68.68,0,0,0,36.425,23.3Zm-7.494,1.633c.046.082.047.074.094.16a10.029,10.029,0,0,1,.444.916,2.851,2.851,0,0,1,.166.553.71.71,0,1,1-1.408,0,2.851,2.851,0,0,1,.166-.553,10.029,10.029,0,0,1,.444-.916C28.884,25,28.886,25.011,28.932,24.929Zm-3.588,3.549-.57.88s-.358.552-.719,1.214a11.032,11.032,0,0,0-.506,1.042,2.674,2.674,0,0,0-.266,1.062,2.064,2.064,0,1,0,4.123,0,2.676,2.676,0,0,0-.268-1.062,11.034,11.034,0,0,0-.506-1.042c-.36-.662-.717-1.214-.717-1.214Zm6.7,1.57-.562.834s-.359.531-.72,1.168a10.425,10.425,0,0,0-.508,1,2.518,2.518,0,0,0-.272,1.041,2.062,2.062,0,1,0,4.123,0,2.517,2.517,0,0,0-.27-1.041,10.445,10.445,0,0,0-.509-1c-.361-.637-.719-1.168-.719-1.168Zm-6.7,1.013c.046.082.047.074.094.16a9.955,9.955,0,0,1,.444.911,2.886,2.886,0,0,1,.166.545.709.709,0,1,1-1.408,0,2.825,2.825,0,0,1,.164-.545,9.954,9.954,0,0,1,.444-.911C25.3,31.135,25.3,31.143,25.344,31.061Zm6.7,1.5c.049.083.051.075.1.163a9.375,9.375,0,0,1,.443.87,2.9,2.9,0,0,1,.16.505.7.7,0,1,1-1.408,0,2.975,2.975,0,0,1,.162-.505,9.339,9.339,0,0,1,.442-.87C31.993,32.632,31.994,32.64,32.043,32.557ZM29.007,42.978a.679.679,0,1,0,.679.679A.679.679,0,0,0,29.007,42.978Zm2.036,2.036a.679.679,0,1,0,.679.679A.679.679,0,0,0,31.044,45.014Zm2.715.679a.679.679,0,1,0,.679.679A.679.679,0,0,0,33.759,45.693Z" transform="translate(-10 -7)" fill="#fff"/>
</svg>
