<svg id="icons8-muscle-2" xmlns="http://www.w3.org/2000/svg" width="41.667" height="35" viewBox="0 0 41.667 35">
  <path id="icons8-muscle-2-2" data-name="icons8-muscle-2" d="M8,4.007a4.423,4.423,0,0,0-.759.037C5.273,4.307,3.7,5.791,2.592,6.869h0A8.636,8.636,0,0,0,0,13.585c0,.577.009,1.2.054,1.874A47.325,47.325,0,0,0,3.093,30.387s0,0,0,0a17.055,17.055,0,0,0,4.229,6.036,17.506,17.506,0,0,0,2.214,1.808,7.509,7.509,0,0,0,.886.524,1.682,1.682,0,0,0,.861.247,5.277,5.277,0,0,0,1.769-.459A6.216,6.216,0,0,1,15,38.171c1.266,0,3.085.833,6.667.833A12.714,12.714,0,0,0,32.3,33.23a17.312,17.312,0,0,0,2.533-5.241,10.532,10.532,0,0,0,3.163-1.59,8.436,8.436,0,0,0,3.68-6.98,10.353,10.353,0,0,0-2.235-6.6,8.271,8.271,0,0,0-6.516-2.98,9.542,9.542,0,0,0-7.214,2.871,9.133,9.133,0,0,0-2.3,5.9,5.843,5.843,0,0,0-2.154-.435c-3.629,0-5.771,1.7-6.812,3.6a7.783,7.783,0,0,0-.674,1.976,16,16,0,0,0-3.443-4.5,13.128,13.128,0,0,1-3.4-5.025v0c.045.114-.081-.289-.146-.573-.033-.142-.064-.283-.085-.389-.006-.029,0,.007-.007-.023a1.945,1.945,0,0,1,.27-.205c.067-.044.176-.171.257-.221A2.359,2.359,0,0,0,9.167,14a2.655,2.655,0,0,0,1.1-.239,1.829,1.829,0,0,0,.612-.412c.025-.026.025-.085.049-.116a2.124,2.124,0,0,0,.905-.435,1.96,1.96,0,0,0,.555-.692c.014-.031,0-.079.008-.112a1.927,1.927,0,0,0,.861-.628,2.164,2.164,0,0,0,.376-.934c.038-.03.1-.025.13-.059a1.435,1.435,0,0,0,.373-.718,2.1,2.1,0,0,0-.052-1.074c-.361-1.249-1.3-1.942-2.5-2.795a18.586,18.586,0,0,0-1.725-1.25A4.057,4.057,0,0,0,8,4.007ZM7.947,5.664a2.115,2.115,0,0,1,1.087.322c.453.258.934.7,1.581,1.157,1.182.844,1.665,1.22,1.862,1.9a.927.927,0,0,1,.011.127.833.833,0,0,0-.479.988c-.036-.13-.029.119-.114.238-.039.055-.046.071-.046.078a.833.833,0,0,0-1,.954.322.322,0,0,1-.072.078c-.123.1-.365.061-.12.133a.833.833,0,0,0-1.042.584s0,0,0,0a.11.11,0,0,1-.018.008,1.994,1.994,0,0,1-.428.1.781.781,0,0,1-.832-.833A.833.833,0,0,0,6.8,11.049a3.722,3.722,0,0,1-.765.583,2.98,2.98,0,0,0-.628.514A1.591,1.591,0,0,0,5,13.168a1.212,1.212,0,0,0,.054.407c.026.132.06.287.1.443a4.884,4.884,0,0,0,.221.812,15.022,15.022,0,0,0,3.819,5.634,15.437,15.437,0,0,1,4.2,6.352A.833.833,0,0,0,15,26.5a8.607,8.607,0,0,1,.9-3.934c.808-1.468,2.208-2.733,5.35-2.733a3.854,3.854,0,0,1,2.4.651A.833.833,0,0,0,25,19.836V19a7.586,7.586,0,0,1,1.927-5.163,7.778,7.778,0,0,1,5.99-2.337,6.484,6.484,0,0,1,5.23,2.377A8.739,8.739,0,0,1,40,19.419a6.613,6.613,0,0,1-2.987,5.626,10.07,10.07,0,0,1-3.049,1.483.834.834,0,0,0-.607.61,17.227,17.227,0,0,1-2.432,5.139,10.9,10.9,0,0,1-9.26,5.061c-3.314,0-4.808-.833-6.667-.833a7.769,7.769,0,0,0-2.473.459c-.635.21-1.119.348-1.2.36a.915.915,0,0,1-.177-.063,6.1,6.1,0,0,1-.685-.409,16.016,16.016,0,0,1-2-1.634A15.658,15.658,0,0,1,4.651,29.8a45.373,45.373,0,0,1-2.93-14.448s0,0,0,0c-.042-.62-.05-1.2-.05-1.761,0-2.767.654-4.134,2.082-5.521C4.81,7.038,6.27,5.856,7.459,5.7A3.271,3.271,0,0,1,7.947,5.664Z" transform="translate(-0.004 -4.004)" fill="#fff"/>
</svg>
