<svg xmlns="http://www.w3.org/2000/svg" width="35.688" height="35" viewBox="0 0 35.688 35">
  <path id="icons8-game-controller" d="M31.339.967A.834.834,0,0,0,31.25.99a.715.715,0,0,0-.558.714,3.1,3.1,0,0,1-1.784,2.833,34.568,34.568,0,0,1-4.55,2.052,13.971,13.971,0,0,0-4.885,3.056,8.606,8.606,0,0,0-2.275,5.6,6.9,6.9,0,0,1-2.944-.959,8.526,8.526,0,0,0-4.26-1.16,5.359,5.359,0,0,0-3.5,1.762,18.313,18.313,0,0,0-3.145,4.126A23.748,23.748,0,0,0,0,30.254a6.891,6.891,0,0,0,1.115,3.97,3.876,3.876,0,0,0,3.167,1.74c3.449,0,5.953-1.743,8.03-3.368s3.747-3.056,5.532-3.056,3.455,1.43,5.532,3.056,4.581,3.368,8.03,3.368a3.876,3.876,0,0,0,3.167-1.74,6.891,6.891,0,0,0,1.115-3.97,23.748,23.748,0,0,0-3.346-11.242A18.313,18.313,0,0,0,29.2,14.886a5.359,5.359,0,0,0-3.5-1.762,8.526,8.526,0,0,0-4.26,1.16,7.024,7.024,0,0,1-2.788.937,6.959,6.959,0,0,1,1.874-4.595,12.791,12.791,0,0,1,4.394-2.744,33.459,33.459,0,0,0,4.751-2.141A4.716,4.716,0,0,0,32.119,1.7a.715.715,0,0,0-.781-.736ZM9.993,14.551a6.755,6.755,0,0,1,3.591.981,8.526,8.526,0,0,0,4.26,1.16c.07,0,.134,0,.2,0h.022a8.567,8.567,0,0,0,4.037-1.16,6.755,6.755,0,0,1,3.591-.981,4.261,4.261,0,0,1,2.52,1.361,17.146,17.146,0,0,1,2.877,3.814,22.636,22.636,0,0,1,3.167,10.528,5.61,5.61,0,0,1-.848,3.167,2.343,2.343,0,0,1-2.007,1.115c-2.975,0-5.111-1.469-7.138-3.056s-3.926-3.368-6.424-3.368-4.4,1.782-6.424,3.368-4.163,3.056-7.138,3.056a2.343,2.343,0,0,1-2.007-1.115,5.61,5.61,0,0,1-.848-3.167A22.636,22.636,0,0,1,4.595,19.726a17.146,17.146,0,0,1,2.877-3.814A4.261,4.261,0,0,1,9.993,14.551Zm16.417,5a1.428,1.428,0,1,0,1.428,1.428A1.427,1.427,0,0,0,26.409,19.548Zm-17.844.714V22.4H6.424v2.141H8.565v2.141h2.141V24.544h2.141V22.4H10.706V20.261ZM23.554,22.4a1.428,1.428,0,1,0,1.428,1.428A1.427,1.427,0,0,0,23.554,22.4Zm5.71,0a1.428,1.428,0,1,0,1.428,1.428A1.427,1.427,0,0,0,29.264,22.4Zm-2.855,2.855a1.428,1.428,0,1,0,1.428,1.428A1.427,1.427,0,0,0,26.409,25.258Z" transform="translate(0 -0.964)" fill="#fff"/>
</svg>
