<svg xmlns="http://www.w3.org/2000/svg" width="35" height="25.9" viewBox="0 0 35 25.9">
  <path id="icons8-headphones" d="M17.5,1A12.611,12.611,0,0,0,4.966,12.309a2.122,2.122,0,0,0-1.356,1.356,4.011,4.011,0,0,0-2.472,1.794A7.385,7.385,0,0,0,0,19.55a7.385,7.385,0,0,0,1.138,4.091,4.011,4.011,0,0,0,2.472,1.794A2.094,2.094,0,0,0,7.7,24.8V14.3a2.1,2.1,0,0,0-1.312-1.925,11.177,11.177,0,0,1,22.225,0A2.1,2.1,0,0,0,27.3,14.3V24.8a2.094,2.094,0,0,0,4.091.634,4.011,4.011,0,0,0,2.472-1.794A7.385,7.385,0,0,0,35,19.55a7.385,7.385,0,0,0-1.137-4.091,4.011,4.011,0,0,0-2.472-1.794,2.122,2.122,0,0,0-1.356-1.356A12.611,12.611,0,0,0,17.5,1ZM5.6,13.6a.691.691,0,0,1,.7.7V24.8a.7.7,0,0,1-1.4,0V14.3A.691.691,0,0,1,5.6,13.6Zm23.8,0a.691.691,0,0,1,.7.7V24.8a.7.7,0,0,1-1.4,0V14.3A.691.691,0,0,1,29.4,13.6ZM3.5,15.153v8.794a2.815,2.815,0,0,1-1.2-1.072,6.116,6.116,0,0,1-.9-3.325,6.116,6.116,0,0,1,.9-3.325A2.815,2.815,0,0,1,3.5,15.153Zm28,0a2.815,2.815,0,0,1,1.2,1.072,6.116,6.116,0,0,1,.9,3.325,6.116,6.116,0,0,1-.9,3.325,2.815,2.815,0,0,1-1.2,1.072Z" transform="translate(0 -1)" fill="#fff"/>
</svg>
