<svg xmlns="http://www.w3.org/2000/svg" xmlns:xlink="http://www.w3.org/1999/xlink" width="34.286" height="30" viewBox="0 0 34.286 30">
  <defs>
    <linearGradient id="linear-gradient" x1="0.5" x2="0.5" y2="1" gradientUnits="objectBoundingBox">
      <stop offset="0" stop-color="#c4b7f8"/>
      <stop offset="1" stop-color="#b7e3eb"/>
    </linearGradient>
  </defs>
  <path id="icons8-heart-2" d="M13.429,7A9.448,9.448,0,0,0,4,16.429c0,3.511,2.647,6.817,5.873,10.207s7.2,6.824,10.361,9.988a1.286,1.286,0,0,0,1.818,0c3.164-3.164,7.135-6.6,10.361-9.988s5.873-6.7,5.873-10.207A9.448,9.448,0,0,0,28.857,7c-2.98,0-5.574,1.6-7.714,4.318C19,8.6,16.408,7,13.429,7Zm0,2.571c2.51,0,4.6,1.336,6.628,4.544a1.286,1.286,0,0,0,2.173,0c2.028-3.208,4.118-4.544,6.628-4.544a6.837,6.837,0,0,1,6.857,6.857c0,2.06-2.068,5.183-5.163,8.436-2.823,2.966-6.331,6.065-9.409,9.065-3.077-3-6.586-6.1-9.409-9.065-3.1-3.253-5.163-6.375-5.163-8.436A6.837,6.837,0,0,1,13.429,9.571Z" transform="translate(-4 -7)" fill="url(#linear-gradient)"/>
</svg>
