<svg xmlns="http://www.w3.org/2000/svg" width="115.007" height="115.017" viewBox="0 0 115.007 115.017">
  <g id="hipaa" transform="translate(-4732.086 -2263.028)">
    <path id="Path_11965" data-name="Path 11965" d="M4154.026,856.857a57.5,57.5,0,1,1-56.53-58.381A57.51,57.51,0,0,1,4154.026,856.857Zm-96.566-.095c-.321-.179-.529-.293-.735-.411-.818-.471-1.629-.965-2.456-1.409a4.16,4.16,0,0,0-5.21,6.279,5.353,5.353,0,0,0,1.613,1.248c2.086,1.2,4.164,2.408,6.264,3.583a.922.922,0,0,1,.536.965c-.031,1.648-.015,3.3-.009,4.944a9.632,9.632,0,0,0,.048,1.275,11.205,11.205,0,0,0,5.716,8.647c2.045,1.2,4.1,2.371,6.154,3.554q10.553,6.09,21.1,12.188a12.386,12.386,0,0,0,4.122,1.575,7.518,7.518,0,0,0,2.3.28c.4-.058.795-.166,1.2-.224a11.891,11.891,0,0,0,4.357-1.559c2.621-1.53,5.254-3.039,7.883-4.556,6.522-3.767,13.06-7.5,19.559-11.31a11.01,11.01,0,0,0,5.71-9.951c.021-1.629,0-3.259,0-4.888v-.616c.486-.282.947-.552,1.412-.818,1.93-1.117,3.887-2.225,5.82-3.352a4.159,4.159,0,0,0-4.126-7.222c-.889.492-1.761,1.017-2.645,1.522-.131.075-.274.129-.463.216v-.65c0-5.37.039-10.738-.012-16.107a10.851,10.851,0,0,0-5.653-9.812q-13.832-8.07-27.739-16.016a10.965,10.965,0,0,0-11.325-.021c-1.476.809-2.919,1.677-4.378,2.52q-11.561,6.675-23.121,13.353a11.1,11.1,0,0,0-5.918,10.165c-.014,5.295,0,10.59,0,15.887Zm21.659-49.894.86,2.713c.106.336.208.671.318,1,.056.17.153.328.357.26a15.083,15.083,0,0,0,2.232-.8,1.176,1.176,0,0,0,.044-2.028l-.257-.177c.349-1-.174-1.818-1.109-1.708A11.68,11.68,0,0,0,4079.12,806.868Zm-24.506,22.6.064-.077c.5.116,1.005.222,1.5.353a.415.415,0,0,0,.482-.156c.313-.386.311-.531-.065-.878q-1.22-1.129-2.451-2.25a3.312,3.312,0,0,0-.375-.259c-.129.193-.229.338-.339.484a.338.338,0,0,0,.063.529c.114.093.222.193.331.3l1.157,1.081a4.247,4.247,0,0,1-1.105-.2.421.421,0,0,0-.556.2.433.433,0,0,0,.043.6c.24.272.466.558.7.837l-.046.069-2.192-.864-.5.772a4.815,4.815,0,0,0,.423.235c1.04.43,2.086.853,3.126,1.285.239.1.442.154.627-.114.252-.371.274-.459.027-.772-.3-.39-.612-.776-.921-1.164Zm56.563,74.395a3.722,3.722,0,0,0-.071.772,1.111,1.111,0,0,0,1.488.915c.642-.154,1.261-.407,1.89-.616a.3.3,0,0,0,.209-.432c-.06-.176-.122-.349-.182-.523q-.439-1.312-.884-2.622c-.193-.579-.224-.59-.783-.4-.456.152-.915.291-1.351.469a2.335,2.335,0,0,0-.71.413,1.187,1.187,0,0,0,.108,1.837,1.9,1.9,0,0,0,.284.193Zm28.277-22.634.062-.085,1.544.594c.694.264.7.262,1.035-.425a.445.445,0,0,0,.016-.156.551.551,0,0,0-.133-.11l-3.454-1.362a.409.409,0,0,0-.558.193c-.23.361-.24.438.037.772.306.386.619.755,1,1.223-.613-.133-1.1-.249-1.582-.342-.411-.077-.485,0-.7.363-.193.316,0,.475.2.652.845.745,1.688,1.5,2.538,2.24a3.176,3.176,0,0,0,.353.232l.494-.795-.888-.8-.857-.772a4.466,4.466,0,0,1,1.127.193.4.4,0,0,0,.511-.2.425.425,0,0,0-.025-.594c-.258-.249-.49-.536-.731-.814Zm-29.888-73.038c.178-.095.311-.152.433-.232a1.316,1.316,0,0,0,.129-2.123,2.089,2.089,0,0,0-.681-.353c-.458-.143-.927-.251-1.393-.357-.5-.116-.515-.112-.645.386q-.411,1.609-.8,3.222a2.321,2.321,0,0,0-.023.4c.156.052.29.106.429.143.463.124.492.106.617-.345.092-.328.182-.66.279-1.019l.62.193c.1.411.193.787.289,1.158.149.579.49.754,1.158.565C4109.848,809.3,4109.712,808.766,4109.565,808.187Zm-25.691,94.071.423,1.613a4.545,4.545,0,0,0-.784.739,1.27,1.27,0,0,0,.641,1.93,16.445,16.445,0,0,0,2.086.511c.045.012.1-.033.143-.048a19.094,19.094,0,0,0,.849-4.087l-.859-.174c-.139.517-.26.965-.386,1.412-.448.015-.714-.124-.758-.579a3.68,3.68,0,0,0-.162-.579c-.184-.7-.315-.807-1.193-.739Zm48.754-77.731.664.772,1.179-.924.415.5c-.157.386-.3.737-.45,1.094-.241.579-.145.832.533,1.214l.679-1.6.319.054a1.318,1.318,0,0,0,1.5-1.762,2.24,2.24,0,0,0-.328-.579c-.314-.411-.647-.81-.979-1.208a1.517,1.517,0,0,0-.28-.193Zm-10.755,72.021c-.721.457-1.381.826-1.985,1.272a1.233,1.233,0,0,0-.421,1.582,8.842,8.842,0,0,0,.873,1.532,1.313,1.313,0,0,0,1.543.48,9.149,9.149,0,0,0,2.144-1.158c-.718-1.223-1.407-2.412-2.154-3.709Zm12.086-4.3-2.953-3.039a1.361,1.361,0,0,0-.687.747l.965,1.025-.48.457-1.05-.332c-.685-.212-.83-.147-1.239.579.515.284,1.123.318,1.658.579a.988.988,0,0,1-.016.224,1.3,1.3,0,0,0,.691,1.393,1.211,1.211,0,0,0,1.451-.125C4132.856,893.315,4133.36,892.8,4133.958,892.248Zm-76.244-1.494c1.117-.926,2.186-1.808,3.261-2.759l-.656-.735-1.173.934-.421-.5c.141-.355.278-.7.413-1.038.257-.639.16-.889-.538-1.256q-.324.81-.641,1.607a2.632,2.632,0,0,1-.276-.033,1.287,1.287,0,0,0-1.4.569,1.188,1.188,0,0,0-.025,1.407A13.571,13.571,0,0,0,4057.715,890.754Zm4.7-70.408a.668.668,0,0,1,.976-.309,5.012,5.012,0,0,0,.627.218c.568.193.88.019,1.127-.627l-1.625-.556a1.85,1.85,0,0,1,.01-.241,1.269,1.269,0,0,0-.6-1.38,1.216,1.216,0,0,0-1.455.029,12.972,12.972,0,0,0-1.711,1.544c.982,1.054,1.908,2.07,2.921,3.1l.707-.7C4063.035,821.041,4062.728,820.7,4062.412,820.346Zm9.491-5.374c.714-.425,1.37-.762,1.965-1.187a1.337,1.337,0,0,0,.473-1.717,7.752,7.752,0,0,0-.527-1.032,1.606,1.606,0,0,0-2.385-.712c-.427.214-.843.455-1.26.693a2.384,2.384,0,0,0-.312.266Zm60.961,5.505a.979.979,0,0,0,.358-1.036,2.3,2.3,0,0,0-1.372-1.7,1.351,1.351,0,0,0-1.558.174,9.429,9.429,0,0,0-1.181,1.239,1.323,1.323,0,0,0-.193,1.411,2.4,2.4,0,0,0,1.5,1.378,1.319,1.319,0,0,0,1.119-.112,3.112,3.112,0,0,0,1-.988,9.678,9.678,0,0,0-1.309-1.2c-.17.183-.3.328-.442.482l.467.579c-.439.423-.737.45-1.117.122a.751.751,0,0,1-.089-1.158,8.758,8.758,0,0,1,.715-.772c.346-.336.636-.409.94-.239a.819.819,0,0,1,.5.9.482.482,0,0,0,.176.488Zm-82.009,49.643c-.143-.365-.247-.629-.369-.942l-3.984,1.316a3.525,3.525,0,0,0,.07.386c.156.567.222.606.771.43.315-.1.625-.208.994-.332.168.5.324.965.489,1.443l-1.442.513c-.011.9.158,1.03.9.783.928-.309,1.858-.612,2.784-.92a6.278,6.278,0,0,0,.579-.243c-.118-.326-.212-.592-.326-.909l-1.6.473-.459-1.422Zm93.619-29.822c.431-.139.8-.253,1.159-.386.113-.041.3-.139.3-.193a2.07,2.07,0,0,0-.18-.735c-.106-.193-.322-.089-.5-.033-.988.309-1.98.61-2.968.92-.673.21-.7.28-.415.932a1.163,1.163,0,0,0,.172.222l1.52-.444c.155.5.295.953.446,1.447-.423.137-.807.257-1.187.386-.116.041-.315.129-.31.193a2.42,2.42,0,0,0,.162.735c.082.193.276.124.437.075,1.1-.34,2.192-.675,3.28-1.017a2.175,2.175,0,0,0,.348-.193,4.134,4.134,0,0,0-.089-.449c-.141-.453-.172-.469-.629-.34-.351.1-.7.208-1.1.326Zm-83.686,51.789a1.15,1.15,0,0,0-.259,1.266,2.385,2.385,0,0,0,1.425,1.463,1.368,1.368,0,0,0,1.5-.253,9.037,9.037,0,0,0,1.125-1.221,1.545,1.545,0,0,0-.2-2.03,1.863,1.863,0,0,0-2.221-.65.929.929,0,0,0-.1.056,3.232,3.232,0,0,0-.938.994l1.295,1.2.469-.538-.479-.536c.386-.438.687-.488,1.091-.193a.748.748,0,0,1,.168,1.158,10.425,10.425,0,0,1-.863.938.61.61,0,0,1-.757.158c-.293-.15-.579-.357-.542-.7.09-.583-.3-.807-.711-1.1Zm-9.226-54.925a1.332,1.332,0,0,0,1.015-.4,2.441,2.441,0,0,0,.724-1.463,1.4,1.4,0,0,0-.726-1.5,8.572,8.572,0,0,0-1.4-.658,1.43,1.43,0,0,0-1.509.268,2.123,2.123,0,0,0-.76,1.825,1.47,1.47,0,0,0,.353.841A4.164,4.164,0,0,0,4051.563,837.163Zm90.264,36.8a1.391,1.391,0,0,0-1.131.508,2.451,2.451,0,0,0-.591,1.229,1.455,1.455,0,0,0,.772,1.675,8.3,8.3,0,0,0,1.311.579,1.538,1.538,0,0,0,1.918-.681,2.269,2.269,0,0,0,.4-1.351,1.27,1.27,0,0,0-.4-.945,4.554,4.554,0,0,0-2.281-1.009Zm-46.207,32.875a.71.71,0,0,0,.241.772,2.1,2.1,0,0,0,2.65.116,1.138,1.138,0,0,0-.237-1.9,6.243,6.243,0,0,0-.839-.276,6.348,6.348,0,0,1-.736-.241.386.386,0,0,1-.2-.287.529.529,0,0,1,.224-.338.933.933,0,0,1,1.124.16c.343.386.7.286,1.1.158a.95.95,0,0,0-.527-.982,2.3,2.3,0,0,0-1.5-.282,1.884,1.884,0,0,0-1.123.419,1.124,1.124,0,0,0,.262,1.916,8.335,8.335,0,0,0,.951.289,2.627,2.627,0,0,1,.579.193.513.513,0,0,1,.214.343c.023.193-.127.293-.309.326a.732.732,0,0,1-.772-.172c-.324-.422-.708-.278-1.1-.212Zm-.7-99.941a1.1,1.1,0,0,0,.726,1.129,2.56,2.56,0,0,0,1.951.068,1.209,1.209,0,0,0,.9-1.2c0-.556-.271-.891-.911-1.106-.334-.112-.679-.181-1.015-.288-.376-.118-.534-.3-.482-.506s.313-.343.649-.3a.908.908,0,0,1,.446.193.9.9,0,0,0,1.177.145,1.014,1.014,0,0,0-.386-.76,2.174,2.174,0,0,0-2.49-.118,1.142,1.142,0,0,0,.161,1.968,6.345,6.345,0,0,0,.837.286,4.644,4.644,0,0,1,.727.259.321.321,0,0,1,0,.606,1.06,1.06,0,0,1-1.1-.1c-.324-.43-.723-.332-1.189-.28Zm41.131,83.057c.663-.822,1.285-1.588,1.93-2.393-1.129-.924-2.19-1.8-3.337-2.684l-1.947,2.412.642.519,1.351-1.621.67.558-1.193,1.521.608.48,1.254-1.478.642.536-1.279,1.629Zm-18.589-78.713c.161.579.293,1.044.429,1.519.154.534.465.754,1.158.772-.122-.878-.454-1.7-.579-2.59.712-.415,1.507-.621,2.2-1.059-.479-.515-.816-.6-1.337-.386l-1.3.544.562-1.3-.891-.405c-.62,1.293-1.216,2.53-1.836,3.821l.876.426c.251-.448.463-.847.727-1.339Zm8.446,1.7-2.6-1.665-2.277,3.593c.882.617,1.737,1.158,2.63,1.69l.432-.691-1.771-1.158.5-.733c.3.193.546.349.794.5s.527.318.838.506l.4-.654-1.607-1.079c.178-.264.318-.471.471-.695l1.758,1.092Zm-58.975,3.267c.507-.444,1.074-.731,1.53-1.216l-.444-.579c-.548.386-1.056.735-1.588,1.11l-.488-.672c.507-.475,1.142-.772,1.634-1.3l-.477-.608c-.859.6-1.661,1.169-2.474,1.812l2.509,3.429c.882-.635,1.709-1.2,2.522-1.866-.193-.234-.334-.411-.5-.623l-1.719,1.214Zm-8.73,5.658-.668-.509-1.951,2.335c1.092.949,2.15,1.827,3.281,2.748l2-2.391-.642-.529-1.376,1.615-.669-.579,1.179-1.438c-.469-.6-.537-.6-.948-.118-.286.336-.57.673-.878,1.04l-.646-.571Zm14.543,75.626-2.665-1.64-.419.72,1.781,1.129c-.178.28-.313.5-.467.743l-1.669-.994-.386.675,1.621,1.03-.451.722-1.777-1.063c-.162.266-.28.463-.418.695a28.437,28.437,0,0,0,2.631,1.6c.747-1.206,1.458-2.368,2.223-3.608Zm53.49-2.972.509.716-1.521,1.191.491.6,1.559-1.131.5.675-1.636,1.279.517.65,2.445-1.852-2.576-3.41c-.865.648-1.681,1.229-2.487,1.908l.5.633Zm-51.521,4.187c.241.965.457,1.8.677,2.669-.422.193-.8.351-1.158.546s-.772.235-1.05.61c.449.353.874.579,1.422.262a7.036,7.036,0,0,1,.806-.365,2.814,2.814,0,0,1,.386-.1l-.519,1.219.886.411c.319-.679.619-1.306.905-1.941a20.616,20.616,0,0,0,.837-1.912,3.1,3.1,0,0,0-.347-.193c-.479-.235-.521-.22-.747.257-.124.259-.245.517-.367.772a4.116,4.116,0,0,1-.48-1.27c-.115-.652-.572-.826-1.252-.961Zm69.234-29.245c-.075.3-.145.529-.193.772a4.019,4.019,0,0,0-.086.772,1.168,1.168,0,0,0,.873,1.158,1.248,1.248,0,0,0,1.46-.341,2.554,2.554,0,0,0,.4-.72c.166-.469.3-.951.43-1.432.108-.386.087-.432-.3-.55q-1.619-.49-3.236-.965a2.6,2.6,0,0,0-.457-.046c-.068.193-.135.369-.18.544-.091.359-.07.4.288.513.319.089.635.181,1.011.3Zm-5.717-38.43c-.505.847-.5.951.135,1.472l2.7-3.473c-.1-.193-.166-.318-.242-.444-.335-.552-.341-.55-.974-.421-1.015.208-2.03.409-3.043.62-.228.046-.45.116-.755.193.182.289.269.6.458.689a2.754,2.754,0,0,0,.921.071Zm-83.1,49.205c-.042.021-.108.031-.137.068q-1.222,1.613-2.433,3.232c-.05.068-.1.193-.074.249a2.963,2.963,0,0,0,.514.772c.1.1.386.046.579,0,1.158-.247,2.316-.509,3.456-.772a2.067,2.067,0,0,0,.385-.193c-.169-.249-.269-.556-.466-.641a2.488,2.488,0,0,0-.9-.025l-.828-1.283c.5-.864.494-.89-.1-1.407Zm-5.789-38.5a13.22,13.22,0,0,0,.274-1.476,1.161,1.161,0,0,0-.855-1.22,1.265,1.265,0,0,0-1.544.4,1.95,1.95,0,0,0-.3.529c-.193.523-.343,1.055-.515,1.58-.077.233-.025.4.224.475l3.437,1.077a.3.3,0,0,0,.428-.212c.023-.069.048-.139.072-.21.131-.432.1-.506-.324-.648-.3-.1-.592-.193-.9-.291Zm2.935,36.015a12.5,12.5,0,0,0-.655-1.135,1.267,1.267,0,0,0-1.806-.347,1.317,1.317,0,0,0-.507,1.737c.193.481.427.94.65,1.407s.259.5.745.268q1.5-.714,2.989-1.44a2.882,2.882,0,0,0,.342-.243l-.454-.855Zm87.093-43.121.452.926,1.334-.558a11.532,11.532,0,0,0,.639,1.142,1.343,1.343,0,0,0,2.389-1.127,12.826,12.826,0,0,0-.608-1.484c-.093-.214-.214-.417-.345-.668Zm-51.181-25.8a4.706,4.706,0,0,0-.081-.664,2.311,2.311,0,0,1,.093-1.509c.212-.531.385-1.083.553-1.627.053-.166.076-.342.112-.515-.758-.118-.941-.015-1.158.579-.142.413-.291.824-.467,1.32-.349-.407-.632-.741-.92-1.073-.4-.463-.655-.494-1.286-.118.116.162.22.328.344.48.361.446.712.9,1.1,1.324a2.225,2.225,0,0,1,.579,1.223C4087.2,809.116,4087.228,809.112,4088.2,808.83Zm16.864,98.465c.812.095.964,0,1.186-.66.134-.405.271-.809.416-1.233a1.338,1.338,0,0,1,.154.116l.809.911c.4.454.679.475,1.262.064a4.889,4.889,0,0,0-.316-.43c-.386-.453-.752-.913-1.158-1.351a2.072,2.072,0,0,1-.579-1.218,6.993,6.993,0,0,0-.193-.758l-.934.193a1.381,1.381,0,0,0,0,.386,3.168,3.168,0,0,1-.158,2.315c-.127.326-.216.668-.316,1C4105.178,906.832,4105.125,907.042,4105.059,907.295Zm-.614-101.952c.05-.143.081-.21.1-.28.118-.523.091-.579-.422-.658-.772-.11-1.544-.193-2.316-.291-.212-.025-.428-.023-.623-.033-.265.81-.222.872.56.953a4.651,4.651,0,0,1,.463.1c-.056,1.14-.344,2.2-.3,3.3.192.033.345.06.492.077.423.05.486,0,.541-.407.048-.367.083-.735.129-1.1.076-.579.157-1.158.236-1.752Zm-15.117,102.228c1.181.149,2.287.293,3.412.345a2.407,2.407,0,0,0,.094-.318c.069-.5.013-.562-.5-.618-.193-.021-.386-.064-.616-.1-.025-1.123.286-2.188.23-3.28-.183-.035-.326-.069-.469-.089-.453-.06-.516-.012-.565.436s-.079.845-.128,1.266c-.055.509-.121,1.017-.192,1.544h-1.21C4089.363,907.015,4089.347,907.254,4089.328,907.571Zm23.983-96.516c.43-1.2.868-2.4,1.3-3.616.031-.091.017-.276-.035-.3a2.245,2.245,0,0,0-.707-.266c-.23-.031-.258.22-.319.386-.337.934-.671,1.87-1.013,2.8-.255.7-.43.735.563,1.03C4113.128,811.1,4113.168,811.082,4113.311,811.055Zm-31.792,90.364c-.255-.1-.444-.16-.623-.241-.274-.127-.415,0-.5.243-.375,1.1-.751,2.192-1.117,3.292-.037.114-.054.326,0,.359a2.108,2.108,0,0,0,.692.288c.233.042.278-.193.338-.365.24-.7.482-1.391.718-2.088C4081.187,902.44,4081.337,901.969,4081.519,901.419Z" transform="translate(693.06 1464.56)" fill="#fff"/>
    <path id="Path_11966" data-name="Path 11966" d="M4095.519,915.674v-.716c0-5.3-.011-10.592,0-15.887a11.092,11.092,0,0,1,5.919-10.165q11.554-6.686,23.121-13.353c1.458-.843,2.895-1.712,4.378-2.52a10.947,10.947,0,0,1,11.325.021q13.893,7.954,27.738,16.016a10.851,10.851,0,0,1,5.654,9.812c.05,5.368.012,10.737.012,16.106v.639c.192-.087.332-.141.462-.216.884-.506,1.755-1.031,2.646-1.522a4.159,4.159,0,1,1,4.125,7.222c-1.93,1.127-3.881,2.235-5.82,3.352-.465.266-.926.536-1.412.818v.616c0,1.629.017,3.259,0,4.888a11,11,0,0,1-5.71,9.951c-6.5,3.805-13.037,7.543-19.559,11.31-2.628,1.517-5.262,3.026-7.882,4.556a11.894,11.894,0,0,1-4.357,1.559c-.4.058-.8.166-1.2.224a7.214,7.214,0,0,1-2.3-.28,12.382,12.382,0,0,1-4.121-1.575q-10.542-6.109-21.1-12.187c-2.052-1.183-4.108-2.358-6.154-3.554a11.208,11.208,0,0,1-5.716-8.647,9.8,9.8,0,0,1-.048-1.275c0-1.648-.021-3.3.01-4.944a.922.922,0,0,0-.536-.965c-2.1-1.175-4.177-2.387-6.263-3.583a5.347,5.347,0,0,1-1.613-1.248,4.16,4.16,0,0,1,5.21-6.279c.827.451,1.638.938,2.456,1.409C4094.99,915.381,4095.2,915.5,4095.519,915.674Zm75.925,4.066v-.868c0-6.592.026-13.183,0-19.775a9.276,9.276,0,0,0-4.618-8.172c-.654-.417-1.34-.787-2.014-1.175L4145.1,878.365c-1.94-1.119-3.873-2.248-5.821-3.35a9.437,9.437,0,0,0-6.166-1.1,9.762,9.762,0,0,0-3.545,1.281q-4.611,2.673-9.227,5.332c-5.9,3.4-11.808,6.788-17.691,10.227a9.427,9.427,0,0,0-4.944,8.612c-.02,6.536,0,13.073,0,19.609v.741c-.282-.147-.459-.232-.631-.33-1.011-.579-2.018-1.158-3.027-1.748-.965-.554-1.914-1.129-2.895-1.65a1.715,1.715,0,0,0-2.53,1.351,1.692,1.692,0,0,0,.948,1.737q3.756,2.155,7.506,4.32c.7.407.627.206.629,1.063v6.221a8.674,8.674,0,0,0,.122,1.492,9.554,9.554,0,0,0,4.749,6.833c1.4.824,2.821,1.627,4.229,2.441,7.629,4.4,15.244,8.826,22.889,13.2a9.27,9.27,0,0,0,9.676.043c3.709-2.086,7.379-4.245,11.064-6.368,5.417-3.126,10.854-6.219,16.24-9.4a9.216,9.216,0,0,0,4.75-8.317c.022-2.074.014-4.147,0-6.221a.906.906,0,0,1,.518-.924c2.018-1.131,4.018-2.3,6.022-3.448.592-.342,1.2-.662,1.774-1.034a1.738,1.738,0,0,0-1.889-2.918l-5.627,3.244C4172.009,919.424,4171.788,919.547,4171.443,919.74Z" transform="translate(654.996 1405.647)" fill="#200173"/>
    <path id="Path_11967" data-name="Path 11967" d="M4246.81,838.86a11.227,11.227,0,0,1,2.445-.741c.936-.11,1.458.712,1.109,1.708l.256.177a1.176,1.176,0,0,1-.044,2.028,15.371,15.371,0,0,1-2.233.8c-.2.068-.3-.091-.357-.261-.109-.332-.212-.668-.318-1Zm2.053,2.991c.353-.118.639-.193.907-.307a.5.5,0,0,0-.315-.946c-.295.075-.578.193-.9.3.106.34.195.616.3.959Zm-.536-1.727c.288-.091.532-.154.771-.249.328-.133.433-.33.344-.579s-.26-.34-.579-.268c-.263.058-.513.164-.808.26.092.3.175.55.272.839Z" transform="translate(525.37 1432.568)" fill="#200173"/>
    <path id="Path_11968" data-name="Path 11968" d="M4106.088,945.427c.309.386.622.772.924,1.158.247.32.226.409-.027.772-.192.268-.386.212-.626.114-1.04-.432-2.086-.855-3.126-1.285a4.806,4.806,0,0,1-.422-.235l.5-.772,2.192.864.047-.069c-.231-.28-.457-.565-.7-.838a.432.432,0,0,1-.042-.6.42.42,0,0,1,.556-.2,4.246,4.246,0,0,0,1.105.2l-1.158-1.081c-.108-.1-.216-.2-.33-.3a.338.338,0,0,1-.064-.529c.11-.146.21-.3.339-.484a3.226,3.226,0,0,1,.375.259q1.232,1.121,2.451,2.25c.376.347.386.494.066.878a.415.415,0,0,1-.482.156c-.5-.131-1-.237-1.5-.353Z" transform="translate(641.584 1348.603)" fill="#200173"/>
    <path id="Path_11969" data-name="Path 11969" d="M4409.636,1332.028a2.7,2.7,0,0,1-.3-.193,1.187,1.187,0,0,1-.108-1.837,2.328,2.328,0,0,1,.709-.413c.446-.178.905-.317,1.351-.469.56-.193.58-.178.784.4q.446,1.308.883,2.622c.06.174.122.347.182.523a.3.3,0,0,1-.208.432c-.629.208-1.249.461-1.892.615a1.109,1.109,0,0,1-1.488-.915A3.723,3.723,0,0,1,4409.636,1332.028Zm1.5-2.007c-.34.116-.608.193-.857.3a.489.489,0,0,0-.307.629.471.471,0,0,0,.618.314c.284-.064.556-.174.878-.278C4411.354,1330.658,4411.254,1330.371,4411.135,1330.021Zm.579,1.7c-.34.123-.618.206-.88.326a.4.4,0,0,0-.208.556.386.386,0,0,0,.48.26c.294-.075.579-.193.89-.286Z" transform="translate(394.599 1036.396)" fill="#200173"/>
    <path id="Path_11970" data-name="Path 11970" d="M4547.731,1220.783c.241.278.473.565.726.832a.425.425,0,0,1,.025.594.4.4,0,0,1-.511.2,4.468,4.468,0,0,0-1.126-.193l.857.772.887.8-.494.795a3.1,3.1,0,0,1-.353-.232c-.85-.745-1.693-1.5-2.539-2.24-.2-.177-.385-.336-.2-.652.216-.373.29-.44.7-.363.488.093.966.208,1.583.342-.386-.469-.7-.844-1-1.223-.277-.344-.267-.421-.038-.772a.412.412,0,0,1,.238-.215.408.408,0,0,1,.32.022l3.454,1.362a.531.531,0,0,1,.133.11.423.423,0,0,1-.016.156c-.333.687-.341.689-1.035.425l-1.544-.594Z" transform="translate(284.781 1125.007)" fill="#200173"/>
    <path id="Path_11971" data-name="Path 11971" d="M4392.133,835.743c.146.579.281,1.111.415,1.642-.67.193-1.011.013-1.158-.565-.1-.374-.192-.751-.289-1.158l-.62-.193c-.1.359-.193.691-.279,1.019-.125.452-.155.469-.618.345-.14-.037-.273-.091-.429-.143a2.473,2.473,0,0,1,.023-.4q.387-1.611.8-3.223c.128-.506.143-.509.644-.386.467.106.936.214,1.393.357a2.106,2.106,0,0,1,.682.353,1.317,1.317,0,0,1-.129,2.123C4392.443,835.591,4392.31,835.649,4392.133,835.743Zm-1.459-1.115c.32.083.563.164.81.2a.472.472,0,0,0,.579-.374.465.465,0,0,0-.306-.616,8.521,8.521,0,0,0-.838-.22c-.083.342-.154.637-.25,1.007Z" transform="translate(410.493 1437.004)" fill="#200173"/>
    <path id="Path_11972" data-name="Path 11972" d="M4269.022,1336.284c.87-.062,1.009.035,1.2.731a3.55,3.55,0,0,1,.163.579c.044.448.311.579.758.579.118-.442.239-.9.386-1.412l.858.174a19.122,19.122,0,0,1-.849,4.087c-.043.015-.1.06-.143.048a16.357,16.357,0,0,1-2.086-.511,1.27,1.27,0,0,1-.642-1.93,4.548,4.548,0,0,1,.784-.739Zm1.942,2.781c-.321-.072-.579-.149-.854-.193a.477.477,0,0,0-.546.361.47.47,0,0,0,.3.629,7.591,7.591,0,0,0,.855.206Z" transform="translate(507.913 1030.534)" fill="#200173"/>
    <path id="Path_11973" data-name="Path 11973" d="M4524.11,922.456l3.259-2.646a1.5,1.5,0,0,1,.28.193c.333.4.664.8.979,1.208a2.273,2.273,0,0,1,.328.579,1.318,1.318,0,0,1-1.5,1.762l-.318-.054-.68,1.6c-.677-.386-.771-.629-.532-1.214.148-.357.293-.716.45-1.094l-.416-.5-1.179.924Zm2.5-.706c.21.253.359.463.539.643a.48.48,0,0,0,.727.056.506.506,0,0,0,.077-.733c-.14-.21-.316-.386-.5-.627Z" transform="translate(301.579 1366.632)" fill="#200173"/>
    <path id="Path_11974" data-name="Path 11974" d="M4457.724,1306.76c.747,1.3,1.436,2.485,2.146,3.716a9.955,9.955,0,0,1-2.144,1.158,1.314,1.314,0,0,1-1.543-.481,8.835,8.835,0,0,1-.872-1.532,1.233,1.233,0,0,1,.421-1.582C4456.342,1307.578,4457,1307.217,4457.724,1306.76Zm.815,3.473c-.412-.71-.822-1.426-1.246-2.155-.14.06-.245.093-.339.143-.807.428-.891.7-.463,1.494l.108.193C4457.191,1310.938,4457.541,1311,4458.539,1310.233Z" transform="translate(357.209 1054.349)" fill="#200173"/>
    <path id="Path_11975" data-name="Path 11975" d="M4508.242,1271.791c-.6.554-1.1,1.069-1.658,1.515a1.211,1.211,0,0,1-1.451.125,1.3,1.3,0,0,1-.691-1.393,1.145,1.145,0,0,1,.016-.224c-.535-.266-1.142-.3-1.658-.579.409-.728.554-.793,1.239-.579l1.05.332.48-.457-.965-1.025a1.375,1.375,0,0,1,.687-.747Zm-2.134-.685c-.214.243-.405.44-.579.658a.5.5,0,0,0,.06.693.45.45,0,0,0,.683.04,7.859,7.859,0,0,0,.637-.619Z" transform="translate(318.777 1085.016)" fill="#200173"/>
    <path id="Path_11976" data-name="Path 11976" d="M4128.91,1254.335a14.085,14.085,0,0,1-1.452-1.8,1.2,1.2,0,0,1,.026-1.407,1.289,1.289,0,0,1,1.395-.569,2.592,2.592,0,0,0,.276.033q.319-.8.641-1.607c.7.367.8.617.539,1.256-.135.342-.272.683-.413,1.038l.42.5,1.173-.934.656.735C4131.1,1252.527,4130.027,1253.409,4128.91,1254.335Zm-.035-1.3.818-.716c-.216-.251-.372-.459-.555-.637a.453.453,0,0,0-.687-.047.5.5,0,0,0-.108.731C4128.485,1252.583,4128.662,1252.77,4128.875,1253.036Z" transform="translate(621.865 1100.979)" fill="#200173"/>
    <path id="Path_11977" data-name="Path 11977" d="M4149.148,898.826c.316.355.623.695.98,1.092l-.707.7c-1.013-1.03-1.939-2.047-2.921-3.1a12.535,12.535,0,0,1,1.712-1.544,1.2,1.2,0,0,1,1.455-.029,1.25,1.25,0,0,1,.6,1.38,1.866,1.866,0,0,0-.011.234l1.625.556c-.247.646-.56.812-1.127.627a5.018,5.018,0,0,1-.626-.218A.665.665,0,0,0,4149.148,898.826Zm-.612-.639c.241-.228.456-.4.633-.6a.468.468,0,0,0,.144-.348.462.462,0,0,0-.16-.341.492.492,0,0,0-.69-.079,8.483,8.483,0,0,0-.65.6Z" transform="translate(606.324 1386.08)" fill="#200173"/>
    <path id="Path_11978" data-name="Path 11978" d="M4200.847,863.448l-2.047-3.689a2.394,2.394,0,0,1,.313-.266c.417-.237.833-.479,1.26-.693a1.606,1.606,0,0,1,2.385.712,7.873,7.873,0,0,1,.519,1.042,1.329,1.329,0,0,1-.473,1.717C4202.2,862.7,4201.561,863.029,4200.847,863.448Zm-.758-3.491c.417.749.816,1.469,1.231,2.209.192-.1.343-.162.486-.243.643-.37.716-.6.4-1.258-.048-.1-.1-.193-.152-.3-.583-1.069-.865-1.137-1.965-.407Z" transform="translate(564.116 1416.084)" fill="#200173"/>
    <path id="Path_11979" data-name="Path 11979" d="M4508.3,900.4l-.484-.436a.483.483,0,0,1-.176-.488.821.821,0,0,0-.5-.9c-.3-.17-.594-.1-.939.239a8.7,8.7,0,0,0-.716.772.743.743,0,0,0,.089,1.158c.393.332.677.3,1.117-.122l-.467-.579c.141-.154.272-.3.442-.482a9.642,9.642,0,0,1,1.308,1.2,3.125,3.125,0,0,1-1,.988,1.32,1.32,0,0,1-1.119.112,2.4,2.4,0,0,1-1.5-1.378,1.321,1.321,0,0,1,.193-1.41,9.454,9.454,0,0,1,1.181-1.239,1.351,1.351,0,0,1,1.557-.174,2.309,2.309,0,0,1,1.372,1.7.98.98,0,0,1-.354,1.038Z" transform="translate(317.624 1384.639)" fill="#200173"/>
    <path id="Path_11980" data-name="Path 11980" d="M4082.163,1165.9l-1.6.579.46,1.422,1.6-.473c.114.317.208.579.326.909-.224.095-.4.181-.579.243-.927.309-1.856.612-2.784.92-.737.247-.907.112-.9-.783l1.441-.513c-.164-.482-.32-.942-.489-1.443-.368.124-.679.233-.993.332-.544.176-.61.137-.772-.43-.029-.1-.039-.212-.07-.386l3.985-1.316Z" transform="translate(661.76 1168.787)" fill="#200173"/>
    <path id="Path_11981" data-name="Path 11981" d="M4573.963,1009.315l.46,1.449c.395-.118.744-.226,1.1-.326.457-.129.488-.114.629.34a4.135,4.135,0,0,1,.089.45,2.153,2.153,0,0,1-.348.193c-1.092.341-2.188.677-3.28,1.017-.16.048-.354.126-.436-.075a2.377,2.377,0,0,1-.162-.735c0-.054.193-.143.309-.193.386-.133.771-.253,1.187-.386-.15-.494-.291-.947-.445-1.447l-1.521.444a1.183,1.183,0,0,1-.173-.222c-.286-.652-.258-.722.415-.932.988-.311,1.98-.612,2.969-.92.177-.056.386-.166.5.033a2.039,2.039,0,0,1,.18.735c0,.056-.192.154-.3.193C4574.764,1009.068,4574.394,1009.177,4573.963,1009.315Z" transform="translate(263.579 1295.549)" fill="#200173"/>
    <path id="Path_11982" data-name="Path 11982" d="M4150.4,1277.041c.407.293.792.517.718,1.1-.044.345.249.552.542.7a.609.609,0,0,0,.756-.158,10.327,10.327,0,0,0,.863-.938.737.737,0,0,0-.168-1.158c-.428-.328-.708-.251-1.09.193l.479.536-.469.538-1.295-1.2a3.22,3.22,0,0,1,.938-.994.878.878,0,0,1,.1-.056,1.861,1.861,0,0,1,2.22.65,1.544,1.544,0,0,1,.2,2.03,8.974,8.974,0,0,1-1.125,1.221,1.367,1.367,0,0,1-1.5.253,2.386,2.386,0,0,1-1.425-1.463A1.15,1.15,0,0,1,4150.4,1277.041Z" transform="translate(603.459 1079.613)" fill="#200173"/>
    <path id="Path_11983" data-name="Path 11983" d="M4092.8,981.733a4.257,4.257,0,0,1-2.316-1.086,1.474,1.474,0,0,1-.353-.841,2.123,2.123,0,0,1,.761-1.825,1.429,1.429,0,0,1,1.508-.268,8.6,8.6,0,0,1,1.4.658,1.4,1.4,0,0,1,.725,1.5,2.443,2.443,0,0,1-.724,1.463A1.331,1.331,0,0,1,4092.8,981.733Zm-.938-3.068a.7.7,0,0,0-.747.434.67.67,0,0,0,.11.818,3.355,3.355,0,0,0,1.63.753.652.652,0,0,0,.7-.428.67.67,0,0,0-.11-.82,3.709,3.709,0,0,0-1.58-.753Z" transform="translate(651.821 1319.99)" fill="#200173"/>
    <path id="Path_11984" data-name="Path 11984" d="M4564.452,1189.715a4.555,4.555,0,0,1,2.283,1.015,1.271,1.271,0,0,1,.4.946,2.266,2.266,0,0,1-.4,1.351,1.538,1.538,0,0,1-1.918.681,8.215,8.215,0,0,1-1.31-.579,1.458,1.458,0,0,1-.772-1.675,2.438,2.438,0,0,1,.59-1.229A1.392,1.392,0,0,1,4564.452,1189.715Zm1.76,2.161c-.039-.075-.079-.286-.207-.386a3.472,3.472,0,0,0-1.594-.71.649.649,0,0,0-.75.51.619.619,0,0,0,.238.824,6.965,6.965,0,0,0,1.463.623C4565.841,1192.868,4566.216,1192.483,4566.211,1191.877Z" transform="translate(270.44 1148.809)" fill="#200173"/>
    <path id="Path_11985" data-name="Path 11985" d="M4331.285,1346.994c.386-.066.771-.208,1.1.21a.731.731,0,0,0,.772.172c.181-.033.332-.135.308-.326a.512.512,0,0,0-.214-.343,2.63,2.63,0,0,0-.578-.193,8.274,8.274,0,0,1-.952-.289,1.125,1.125,0,0,1-.263-1.916,1.883,1.883,0,0,1,1.123-.419,2.3,2.3,0,0,1,1.5.282.949.949,0,0,1,.527.982c-.4.127-.758.224-1.1-.158a.932.932,0,0,0-1.123-.16.534.534,0,0,0-.224.338.388.388,0,0,0,.2.287,6.274,6.274,0,0,0,.735.241,6.215,6.215,0,0,1,.839.276,1.139,1.139,0,0,1,.237,1.9,2.1,2.1,0,0,1-2.649-.115A.7.7,0,0,1,4331.285,1346.994Z" transform="translate(457.4 1024.406)" fill="#200173"/>
    <path id="Path_11986" data-name="Path 11986" d="M4328.725,829.286c.465-.052.863-.151,1.2.276a1.077,1.077,0,0,0,1.1.1.324.324,0,0,0,0-.606,4.631,4.631,0,0,0-.728-.258,6.393,6.393,0,0,1-.837-.286,1.142,1.142,0,0,1-.161-1.968,2.173,2.173,0,0,1,2.489.118,1.012,1.012,0,0,1,.386.76.907.907,0,0,1-1.177-.145.9.9,0,0,0-.446-.193c-.336-.048-.6.087-.648.3s.106.386.482.506c.336.106.682.176,1.015.288.641.214.907.55.911,1.106a1.208,1.208,0,0,1-.9,1.2,2.56,2.56,0,0,1-1.95-.068A1.074,1.074,0,0,1,4328.725,829.286Z" transform="translate(459.263 1442.172)" fill="#200173"/>
    <path id="Path_11987" data-name="Path 11987" d="M4527.918,1251.357l-.643-.521,1.28-1.629-.643-.536-1.255,1.478-.607-.481,1.193-1.52-.67-.558-1.351,1.621-.643-.519,1.947-2.412c1.146.882,2.207,1.76,3.336,2.684C4529.2,1249.769,4528.582,1250.535,4527.918,1251.357Z" transform="translate(301.2 1103.158)" fill="#200173"/>
    <path id="Path_11988" data-name="Path 11988" d="M4438.883,852.556c-.265.492-.476.891-.718,1.351l-.876-.426c.62-1.291,1.216-2.528,1.835-3.821l.892.405-.562,1.3,1.3-.544c.521-.216.858-.127,1.337.386-.691.438-1.486.644-2.2,1.059.118.886.449,1.712.579,2.59-.69-.019-1-.239-1.157-.772C4439.177,853.6,4439.043,853.126,4438.883,852.556Z" transform="translate(371.646 1423.246)" fill="#200173"/>
    <path id="Path_11989" data-name="Path 11989" d="M4468.854,866.471l-.45.7-1.758-1.092c-.152.224-.293.43-.47.695l1.607,1.079-.4.654c-.31-.193-.579-.344-.837-.506s-.495-.315-.8-.5l-.5.733,1.771,1.158-.433.691c-.9-.542-1.748-1.073-2.63-1.69l2.289-3.589Z" transform="translate(350.122 1411.027)" fill="#200173"/>
    <path id="Path_11990" data-name="Path 11990" d="M4174.07,876.743l.508.7,1.719-1.214c.169.212.314.386.5.623-.812.662-1.64,1.231-2.522,1.866l-2.508-3.429c.813-.643,1.615-1.214,2.474-1.812l.477.608c-.493.531-1.127.822-1.635,1.3l.488.672c.532-.374,1.041-.727,1.588-1.109l.444.579C4175.145,876.012,4174.578,876.3,4174.07,876.743Z" transform="translate(585.931 1404.022)" fill="#200173"/>
    <path id="Path_11991" data-name="Path 11991" d="M4127.539,917.588l-1.322,1.6.656.579c.309-.367.592-.7.878-1.04.411-.484.478-.479.947.118l-1.179,1.438.669.579,1.376-1.615.642.529-2,2.389c-1.131-.92-2.188-1.8-3.281-2.748l1.951-2.335Z" transform="translate(623.732 1368.835)" fill="#200173"/>
    <path id="Path_11992" data-name="Path 11992" d="M4193.523,1304.77c-.772,1.241-1.477,2.4-2.221,3.612a30.776,30.776,0,0,1-2.632-1.6c.139-.232.256-.428.419-.695l1.777,1.063.451-.722-1.621-1.03.386-.675,1.669.994c.154-.245.29-.463.467-.743l-1.782-1.129.419-.72Z" transform="translate(572.292 1057.278)" fill="#200173"/>
    <path id="Path_11993" data-name="Path 11993" d="M4481.792,1290.871l-1.7,1.26-.5-.633c.807-.679,1.624-1.26,2.488-1.908l2.576,3.41-2.444,1.853-.517-.65,1.637-1.279-.5-.675-1.559,1.131-.49-.6,1.521-1.191Z" transform="translate(337.508 1068.206)" fill="#200173"/>
    <path id="Path_11994" data-name="Path 11994" d="M4217.608,1317.93c.681.135,1.137.309,1.254.965a4.153,4.153,0,0,0,.48,1.27c.122-.26.244-.519.367-.772.226-.477.268-.492.747-.257.1.048.193.108.347.193a20.346,20.346,0,0,1-.837,1.912c-.285.635-.579,1.262-.9,1.941l-.886-.411.519-1.219a2.815,2.815,0,0,0-.386.1,7.055,7.055,0,0,0-.806.365c-.548.318-.965.091-1.422-.262.28-.374.708-.422,1.05-.61s.729-.349,1.158-.546C4218.065,1319.732,4217.85,1318.885,4217.608,1317.93Z" transform="translate(550.171 1045.334)" fill="#200173"/>
    <path id="Path_11995" data-name="Path 11995" d="M4577.188,1160.632c-.376-.118-.693-.21-1.005-.314-.357-.118-.387-.154-.288-.513.045-.175.113-.343.18-.544a2.626,2.626,0,0,1,.458.046q1.618.469,3.235.965c.386.118.413.156.306.55-.131.48-.265.965-.431,1.432a2.536,2.536,0,0,1-.4.72,1.233,1.233,0,0,1-1.46.342,1.166,1.166,0,0,1-.872-1.158,3.87,3.87,0,0,1,.086-.772C4577.043,1161.161,4577.113,1160.933,4577.188,1160.632Zm.837.214c-.084.3-.165.544-.216.793a.485.485,0,0,0,.354.645.506.506,0,0,0,.673-.312,8.129,8.129,0,0,0,.225-.809Z" transform="translate(259.826 1173.387)" fill="#200173"/>
    <path id="Path_11996" data-name="Path 11996" d="M4544.066,954.953l-.8-1.287a2.759,2.759,0,0,1-.921-.071c-.192-.085-.276-.4-.458-.689.305-.083.526-.152.755-.193,1.013-.21,2.027-.411,3.042-.619.633-.129.639-.131.974.421.076.125.141.257.242.444l-2.7,3.473C4543.568,955.9,4543.561,955.8,4544.066,954.953Zm.618-.643.926-1.158-.058-.1-1.466.316Z" transform="translate(287.231 1340.636)" fill="#200173"/>
    <path id="Path_11997" data-name="Path 11997" d="M4111.4,1222.19c.59.517.592.55.091,1.424l.828,1.283a2.489,2.489,0,0,1,.9.025c.193.085.3.386.467.641a2.124,2.124,0,0,1-.387.193c-1.158.262-2.3.525-3.456.772-.193.041-.475.093-.579,0a2.937,2.937,0,0,1-.513-.772c-.03-.054.022-.181.073-.249q1.209-1.621,2.433-3.232A.335.335,0,0,1,4111.4,1222.19Zm-.509,2.063c-.335.448-.615.818-.894,1.191l.065.1,1.448-.328Z" transform="translate(636.793 1122.6)" fill="#200173"/>
    <path id="Path_11998" data-name="Path 11998" d="M4080.1,1010.968c.311.1.608.193.9.291.422.143.455.216.324.648-.023.071-.049.141-.072.21a.3.3,0,0,1-.428.212l-3.436-1.077c-.249-.077-.3-.241-.224-.475.172-.525.33-1.057.515-1.58a1.937,1.937,0,0,1,.3-.529,1.263,1.263,0,0,1,1.544-.4,1.161,1.161,0,0,1,.855,1.22,13.063,13.063,0,0,1-.278,1.476Zm-1.908-.567,1.031.3c.073-.193.131-.355.181-.511a1.451,1.451,0,0,0,.068-.268c.048-.359-.07-.561-.369-.648a.5.5,0,0,0-.666.33C4078.336,1009.839,4078.28,1010.092,4078.187,1010.4Z" transform="translate(662.309 1295.326)" fill="#200173"/>
    <path id="Path_11999" data-name="Path 11999" d="M4094.747,1202.179l1.3-.6.453.855a2.9,2.9,0,0,1-.341.243q-1.492.724-2.989,1.439c-.486.232-.51.224-.745-.268s-.463-.926-.65-1.407a1.313,1.313,0,0,1,.507-1.737,1.266,1.266,0,0,1,1.806.347A12.68,12.68,0,0,1,4094.747,1202.179Zm-.756.386a8.849,8.849,0,0,0-.442-.83.508.508,0,0,0-.689-.137.5.5,0,0,0-.258.644c.1.264.243.515.386.8Z" transform="translate(650.592 1140.129)" fill="#200173"/>
    <path id="Path_12000" data-name="Path 12000" d="M4559.06,978.468l3.859-1.768c.131.251.253.453.345.668a12.826,12.826,0,0,1,.608,1.484,1.343,1.343,0,0,1-2.388,1.127,11.517,11.517,0,0,1-.639-1.142l-1.333.558Zm2.555-.016c.133.282.232.538.37.772a.5.5,0,0,0,.708.222.508.508,0,0,0,.29-.685c-.092-.257-.222-.5-.351-.784Z" transform="translate(273.373 1320.72)" fill="#200173"/>
    <path id="Path_12001" data-name="Path 12001" d="M4280.685,833.927c-.965.282-1,.286-1.125-.579a2.227,2.227,0,0,0-.579-1.223c-.386-.424-.736-.878-1.1-1.324-.124-.152-.228-.318-.343-.48.63-.376.886-.345,1.285.118.287.332.579.666.92,1.073.176-.5.325-.907.467-1.32.209-.6.386-.7,1.159-.579-.037.174-.06.349-.112.515-.178.544-.342,1.1-.555,1.627a2.32,2.32,0,0,0-.092,1.509A4.593,4.593,0,0,1,4280.685,833.927Z" transform="translate(500.57 1439.463)" fill="#200173"/>
    <path id="Path_12002" data-name="Path 12002" d="M4381.23,1343.339c.067-.253.119-.463.181-.672.1-.336.193-.677.317-1a3.166,3.166,0,0,0,.158-2.316,1.38,1.38,0,0,1,0-.386l.934-.193a6.866,6.866,0,0,1,.193.758,2.069,2.069,0,0,0,.579,1.218c.4.432.772.891,1.157,1.351.117.135.213.287.317.43-.579.411-.858.386-1.262-.063l-.809-.911a1.247,1.247,0,0,0-.154-.116c-.145.424-.282.828-.415,1.233C4382.2,1343.337,4382.042,1343.434,4381.23,1343.339Z" transform="translate(416.888 1028.516)" fill="#200173"/>
    <path id="Path_12003" data-name="Path 12003" d="M4363.825,828.822l-1.142-.1c-.079.6-.16,1.175-.235,1.752-.047.367-.081.735-.13,1.1-.054.411-.117.457-.541.407-.146-.017-.289-.044-.491-.077-.039-1.1.249-2.155.3-3.3a4.611,4.611,0,0,0-.463-.1c-.772-.081-.824-.143-.56-.953a5.881,5.881,0,0,1,.624.033c.771.093,1.543.181,2.314.291.514.075.541.135.423.658C4363.907,828.61,4363.875,828.679,4363.825,828.822Z" transform="translate(433.68 1441.082)" fill="#200173"/>
    <path id="Path_12004" data-name="Path 12004" d="M4299.71,1346.792c.019-.317.035-.55.052-.822h1.221c.064-.529.13-1.036.193-1.544.048-.421.081-.845.127-1.266s.112-.5.565-.436c.143.019.286.054.47.089.056,1.1-.255,2.165-.23,3.28.226.038.419.081.615.1.514.056.57.12.5.617a2.408,2.408,0,0,1-.095.318C4302,1347.086,4300.891,1346.941,4299.71,1346.792Z" transform="translate(482.678 1025.339)" fill="#200173"/>
    <path id="Path_12005" data-name="Path 12005" d="M4419.918,846.191c-.143.027-.184.046-.214.037-.994-.3-.819-.332-.563-1.03.341-.934.675-1.87,1.013-2.8.061-.168.089-.419.318-.386a2.243,2.243,0,0,1,.708.266c.052.027.065.212.035.3C4420.787,843.787,4420.348,844.995,4419.918,846.191Z" transform="translate(386.454 1429.424)" fill="#200173"/>
    <path id="Path_12006" data-name="Path 12006" d="M4249.728,1330.776c-.182.55-.332,1.021-.493,1.488-.235.7-.478,1.391-.717,2.088-.061.172-.1.407-.338.365a2.1,2.1,0,0,1-.693-.288c-.054-.033-.037-.245,0-.359.367-1.1.743-2.2,1.117-3.292.084-.251.226-.371.5-.243C4249.283,1330.616,4249.473,1330.677,4249.728,1330.776Z" transform="translate(524.852 1035.203)" fill="#200173"/>
    <path id="Path_12007" data-name="Path 12007" d="M4181.61,929.445c.347-.193.579-.314.789-.44l5.627-3.244a1.738,1.738,0,0,1,1.889,2.918c-.579.372-1.181.693-1.773,1.034-2.005,1.158-4,2.315-6.023,3.448a.9.9,0,0,0-.516.924c.017,2.074.025,4.147,0,6.221a9.222,9.222,0,0,1-4.751,8.317c-5.385,3.178-10.823,6.271-16.239,9.4-3.686,2.123-7.356,4.284-11.064,6.368a9.269,9.269,0,0,1-9.675-.042c-7.643-4.378-15.26-8.8-22.89-13.2-1.409-.814-2.827-1.617-4.229-2.441a9.533,9.533,0,0,1-4.75-6.833,8.625,8.625,0,0,1-.121-1.492c-.014-2.074,0-4.149,0-6.221,0-.857.075-.656-.63-1.063q-3.744-2.171-7.506-4.32a1.694,1.694,0,0,1-.948-1.737,1.716,1.716,0,0,1,2.53-1.351c.98.521,1.93,1.1,2.894,1.65,1.009.579,2.017,1.158,3.028,1.748.172.1.35.193.631.33v-.741c0-6.536-.014-13.073,0-19.609a9.419,9.419,0,0,1,4.944-8.612c5.883-3.429,11.792-6.814,17.691-10.227l9.227-5.332a9.767,9.767,0,0,1,3.523-1.277,9.437,9.437,0,0,1,6.166,1.1c1.948,1.1,3.882,2.231,5.822,3.35l19.709,11.385c.673.386,1.351.758,2.014,1.175a9.279,9.279,0,0,1,4.618,8.172c.035,6.592,0,13.183,0,19.775Zm-36.856,22.208c.14-.162.259-.3.372-.434a9.341,9.341,0,0,1,2.632-2.275q7.742-4.465,15.489-8.925,7.215-4.154,14.439-8.3a.834.834,0,0,0,.486-.828c-.012-7.35,0-14.7-.021-22.052a6.531,6.531,0,0,0-.286-1.8,6.184,6.184,0,0,0-3.038-3.666q-6.888-3.948-13.752-7.933-6.587-3.8-13.178-7.6a6.015,6.015,0,0,0-6.379.042l-26.97,15.572a6,6,0,0,0-3.2,5.526q0,10.915-.014,21.83a.947.947,0,0,0,.56.951c3.618,2.059,7.223,4.143,10.831,6.219q9.336,5.376,18.669,10.742a10.389,10.389,0,0,1,3.105,2.647C4144.574,951.468,4144.654,951.542,4144.754,951.654Zm1.751,10.262a4.678,4.678,0,0,0,1.578-.677l22.551-13.006c1.491-.861,2.992-1.7,4.469-2.586a5.98,5.98,0,0,0,3.049-5.112c.069-1.544.015-3.074.009-4.61a2.312,2.312,0,0,0-.077-.4c-.245.135-.44.235-.629.343l-21.746,12.519c-2.036,1.171-4.083,2.327-6.107,3.521a6.064,6.064,0,0,0-3.117,5.4c-.026,1.351,0,2.7,0,4.052.005.162.005.326.023.554Zm-35.153-26.445v4.679a6.091,6.091,0,0,0,3.251,5.607q3.122,1.806,6.25,3.607,10.379,6,20.764,11.987a9.472,9.472,0,0,0,1,.477,1.13,1.13,0,0,0,.349.029v-5.38a2.362,2.362,0,0,0-.077-.492,6.108,6.108,0,0,0-3.028-4.12q-4.542-2.62-9.092-5.233L4112.3,936C4112.03,935.842,4111.758,935.69,4111.353,935.47Z" transform="translate(644.83 1395.942)" fill="#fff"/>
    <g id="Group_6979" data-name="Group 6979" transform="translate(4740.496 2270.626)">
      <path id="Path_12008" data-name="Path 12008" d="M4256.183,852.221c-.108-.343-.193-.619-.3-.955.316-.106.6-.222.9-.3a.5.5,0,0,1,.315.945C4256.822,852.032,4256.536,852.1,4256.183,852.221Z" transform="translate(-4222.445 -848.424)" fill="#fff"/>
      <path id="Path_12009" data-name="Path 12009" d="M4253.508,843.875c-.1-.289-.18-.542-.278-.839.295-.1.546-.2.809-.261.318-.071.495.027.579.268s-.016.45-.343.579C4254.041,843.72,4253.8,843.784,4253.508,843.875Z" transform="translate(-4220.306 -841.806)" fill="#fff"/>
      <path id="Path_12010" data-name="Path 12010" d="M4415.712,1334.27c.12.349.221.637.333.965-.322.1-.6.214-.878.278a.471.471,0,0,1-.618-.315.489.489,0,0,1,.307-.629C4415.1,1334.457,4415.374,1334.386,4415.712,1334.27Z" transform="translate(-4350.475 -1238.478)" fill="#fff"/>
      <path id="Path_12011" data-name="Path 12011" d="M4418.987,1343.08l.282.856c-.312.1-.6.211-.89.286a.386.386,0,0,1-.48-.261.4.4,0,0,1,.208-.556C4418.37,1343.286,4418.655,1343.2,4418.987,1343.08Z" transform="translate(-4353.166 -1245.588)" fill="#fff"/>
      <path id="Path_12012" data-name="Path 12012" d="M4397,838.847c.091-.37.162-.666.245-1.007a8.529,8.529,0,0,1,.837.22.464.464,0,0,1,.307.615.473.473,0,0,1-.579.374C4397.578,839.011,4397.326,838.93,4397,838.847Z" transform="translate(-4336.333 -837.84)" fill="#fff"/>
      <path id="Path_12013" data-name="Path 12013" d="M4275.508,1349.955l-.247,1.011a7.514,7.514,0,0,1-.855-.206.47.47,0,0,1-.3-.629.476.476,0,0,1,.546-.361C4274.923,1349.809,4275.188,1349.884,4275.508,1349.955Z" transform="translate(-4237.128 -1250.982)" fill="#fff"/>
      <path id="Path_12014" data-name="Path 12014" d="M4537.05,927.092l.839-.662a7.881,7.881,0,0,1,.5.627.508.508,0,0,1-.078.733.485.485,0,0,1-.728-.056C4537.409,927.555,4537.26,927.345,4537.05,927.092Z" transform="translate(-4449.359 -909.335)" fill="#fff"/>
      <path id="Path_12015" data-name="Path 12015" d="M4462.962,1315.745c-1,.772-1.351.7-1.938-.326l-.108-.193c-.429-.791-.344-1.065.462-1.493.1-.05.193-.083.34-.143C4462.14,1314.319,4462.551,1315.035,4462.962,1315.745Z" transform="translate(-4387.711 -1221.789)" fill="#fff"/>
      <path id="Path_12016" data-name="Path 12016" d="M4517.079,1280.92l.809.772c-.229.226-.417.442-.636.619a.45.45,0,0,1-.684-.04.5.5,0,0,1-.06-.693C4516.673,1281.36,4516.865,1281.163,4517.079,1280.92Z" transform="translate(-4432.691 -1195.424)" fill="#fff"/>
      <path id="Path_12017" data-name="Path 12017" d="M4133.015,1263.566c-.214-.266-.386-.454-.53-.668a.5.5,0,0,1,.108-.731.447.447,0,0,1,.687.046,7.7,7.7,0,0,1,.554.637Z" transform="translate(-4122.771 -1180.177)" fill="#fff"/>
      <path id="Path_12018" data-name="Path 12018" d="M4154.024,902.357l-.724-.772a8.387,8.387,0,0,1,.65-.6.492.492,0,0,1,.691.079.467.467,0,0,1,.015.689C4154.479,901.957,4154.265,902.129,4154.024,902.357Z" transform="translate(-4139.659 -888.716)" fill="#fff"/>
      <path id="Path_12019" data-name="Path 12019" d="M4205.48,863.923c1.1-.729,1.382-.662,1.964.413.054.1.1.193.153.3.316.654.243.888-.4,1.258-.143.081-.292.147-.487.243C4206.3,865.392,4205.9,864.672,4205.48,863.923Z" transform="translate(-4181.77 -858.503)" fill="#fff"/>
      <path id="Path_12020" data-name="Path 12020" d="M4095.666,983.12a3.7,3.7,0,0,1,1.584.756.669.669,0,0,1,.11.82.652.652,0,0,1-.7.428,3.354,3.354,0,0,1-1.631-.752.663.663,0,0,1-.11-.818A.7.7,0,0,1,4095.666,983.12Z" transform="translate(-4092.473 -955.087)" fill="#fff"/>
      <path id="Path_12021" data-name="Path 12021" d="M4569.992,1196.288c0,.606-.375.992-.851.863a6.962,6.962,0,0,1-1.462-.623.617.617,0,0,1-.237-.824c.138-.374.385-.579.75-.51a3.479,3.479,0,0,1,1.594.71C4569.912,1196,4569.953,1196.213,4569.992,1196.288Z" transform="translate(-4473.836 -1126.228)" fill="#fff"/>
      <path id="Path_12022" data-name="Path 12022" d="M4586.155,1167.48l1.037.316a8.113,8.113,0,0,1-.226.809.505.505,0,0,1-.673.313.484.484,0,0,1-.353-.645C4585.99,1168.024,4586.071,1167.773,4586.155,1167.48Z" transform="translate(-4488.801 -1103.873)" fill="#fff"/>
      <path id="Path_12023" data-name="Path 12023" d="M4553.868,958.57l-.6-.953,1.467-.317.058.1Z" transform="translate(-4462.449 -934.251)" fill="#fff"/>
      <path id="Path_12024" data-name="Path 12024" d="M4116.144,1232.88l.619.965-1.447.328-.065-.1C4115.528,1233.7,4115.808,1233.328,4116.144,1232.88Z" transform="translate(-4108.95 -1156.653)" fill="#fff"/>
      <path id="Path_12025" data-name="Path 12025" d="M4082.61,1014.884c.093-.309.148-.562.245-.8a.5.5,0,0,1,.666-.33c.3.087.417.289.369.648a1.469,1.469,0,0,1-.068.268c-.05.156-.108.309-.181.511Z" transform="translate(-4082.61 -979.782)" fill="#fff"/>
      <path id="Path_12026" data-name="Path 12026" d="M4097.8,1206.943l-1.009.481c-.137-.288-.28-.538-.386-.8a.5.5,0,0,1,.258-.645.507.507,0,0,1,.688.137A8.438,8.438,0,0,1,4097.8,1206.943Z" transform="translate(-4093.713 -1134.876)" fill="#fff"/>
      <path id="Path_12027" data-name="Path 12027" d="M4572.3,983.795l1.017-.475c.129.286.258.527.351.783a.507.507,0,0,1-.289.685.5.5,0,0,1-.708-.222C4572.532,984.333,4572.436,984.076,4572.3,983.795Z" transform="translate(-4477.808 -955.249)" fill="#fff"/>
    </g>
    <path id="Path_12028" data-name="Path 12028" d="M4197.229,966.15c-.1-.112-.193-.193-.251-.27a10.384,10.384,0,0,0-3.1-2.647q-9.341-5.361-18.67-10.742c-3.607-2.076-7.212-4.16-10.83-6.219a.944.944,0,0,1-.56-.951c.016-7.277,0-14.553.014-21.83a6.014,6.014,0,0,1,3.2-5.526q13.482-7.794,26.971-15.572a6.015,6.015,0,0,1,6.379-.042q6.6,3.782,13.178,7.6l13.752,7.933a6.162,6.162,0,0,1,3.038,3.666,6.494,6.494,0,0,1,.285,1.8c.02,7.35.01,14.7.021,22.052a.836.836,0,0,1-.486.828q-7.225,4.135-14.439,8.3-7.75,4.457-15.49,8.924a9.355,9.355,0,0,0-2.632,2.275C4197.491,965.855,4197.371,965.988,4197.229,966.15Zm21.885-24.917c.057.12.1.193.134.284.174.45.344.9.515,1.351.089.235.208.457.492.461.739.013,1.48.017,2.219,0,.282,0,.386-.18.34-.448a2.94,2.94,0,0,0-.127-.367l-1.181-3.23q-1.351-3.7-2.691-7.4c-.218-.594-.3-.652-.93-.654h-2.109c-.739,0-.772.025-1.034.739q-1.8,4.9-3.588,9.791c-.065.174-.144.341-.254.6-.107-.232-.167-.343-.211-.461q-.537-1.459-1.066-2.918l-2.551-7.037c-.251-.691-.292-.718-1.048-.72h-2.053c-.686,0-.743.052-.965.673l-3.03,8.282c-.292.8-.579,1.6-.874,2.4-.218.606-.107.755.548.758h1.611c.58,0,.623-.031.842-.6.193-.5.386-1,.578-1.522h4.46c.209,0,.281.137.343.3.164.432.345.859.492,1.3a.71.71,0,0,0,.786.535c1.426-.019,2.85,0,4.274,0,.591,0,.612-.019.837-.6.193-.5.386-.994.579-1.5Zm-43.146-5.436c-.012-.212-.032-.386-.032-.579V931.83c0-.525-.086-.6-.621-.612h-1.778c-.613,0-.665.056-.665.669v10.831c0,.54.071.606.613.61h1.778c.592,0,.671-.081.675-.673v-3.444c0-.193.018-.4.029-.625h4.29c.015.247.04.461.04.677v3.5c0,.461.1.557.552.563q.943.014,1.887,0c.507,0,.6-.106.62-.629V931.826c-.019-.494-.1-.579-.579-.592h-1.831c-.579,0-.639.066-.641.641v3.332c0,.193-.024.386-.035.6Zm17.7,3.3c.67,0,1.3.029,1.918,0a11.91,11.91,0,0,0,2.085-.233,3.366,3.366,0,0,0,2.785-2.873,5.433,5.433,0,0,0,.037-1.218,3.4,3.4,0,0,0-2.113-3.07,5.633,5.633,0,0,0-2.374-.475h-5.15a.386.386,0,0,0-.386.386,3.508,3.508,0,0,0-.009.386v10.6c0,.629.088.716.7.722s1.222,0,1.831,0c.569,0,.646-.077.652-.637v-2.943c0-.187.017-.386.03-.645Zm-8.145-1.889v5.665c.025.326.124.446.436.452.759.015,1.519,0,2.276,0a.422.422,0,0,0,.307-.112.418.418,0,0,0,.135-.3,2.483,2.483,0,0,0,.012-.386V932.048a3.771,3.771,0,0,0-.009-.386c-.027-.251-.148-.419-.422-.419h-2.333c-.272,0-.4.164-.4.426v.446Z" transform="translate(592.354 1381.445)" fill="#200173"/>
    <path id="Path_12029" data-name="Path 12029" d="M4345.937,1179.515c-.011-.228-.026-.386-.026-.556,0-1.351-.021-2.7,0-4.052a6.016,6.016,0,0,1,3.118-5.4c2.05-1.2,4.07-2.35,6.1-3.522l21.748-12.519c.192-.108.385-.208.628-.344a2.358,2.358,0,0,1,.077.4c0,1.544.06,3.076-.009,4.61a5.968,5.968,0,0,1-3.049,5.111c-1.476.884-2.978,1.725-4.469,2.586l-22.548,13.015A4.748,4.748,0,0,1,4345.937,1179.515Z" transform="translate(445.4 1178.342)" fill="#200173"/>
    <path id="Path_12030" data-name="Path 12030" d="M4163.892,1152.86c.405.226.678.372.945.529l18.471,10.632,9.092,5.233a6.108,6.108,0,0,1,3.028,4.119,2.434,2.434,0,0,1,.077.492v5.38a1.135,1.135,0,0,1-.35-.029,9.244,9.244,0,0,1-1-.477q-10.386-5.982-20.765-11.987-3.127-1.8-6.25-3.606a6.091,6.091,0,0,1-3.252-5.607v-4Z" transform="translate(592.29 1178.552)" fill="#200173"/>
    <path id="Path_12031" data-name="Path 12031" d="M4366.233,1065.687h-4.679c-.192.5-.385,1-.579,1.5-.226.579-.247.6-.837.6h-4.274a.707.707,0,0,1-.785-.535c-.146-.438-.328-.865-.492-1.3-.062-.162-.133-.3-.344-.3h-4.459c-.2.527-.386,1.025-.579,1.522-.22.565-.256.592-.841.6h-1.611c-.656,0-.772-.152-.548-.758.285-.8.579-1.6.874-2.4q1.517-4.143,3.03-8.282c.228-.621.3-.672.965-.673s1.368,0,2.053,0c.756,0,.8.029,1.048.72l2.564,7.033,1.067,2.917c.044.118.1.23.21.461.11-.26.193-.428.254-.6q1.8-4.893,3.587-9.791c.263-.714.295-.737,1.035-.739H4365c.628,0,.712.06.93.654q1.351,3.7,2.692,7.4l1.181,3.23a2.8,2.8,0,0,1,.127.367c.056.268-.057.442-.339.448-.739.017-1.479.014-2.219,0-.284,0-.4-.226-.492-.461-.172-.448-.342-.9-.515-1.351C4366.342,1065.886,4366.29,1065.807,4366.233,1065.687Zm-.673-2.508c-.548-1.544-1.064-3.01-1.594-4.508a24.952,24.952,0,0,0-1.59,4.508Zm-11.815,0a25.184,25.184,0,0,0-1.683-4.488c-.521,1.486-1.035,2.941-1.571,4.467a29.977,29.977,0,0,0,3.253.023Z" transform="translate(445.24 1256.992)" fill="#fff"/>
    <path id="Path_12032" data-name="Path 12032" d="M4213.854,1060.292h4.294c.012-.207.035-.4.035-.6v-3.333c0-.579.063-.635.64-.641h1.832c.486,0,.569.1.579.592V1067.2c-.02.523-.112.623-.619.629q-.946.012-1.888,0c-.451,0-.547-.1-.551-.563-.01-1.158,0-2.333,0-3.5,0-.216-.025-.43-.041-.677h-4.289c-.012.23-.029.428-.029.625v3.444c0,.592-.083.67-.675.673s-1.185,0-1.777,0c-.543,0-.612-.069-.614-.61v-10.831c0-.614.052-.664.666-.67s1.185,0,1.777,0c.534,0,.62.087.621.612v3.388C4213.824,1059.9,4213.843,1060.08,4213.854,1060.292Z" transform="translate(554.472 1256.95)" fill="#fff"/>
    <path id="Path_12033" data-name="Path 12033" d="M4305.147,1063.675c-.013.259-.033.457-.033.654v2.943c0,.56-.083.633-.652.637h-1.832c-.609,0-.694-.093-.7-.722v-10.6a3.637,3.637,0,0,1,.01-.386.386.386,0,0,1,.386-.386h5.157a5.63,5.63,0,0,1,2.374.475,3.4,3.4,0,0,1,2.113,3.07,5.4,5.4,0,0,1-.037,1.218,3.364,3.364,0,0,1-2.785,2.873,11.9,11.9,0,0,1-2.085.234C4306.444,1063.7,4305.817,1063.675,4305.147,1063.675Zm-.035-2.393c.834,0,1.627.047,2.412-.011a1.337,1.337,0,0,0,1.28-1.4,1.428,1.428,0,0,0-1.183-1.671,13.716,13.716,0,0,0-2.509-.036Z" transform="translate(480.884 1256.871)" fill="#fff"/>
    <path id="Path_12034" data-name="Path 12034" d="M4276.362,1061.742v-5.555a.376.376,0,0,1,.4-.426h2.333c.273,0,.4.168.422.419a3.509,3.509,0,0,1,.01.386v10.5a2.485,2.485,0,0,1-.011.386.423.423,0,0,1-.442.409c-.758,0-1.519.011-2.277,0-.312,0-.41-.125-.436-.452-.014-.166,0-.334,0-.5Z" transform="translate(501.523 1256.915)" fill="#fff"/>
    <path id="Path_12035" data-name="Path 12035" d="M4433.684,1075.708H4430.5a25.171,25.171,0,0,1,1.59-4.508C4432.611,1072.705,4433.126,1074.154,4433.684,1075.708Z" transform="translate(377.126 1244.455)" fill="#200173"/>
    <path id="Path_12036" data-name="Path 12036" d="M4372.113,1075.838a30.027,30.027,0,0,1-3.253-.021c.536-1.526,1.049-2.981,1.57-4.467A25.137,25.137,0,0,1,4372.113,1075.838Z" transform="translate(426.871 1244.334)" fill="#200173"/>
    <path id="Path_12037" data-name="Path 12037" d="M4318.41,1070.932v-3.116a12.737,12.737,0,0,1,2.508.037,1.43,1.43,0,0,1,1.183,1.671,1.324,1.324,0,0,1-1.279,1.4C4320.021,1070.982,4319.244,1070.932,4318.41,1070.932Z" transform="translate(467.586 1247.222)" fill="#200173"/>
  </g>
</svg>
