<svg id="icons8-critical-thinking" xmlns="http://www.w3.org/2000/svg" width="38.368" height="35" viewBox="0 0 38.368 35">
  <path id="icons8-critical-thinking-2" data-name="icons8-critical-thinking" d="M25.184,8a5.591,5.591,0,0,0-4.111,1.836,4.972,4.972,0,0,0-3.225-1.272A5.04,5.04,0,0,0,13.565,11a4.615,4.615,0,0,0-1.077-.176,4.8,4.8,0,0,0-4.8,4.8,4.522,4.522,0,0,0,.115.833A3.636,3.636,0,0,0,6,19.567a3.58,3.58,0,0,0,1.2,2.59A4.7,4.7,0,0,0,6,25.209a4.765,4.765,0,0,0,3.493,4.562,4.2,4.2,0,0,0,4.124,3.619c.14,0,.194.026.314.186a2.424,2.424,0,0,1,.338.869,13.332,13.332,0,0,1,.159,3.151,42.191,42.191,0,0,1-.52,4.723.564.564,0,1,0,1.111.2,42.652,42.652,0,0,0,.538-4.869,13.94,13.94,0,0,0-.185-3.444,3.322,3.322,0,0,0-.538-1.3,1.558,1.558,0,0,0-1.217-.638,3.093,3.093,0,0,1-3.094-2.935L10.5,28.89l-.429-.086a3.663,3.663,0,0,1-1.778-6.27l.512-.478-.577-.4a2.536,2.536,0,0,1,.411-4.41l.442-.2-.127-.466a3.659,3.659,0,0,1,4.692-4.443l.462.153.22-.434a3.939,3.939,0,0,1,6.406-.906l.456.489.406-.531a4.5,4.5,0,0,1,7.36.257l.276.42.45-.225a5.067,5.067,0,0,1,7.127,3.045l.139.454.472-.06a3.645,3.645,0,0,1,4.127,3.636,3.721,3.721,0,0,1-.055.608l-.065.395.349.192a2.819,2.819,0,0,1-2.547,5.027l-.557-.26-.212.576a4.224,4.224,0,0,1-5.931,2.287l-.574-.3-.219.612a3.667,3.667,0,0,1-4.191,2.358l-.656-.136-.022.669a5.024,5.024,0,0,1-1.216,3.4,4.319,4.319,0,0,1-3.29,1.216,4.467,4.467,0,0,0-3.08,1.208,7.129,7.129,0,0,0-1.673,2.525,13.1,13.1,0,0,0-.887,3.555.564.564,0,1,0,1.124.095,12.2,12.2,0,0,1,.806-3.216,6.1,6.1,0,0,1,1.4-2.13,3.248,3.248,0,0,1,2.315-.908,5.5,5.5,0,0,0,4.105-1.565,5.92,5.92,0,0,0,1.42-3.554c.134.011.262.041.4.041a4.75,4.75,0,0,0,4.236-2.674A5.165,5.165,0,0,0,39.28,25.8a3.768,3.768,0,0,0,1.138.255,3.958,3.958,0,0,0,3.95-3.95,3.882,3.882,0,0,0-1.738-3.163,4.257,4.257,0,0,0,.045-.5,4.8,4.8,0,0,0-4.8-4.8c-.07,0-.131.01-.2.013a6.169,6.169,0,0,0-5.726-3.963,6.1,6.1,0,0,0-2.352.5A5.6,5.6,0,0,0,25.184,8Zm10.169,6.537a.572.572,0,0,0-.42.115.561.561,0,0,0,.35,1,.531.531,0,0,0,.344-.118.559.559,0,0,0,.1-.789A.566.566,0,0,0,35.353,14.537ZM10.462,15.9a.559.559,0,0,0-.486.39.566.566,0,0,0,.366.707.455.455,0,0,0,.095.019.562.562,0,0,0,.247-1.092A.566.566,0,0,0,10.462,15.9Zm23.491.372a.558.558,0,0,0-.514.347v.006a.559.559,0,0,0,.31.734.551.551,0,0,0,.209.04.563.563,0,1,0-.006-1.126ZM12.1,17.2a.543.543,0,0,0-.207.08.562.562,0,1,0,.207-.08Zm21.508,1.252a.562.562,0,0,0-.479.638v.022a.022.022,0,0,1,.006.018.565.565,0,0,0,.553.486c.028,0,.057-.007.085-.007a.566.566,0,0,0,.479-.642.018.018,0,0,0-.006-.012V18.93A.567.567,0,0,0,33.608,18.449Zm-20.882.818a.562.562,0,0,0-.634.485l0,.029a.564.564,0,1,0,1.117.159c0-.006,0-.011,0-.017s0-.016,0-.022A.562.562,0,0,0,12.726,19.267ZM37.6,20.413a.564.564,0,1,0,.564.564A.564.564,0,0,0,37.6,20.413Zm0,2.257a.564.564,0,1,0,.564.564A.564.564,0,0,0,37.6,22.67ZM12.546,25.1a.55.55,0,0,0-.22.025.558.558,0,0,0-.367.705.565.565,0,0,0,.536.4.632.632,0,0,0,.175-.029.564.564,0,0,0-.123-1.1Zm-1.97,1.327a.576.576,0,0,0-.372.223.568.568,0,0,0,.125.79.556.556,0,0,0,.333.106.564.564,0,0,0,.452-.225h.006a.567.567,0,0,0-.125-.79A.553.553,0,0,0,10.576,26.431Z" transform="translate(-6 -8)" fill="#fff"/>
</svg>
