<svg xmlns="http://www.w3.org/2000/svg" xmlns:xlink="http://www.w3.org/1999/xlink" width="30.903" height="30" viewBox="0 0 30.903 30">
  <defs>
    <linearGradient id="linear-gradient" x1="0.5" x2="0.5" y2="1" gradientUnits="objectBoundingBox">
      <stop offset="0" stop-color="#c3b7f7"/>
      <stop offset="1" stop-color="#b7e2eb"/>
    </linearGradient>
  </defs>
  <path id="icons8-information" d="M21.368,6.042A15.43,15.43,0,0,0,9.115,30.77a.8.8,0,0,0,1.278-.959A13.835,13.835,0,0,1,22.111,7.655a13.86,13.86,0,0,1,4.554,26.683,1.769,1.769,0,0,1-1.7-.187,1.828,1.828,0,0,1-.825-1.544V22.541a2.663,2.663,0,1,0-5.326,0V32.66a.8.8,0,1,0,1.6,0V22.541a1.065,1.065,0,1,1,2.13,0V32.58a3.481,3.481,0,0,0,1.545,2.876A3.38,3.38,0,0,0,26,36.042a3.512,3.512,0,0,0,1.278-.239A15.451,15.451,0,0,0,22.164,6.057Q21.764,6.04,21.368,6.042Zm.077,6.113a2.663,2.663,0,1,0,2.663,2.663A2.671,2.671,0,0,0,21.445,12.156Zm0,1.6a1.065,1.065,0,1,1-1.065,1.065A1.068,1.068,0,0,1,21.445,13.753ZM13.222,32.79a.8.8,0,0,0-.458,1.468A15.753,15.753,0,0,0,15.4,35.7a.674.674,0,0,0,.319.053.819.819,0,0,0,.746-.479.8.8,0,0,0-.426-1.039,13.7,13.7,0,0,1-2.37-1.3A.842.842,0,0,0,13.222,32.79Z" transform="translate(-6 -6.042)" fill="url(#linear-gradient)"/>
</svg>
