<svg xmlns="http://www.w3.org/2000/svg" width="28.154" height="30" viewBox="0 0 28.154 30">
  <path id="icons8-intelligence" d="M14.6,0C10.264,0,7.067,1.5,5,3.844A13.093,13.093,0,0,0,2,12.6a12.555,12.555,0,0,0,2.213,7.125A10.975,10.975,0,0,1,6.2,25.912V30H7.4V25.912a12.208,12.208,0,0,0-2.175-6.825l-.037-.056A11.3,11.3,0,0,1,3.2,12.6,11.926,11.926,0,0,1,5.9,4.631C7.733,2.552,10.536,1.2,14.6,1.2c4.08,0,6.729,1.184,8.475,3A11.964,11.964,0,0,1,26,11.231l.019.131.056.094,2.831,4.856h-.019a.461.461,0,0,1-.187.675v.019L26,18.356v3.6a3.74,3.74,0,0,1-4.087,3.787h-.019l-1.856-.131-.638-.038V30h1.2V26.85l1.2.094h.019A4.975,4.975,0,0,0,27.2,21.956V19.087l2.062-1.031h.019l.019-.019a1.7,1.7,0,0,0,.637-2.306v-.019l-2.775-4.8a12.982,12.982,0,0,0-3.225-7.538C21.948,1.305,18.92,0,14.6,0ZM12.594,3.6l-.094.506-.3,1.781a4.582,4.582,0,0,0-.806.337L9.913,5.156l-.412-.3-.356.356L7.869,6.469l-.356.375.3.412L8.881,8.737a5.669,5.669,0,0,0-.337.806l-1.856.375-.488.094v2.794l.506.094,1.781.3a5.669,5.669,0,0,0,.337.806L7.756,15.488l-.3.412.356.356,1.256,1.275.375.356.413-.3,1.481-1.069a5.669,5.669,0,0,0,.806.337l.3,1.781.094.506H15.35l.075-.506.319-1.837a7.554,7.554,0,0,0,.806-.338l1.537,1.069.413.281.356-.356L20.131,16.2l.356-.356-.3-.413L19.119,13.95a5.807,5.807,0,0,0,.338-.787l1.819-.262.525-.075V9.994L21.294,9.9l-1.837-.3a5.511,5.511,0,0,0-.338-.825l1.069-1.538.3-.412-.356-.356L18.856,5.212,18.5,4.856l-.413.3L16.606,6.225a5.669,5.669,0,0,0-.806-.337l-.3-1.781L15.406,3.6Zm1.013,1.2h.787l.281,1.594.056.412.394.075a4.671,4.671,0,0,1,1.275.544l.338.188.319-.225,1.331-.956.525.544-.956,1.387-.244.319.225.337a4.3,4.3,0,0,1,.525,1.275l.094.375.394.056,1.65.281v.769l-2.062.281-.075.412a4.671,4.671,0,0,1-.544,1.275l-.187.338.225.319.956,1.313-.544.544-1.387-.975-.281-.206-.337.169a7.1,7.1,0,0,1-1.312.563l-.375.094-.075.375-.281,1.669H13.55l-.281-1.612-.056-.394-.394-.075a4.671,4.671,0,0,1-1.275-.544l-.338-.187-.319.225-1.312.956-.544-.525.956-1.331.225-.319-.187-.337a4.671,4.671,0,0,1-.544-1.275l-.075-.394-.413-.056L7.4,11.794v-.806l1.669-.319.394-.075.075-.375a4.671,4.671,0,0,1,.544-1.275l.188-.338-.225-.319L9.088,6.975l.525-.544,1.331.956.356.244.356-.244a3.219,3.219,0,0,1,1.219-.506l.394-.075.056-.412ZM14,8.4a3,3,0,1,0,3,3A3.012,3.012,0,0,0,14,8.4Zm0,1.2a1.8,1.8,0,1,1-1.8,1.8A1.8,1.8,0,0,1,14,9.6Z" transform="translate(-2)" fill="#fff"/>
</svg>
