<svg xmlns="http://www.w3.org/2000/svg" width="25" height="25" viewBox="0 0 25 25">
  <path id="icons8-connected" d="M27.148,4.586,22.923,8.811l-1.25-1.25a2.469,2.469,0,0,0-3.485,0L14.649,11.1l-.191-.191a1.467,1.467,0,0,0-2.493,1.238,1.561,1.561,0,0,0-.2-.019,1.471,1.471,0,0,0-1.041,2.513l.191.191L7.381,18.369a2.467,2.467,0,0,0,0,3.484L8.631,23.1,4.406,27.329l2.257,2.257,4.225-4.225,1.25,1.25a2.469,2.469,0,0,0,3.485,0l3.539-3.539.191.193a1.466,1.466,0,0,0,2.492-1.238,1.467,1.467,0,0,0,1.239-2.493l-.191-.191L26.431,15.8a2.469,2.469,0,0,0,0-3.485l-1.25-1.25,4.225-4.225Zm0,1,1.263,1.263-4.225,4.225,1.748,1.748a1.755,1.755,0,0,1,0,2.489l-3.55,3.55a.346.346,0,0,0-.165-.041.353.353,0,0,0-.352.352.346.346,0,0,0,.041.165l-.011.011.689.689A.768.768,0,0,1,21.5,21.118l-8.626-8.626a.768.768,0,0,1,1.086-1.086l.612.613.077.076.011-.011a.346.346,0,0,0,.165.041.353.353,0,0,0,.352-.352.346.346,0,0,0-.041-.165l3.55-3.55a1.755,1.755,0,0,1,2.489,0l1.748,1.748Zm-3.521,4.431a.352.352,0,1,0,.352.352A.353.353,0,0,0,23.627,10.013Zm-7.746,2.465a.352.352,0,1,0,.352.352A.353.353,0,0,0,15.882,12.477Zm-4.113.351a.761.761,0,0,1,.543.227l8.626,8.626a.768.768,0,0,1-1.086,1.085l-.608-.607,0-.006-.008-.007-.069-.07-.011.011a.361.361,0,0,0-.165-.04.352.352,0,0,0-.352.352.362.362,0,0,0,.043.164l-3.55,3.551a1.759,1.759,0,0,1-2.491,0l-1.748-1.749L6.663,28.59,5.4,27.329,9.627,23.1l-.249-.25-1.5-1.5a1.759,1.759,0,0,1,0-2.491l3.55-3.55a.368.368,0,0,0,.165.043.352.352,0,0,0,.352-.352.342.342,0,0,0-.041-.165l.011-.011-.052-.052a.089.089,0,0,0-.011-.012l-.012-.012-.006,0-.608-.609a.769.769,0,0,1,.543-1.312Zm5.17.706a.352.352,0,1,0,.352.352A.353.353,0,0,0,16.938,13.534Zm1.056,1.056a.352.352,0,1,0,.352.352A.353.353,0,0,0,17.994,14.59Zm1.056,1.056A.352.352,0,1,0,19.4,16,.353.353,0,0,0,19.05,15.646Zm-6.4.065a.352.352,0,1,0,.352.352A.352.352,0,0,0,12.648,15.711Zm7.458.992a.352.352,0,1,0,.352.352A.353.353,0,0,0,20.107,16.7Zm-6.4.065a.352.352,0,1,0,.352.352A.352.352,0,0,0,13.7,16.767Zm7.458.992a.352.352,0,1,0,.352.352A.353.353,0,0,0,21.163,17.758Zm-6.4.065a.352.352,0,1,0,.352.352A.352.352,0,0,0,14.761,17.823Zm1.056,1.056a.352.352,0,1,0,.352.352A.352.352,0,0,0,15.817,18.879Zm1.056,1.056a.352.352,0,1,0,.352.352A.352.352,0,0,0,16.873,19.936Zm1.056,1.056a.352.352,0,1,0,.352.352A.352.352,0,0,0,17.929,20.992Zm-7.746,2.465a.352.352,0,1,0,.352.352A.352.352,0,0,0,10.184,23.456Z" transform="translate(-4.406 -4.586)" fill="#fff"/>
</svg>
