<svg xmlns="http://www.w3.org/2000/svg" width="31.756" height="35" viewBox="0 0 31.756 35">
  <path id="icons8-messages" d="M24.4,9.449a.834.834,0,0,0-.757.906l.147,1.665a.837.837,0,0,0,.832.762c.024,0,.049,0,.075,0a.834.834,0,0,0,.757-.906L25.3,10.208A.828.828,0,0,0,24.4,9.449Zm4.384,0a.83.83,0,0,0-.907.759l-.147,1.665a.834.834,0,0,0,.757.906c.025,0,.051,0,.075,0a.835.835,0,0,0,.832-.762l.147-1.665A.834.834,0,0,0,28.782,9.449Zm-8.375.762a.834.834,0,0,0-.912,1.053l.449,1.609a.836.836,0,0,0,.8.61.861.861,0,0,0,.224-.029.838.838,0,0,0,.581-1.03l-.447-1.609A.836.836,0,0,0,20.407,10.211Zm12.366,0a.837.837,0,0,0-.7.6l-.449,1.609a.837.837,0,0,0,.581,1.03.873.873,0,0,0,.225.029.836.836,0,0,0,.8-.61l.447-1.609a.833.833,0,0,0-.911-1.053ZM16.281,11.718a.838.838,0,0,0-.7,1.206l.746,1.5a.836.836,0,0,0,.749.465.825.825,0,0,0,.372-.088.836.836,0,0,0,.375-1.121l-.746-1.5A.836.836,0,0,0,16.281,11.718Zm20.62,0a.84.84,0,0,0-.8.462l-.746,1.5a.836.836,0,0,0,1.5.744l.746-1.5a.834.834,0,0,0-.7-1.206ZM12.835,13.991a.836.836,0,0,0-.761,1.343L13.1,16.652a.836.836,0,0,0,1.317-1.028l-1.028-1.317A.832.832,0,0,0,12.835,13.991Zm27.509,0a.832.832,0,0,0-.557.315l-1.028,1.317a.836.836,0,1,0,1.317,1.028L41.1,15.335a.836.836,0,0,0-.761-1.343ZM26.59,15.2c-8.684,0-15.878,5.906-15.878,13.371,0,4.518,2.711,8.437,6.707,10.839a6.916,6.916,0,0,1-2.2,3.535.836.836,0,0,0,.5,1.5A10.552,10.552,0,0,0,22.778,41.5a18.414,18.414,0,0,0,3.811.442c8.684,0,15.878-5.906,15.878-13.371S35.273,15.2,26.59,15.2Zm0,1.671c7.931,0,14.207,5.319,14.207,11.7s-6.275,11.7-14.207,11.7a16.993,16.993,0,0,1-3.836-.446.836.836,0,0,0-.762.206,10.177,10.177,0,0,1-4.063,2.4,6.235,6.235,0,0,0,1.263-3.338.836.836,0,0,0-.434-.774c-3.88-2.12-6.375-5.706-6.375-9.751C12.383,22.186,18.658,16.867,26.59,16.867Z" transform="translate(-10.712 -9.445)" fill="#fff"/>
</svg>
