<svg xmlns="http://www.w3.org/2000/svg" width="32.667" height="35" viewBox="0 0 32.667 35">
  <path id="icons8-multichannel" d="M20.333,2a2.916,2.916,0,0,0-.583,5.774V9.583a.583.583,0,0,0,1.167,0V7.774A2.916,2.916,0,0,0,20.333,2Zm0,1.167a1.75,1.75,0,1,1-1.75,1.75A1.752,1.752,0,0,1,20.333,3.167ZM6.917,3.75A2.917,2.917,0,1,0,8.522,9.1L10,10.579a.583.583,0,0,0,.825-.825L9.347,8.272A2.911,2.911,0,0,0,6.917,3.75Zm26.833,0a2.911,2.911,0,0,0-2.43,4.522L29.838,9.754a.583.583,0,1,0,.825.825L32.145,9.1A2.915,2.915,0,1,0,33.75,3.75ZM6.917,4.917a1.75,1.75,0,1,1-1.75,1.75A1.752,1.752,0,0,1,6.917,4.917Zm26.833,0A1.75,1.75,0,1,1,32,6.667,1.752,1.752,0,0,1,33.75,4.917ZM13.333,11.333a1.752,1.752,0,0,0-1.75,1.75V25.917a1.752,1.752,0,0,0,1.75,1.75h14a1.752,1.752,0,0,0,1.75-1.75V13.083a1.752,1.752,0,0,0-1.75-1.75Zm0,1.167h14a.584.584,0,0,1,.583.583V25.917a.584.584,0,0,1-.583.583h-14a.584.584,0,0,1-.583-.583V13.083A.584.584,0,0,1,13.333,12.5Zm4.083,2.333a.583.583,0,1,0,0,1.167H23.25a.583.583,0,1,0,0-1.167ZM14.5,23a.583.583,0,0,0-.583.583V24.75a.583.583,0,1,0,1.167,0V23.583A.583.583,0,0,0,14.5,23Zm2.917,0a.583.583,0,0,0-.583.583V24.75a.583.583,0,1,0,1.167,0V23.583A.583.583,0,0,0,17.417,23Zm2.917,0a.583.583,0,0,0-.583.583V24.75a.583.583,0,0,0,1.167,0V23.583A.583.583,0,0,0,20.333,23Zm2.917,0a.583.583,0,0,0-.583.583V24.75a.583.583,0,1,0,1.167,0V23.583A.583.583,0,0,0,23.25,23Zm2.917,0a.583.583,0,0,0-.583.583V24.75a.583.583,0,1,0,1.167,0V23.583A.583.583,0,0,0,26.167,23Zm-15.75,5.25a.581.581,0,0,0-.412.171L8.522,29.9a2.928,2.928,0,1,0,.825.825l1.482-1.482a.583.583,0,0,0-.412-1Zm19.833,0a.583.583,0,0,0-.412,1l1.482,1.482a2.927,2.927,0,1,0,.825-.825l-1.482-1.482A.581.581,0,0,0,30.25,28.25Zm-9.917.583a.583.583,0,0,0-.583.583v1.809a2.917,2.917,0,1,0,1.167,0V29.417A.583.583,0,0,0,20.333,28.833ZM6.917,30.583a1.75,1.75,0,1,1-1.75,1.75A1.752,1.752,0,0,1,6.917,30.583Zm26.833,0A1.75,1.75,0,1,1,32,32.333,1.752,1.752,0,0,1,33.75,30.583Zm-13.417,1.75a1.75,1.75,0,1,1-1.75,1.75A1.752,1.752,0,0,1,20.333,32.333Z" transform="translate(-4 -2)" fill="#fff"/>
</svg>
