<svg xmlns="http://www.w3.org/2000/svg" width="74" height="62.182" viewBox="0 0 74 62.182">
  <path id="icons8-music-heart" d="M24,10A21.015,21.015,0,0,0,3,31c0,4.689,2.378,9.518,5.82,14.174a85.661,85.661,0,0,0,12.523,13.1A164.5,164.5,0,0,0,39.469,71.846l.531.336.531-.336A164.5,164.5,0,0,0,58.656,58.27a85.661,85.661,0,0,0,12.523-13.1C74.622,40.518,77,35.689,77,31A20.893,20.893,0,0,0,40,17.586,20.846,20.846,0,0,0,24,10Zm0,2a18.938,18.938,0,0,1,15.2,7.635L40,20.7l.8-1.068A18.982,18.982,0,0,1,75,31c0,4-2.122,8.513-5.43,12.986A84.008,84.008,0,0,1,57.344,56.762,156.1,156.1,0,0,1,40,69.795,156.1,156.1,0,0,1,22.656,56.762,84.008,84.008,0,0,1,10.43,43.986C7.122,39.513,5,35,5,31A18.984,18.984,0,0,1,24,12Zm0,3a1,1,0,1,0,1,1A1,1,0,0,0,24,15Zm32,0a1,1,0,1,0,1,1A1,1,0,0,0,56,15Zm-35.744.521a1,1,0,1,0,.828.732A1,1,0,0,0,20.256,15.521Zm7.488,0a1,1,0,1,0,.4.025A1,1,0,0,0,27.744,15.521Zm24.512,0a1,1,0,1,0,.828.732A1,1,0,0,0,52.256,15.521Zm7.488,0a1,1,0,1,0,.4.025A1,1,0,0,0,59.744,15.523ZM16.377,17.016a1,1,0,1,0,.988.494A1,1,0,0,0,16.377,17.016Zm32,0a1,1,0,1,0,.99.494A1,1,0,0,0,48.375,17.016Zm-16.752,0a1,1,0,1,0,.377.127A1,1,0,0,0,31.623,17.018Zm31.293.225a1,1,0,1,0,.377.127A1,1,0,0,0,62.916,17.242Zm-49.523,2.15a1,1,0,1,0,.707.293A1,1,0,0,0,13.393,19.393Zm21.213,0a1,1,0,1,0,.707.293A1,1,0,0,0,34.605,19.393Zm10.787,0a1,1,0,1,0,.707.293A1,1,0,0,0,45.393,19.393Zm20.506.225a1,1,0,1,0,.707.293A1,1,0,0,0,65.9,19.617ZM11.133,22.508a1,1,0,1,0,.377.127A1,1,0,0,0,11.133,22.508Zm25.732,0a1,1,0,1,0,.99.492A1,1,0,0,0,36.865,22.508Zm6.268,0a1,1,0,1,0,.377.127A1,1,0,0,0,43.133,22.508Zm25.025.225a1,1,0,1,0,.988.492A1,1,0,0,0,68.158,22.732ZM40.137,26.01a1,1,0,1,0,.83.732A1,1,0,0,0,40.137,26.01Zm-31.471.342a1,1,0,1,0,.4.025A1,1,0,0,0,8.666,26.352Zm61.252,0a1,1,0,1,0,.828.732A1,1,0,0,0,69.918,26.354ZM9,30a1,1,0,1,0,1,1A1,1,0,0,0,9,30Zm62,0a1,1,0,1,0,1,1A1,1,0,0,0,71,30ZM52,31l-9.637,1.773A2.586,2.586,0,0,0,40,35.348V50.766A4.466,4.466,0,0,0,37.5,50a4.5,4.5,0,1,0,4.494,4.557H42V39.67l10-1.646Zm-2,2.225v3l-8,1.561V35.348a.6.6,0,0,1,.574-.584Zm-41.061.891a.988.988,0,0,0-.395.025,1,1,0,1,0,.395-.025Zm60.705,0a1,1,0,1,0,.395.025A.989.989,0,0,0,69.645,34.117ZM10.887,37.506a1,1,0,1,0,.99.492A1,1,0,0,0,10.887,37.506Zm57.52.229a1,1,0,1,0,.375.127A1,1,0,0,0,68.406,37.734ZM37.5,52A2.5,2.5,0,1,1,35,54.5,2.485,2.485,0,0,1,37.5,52Z" transform="translate(-3 -10)" fill="#1dcbff"/>
</svg>
