<svg xmlns="http://www.w3.org/2000/svg" width="39.048" height="39.048" viewBox="0 0 39.048 39.048">
  <path id="icons8-network" d="M23.227,6A1.732,1.732,0,0,0,21.5,7.723V9.445a.574.574,0,1,0,0,1.148v1.723A1.733,1.733,0,0,0,22.882,14a1.6,1.6,0,0,0,.345.036h4.594a1.733,1.733,0,0,0,1.687-1.377,1.6,1.6,0,0,0,.036-.345V10.594a.574.574,0,1,0,0-1.148V7.723A1.732,1.732,0,0,0,27.821,6Zm0,1.148h4.594a.564.564,0,0,1,.574.574v4.594a.564.564,0,0,1-.574.574H23.227a.564.564,0,0,1-.574-.574V7.723A.583.583,0,0,1,22.7,7.5a.539.539,0,0,1,.11-.164c.013-.013.027-.025.04-.036a.5.5,0,0,1,.121-.083.539.539,0,0,1,.052-.025A.573.573,0,0,1,23.227,7.148ZM10.02,9.445a.574.574,0,1,0,.574.574A.575.575,0,0,0,10.02,9.445Zm2.3,0a.574.574,0,1,0,.574.574A.575.575,0,0,0,12.317,9.445Zm2.3,0a.574.574,0,1,0,.574.574A.575.575,0,0,0,14.614,9.445Zm2.3,0a.574.574,0,1,0,.574.574A.575.575,0,0,0,16.911,9.445Zm2.3,0a.574.574,0,1,0,.574.574A.575.575,0,0,0,19.208,9.445Zm12.633,0a.574.574,0,1,0,.574.574A.575.575,0,0,0,31.841,9.445Zm2.3,0a.574.574,0,1,0,.574.574A.575.575,0,0,0,34.138,9.445Zm2.3,0a.574.574,0,1,0,.574.574A.575.575,0,0,0,36.435,9.445Zm2.3,0a.574.574,0,1,0,.574.574A.575.575,0,0,0,38.732,9.445Zm2.3,0a.574.574,0,1,0,.574.574A.575.575,0,0,0,41.029,9.445Zm-31.009,2.3a.574.574,0,1,0,.574.574A.575.575,0,0,0,10.02,11.742Zm31.009,0a.574.574,0,1,0,.574.574A.575.575,0,0,0,41.029,11.742Zm-31.009,2.3a.574.574,0,1,0,.574.574A.575.575,0,0,0,10.02,14.039Zm31.009,0a.574.574,0,1,0,.574.574A.575.575,0,0,0,41.029,14.039Zm-31.009,2.3a.574.574,0,1,0,.574.574A.575.575,0,0,0,10.02,16.336Zm31.009,0a.574.574,0,1,0,.574.574A.575.575,0,0,0,41.029,16.336Zm-31.009,2.3a.574.574,0,1,0,.574.574A.575.575,0,0,0,10.02,18.633Zm31.009,0a.574.574,0,1,0,.574.574A.575.575,0,0,0,41.029,18.633ZM10.02,20.93a.575.575,0,0,0-.574.574H7.723A1.732,1.732,0,0,0,6,23.227v4.594a1.732,1.732,0,0,0,1.723,1.723H9.445a.574.574,0,1,0,1.148,0h1.723A1.733,1.733,0,0,0,14,28.167a1.6,1.6,0,0,0,.036-.345V23.227A1.6,1.6,0,0,0,14,22.882a1.527,1.527,0,0,0-.1-.321A1.73,1.73,0,0,0,12.317,21.5H10.594A.575.575,0,0,0,10.02,20.93Zm31.009,0a.575.575,0,0,0-.574.574H38.732a1.6,1.6,0,0,0-.345.036,1.737,1.737,0,0,0-1.35,1.384,1.69,1.69,0,0,0-.027.3v4.594a1.732,1.732,0,0,0,1.723,1.723h1.723a.574.574,0,1,0,1.148,0h1.723a1.733,1.733,0,0,0,1.687-1.377,1.6,1.6,0,0,0,.036-.345V23.227a1.6,1.6,0,0,0-.036-.345,1.73,1.73,0,0,0-1.341-1.341,1.6,1.6,0,0,0-.345-.036H41.6A.575.575,0,0,0,41.029,20.93ZM7.723,22.653h4.594a.564.564,0,0,1,.574.574v4.594a.564.564,0,0,1-.574.574H7.723a.564.564,0,0,1-.574-.574V23.227A.583.583,0,0,1,7.193,23a.539.539,0,0,1,.11-.164l.04-.038a.57.57,0,0,1,.121-.081l.052-.027A.624.624,0,0,1,7.723,22.653Zm31.009,0h4.594a.564.564,0,0,1,.574.574v4.594a.564.564,0,0,1-.574.574H38.732a.564.564,0,0,1-.574-.574V23.227A.583.583,0,0,1,38.2,23,.565.565,0,0,1,38.732,22.653ZM10.02,31.267a.574.574,0,1,0,.574.574A.575.575,0,0,0,10.02,31.267Zm31.009,0a.574.574,0,1,0,.574.574A.575.575,0,0,0,41.029,31.267Zm-31.009,2.3a.574.574,0,1,0,.574.574A.575.575,0,0,0,10.02,33.563Zm31.009,0a.574.574,0,1,0,.574.574A.575.575,0,0,0,41.029,33.563ZM10.02,35.86a.574.574,0,1,0,.574.574A.575.575,0,0,0,10.02,35.86Zm31.009,0a.574.574,0,1,0,.574.574A.575.575,0,0,0,41.029,35.86Zm-17.8,1.148a1.733,1.733,0,0,0-1.687,1.377,1.6,1.6,0,0,0-.036.345v1.723a.574.574,0,0,0,0,1.148v1.723a1.732,1.732,0,0,0,1.723,1.723h4.594a1.733,1.733,0,0,0,1.687-1.377,1.6,1.6,0,0,0,.036-.345V41.6a.574.574,0,1,0,0-1.148V38.732a1.732,1.732,0,0,0-1.723-1.723ZM10.02,38.157a.574.574,0,1,0,.574.574A.575.575,0,0,0,10.02,38.157Zm13.208,0h4.594a.564.564,0,0,1,.574.574v4.594a.564.564,0,0,1-.574.574H23.227a.564.564,0,0,1-.574-.574V38.732a.583.583,0,0,1,.045-.227A.565.565,0,0,1,23.227,38.157Zm17.8,0a.574.574,0,1,0,.574.574A.575.575,0,0,0,41.029,38.157Zm-31.009,2.3a.574.574,0,1,0,.574.574A.575.575,0,0,0,10.02,40.454Zm2.3,0a.574.574,0,1,0,.574.574A.575.575,0,0,0,12.317,40.454Zm2.3,0a.574.574,0,1,0,.574.574A.575.575,0,0,0,14.614,40.454Zm2.3,0a.574.574,0,1,0,.574.574A.575.575,0,0,0,16.911,40.454Zm2.3,0a.574.574,0,1,0,.574.574A.575.575,0,0,0,19.208,40.454Zm12.633,0a.574.574,0,1,0,.574.574A.575.575,0,0,0,31.841,40.454Zm2.3,0a.574.574,0,1,0,.574.574A.575.575,0,0,0,34.138,40.454Zm2.3,0a.574.574,0,1,0,.574.574A.575.575,0,0,0,36.435,40.454Zm2.3,0a.574.574,0,1,0,.574.574A.575.575,0,0,0,38.732,40.454Zm2.3,0a.574.574,0,1,0,.574.574A.575.575,0,0,0,41.029,40.454Z" transform="translate(-6 -6)" fill="#1dcbff"/>
</svg>
