<svg xmlns="http://www.w3.org/2000/svg" width="57.324" height="37.76" viewBox="0 0 57.324 37.76">
  <g id="Group_7240" data-name="Group 7240" transform="matrix(0.978, -0.208, 0.208, 0.978, -1857.255, 2.944)">
    <text id="New" transform="translate(1836.384 411.99)" fill="#1dcbff" font-size="14" font-family="Nunito-Bold, Nunito" font-weight="700"><tspan x="-14.945" y="0">New</tspan></text>
    <path id="icons8-tag-window" d="M-2.712,19A3.3,3.3,0,0,0-6,22.288V43.1a3.3,3.3,0,0,0,3.288,3.285H35.4l9.762-9.762a5.568,5.568,0,0,0,0-7.86L35.4,19Zm0,1.3H34.859l9.383,9.383a4.242,4.242,0,0,1,0,6.011L34.859,45.08H-2.712A1.971,1.971,0,0,1-4.7,43.1V22.288A1.972,1.972,0,0,1-2.712,20.3Zm42.351,9.78a2.608,2.608,0,1,0,2.608,2.608A2.616,2.616,0,0,0,39.639,30.084Zm0,1.3a1.3,1.3,0,1,1-1.3,1.3A1.294,1.294,0,0,1,39.639,31.388Z" transform="translate(1821 375)" fill="#f130e0"/>
  </g>
</svg>
