<svg xmlns="http://www.w3.org/2000/svg" width="28.75" height="30" viewBox="0 0 28.75 30">
  <path id="icons8-paint-roller" d="M2.25,1A1.259,1.259,0,0,0,1,2.25v7.5A1.259,1.259,0,0,0,2.25,11H26.625a1.259,1.259,0,0,0,1.25-1.25V6.625H28.5v5.742L14.613,15.395a.626.626,0,0,0-.488.605v2.5h-1.25a1.259,1.259,0,0,0-1.25,1.25v10A1.259,1.259,0,0,0,12.875,31h3.75a1.259,1.259,0,0,0,1.25-1.25v-10a1.259,1.259,0,0,0-1.25-1.25h-1.25V16.508L29.262,13.48a.626.626,0,0,0,.488-.605V6a.626.626,0,0,0-.625-.625h-1.25V2.25A1.259,1.259,0,0,0,26.625,1Zm0,1.25H26.625V5.8a.64.64,0,0,0,0,.371V9.75H2.25Zm10.625,17.5h3.75v10h-3.75Z" transform="translate(-1 -1)" fill="#fff"/>
</svg>
