<svg xmlns="http://www.w3.org/2000/svg" width="240.511" height="186.194" viewBox="0 0 240.511 186.194">
  <g id="Group_98" data-name="Group 98" transform="translate(0)">
    <g id="Group_94" data-name="Group 94" transform="translate(35.225)">
      <path id="Path_29" data-name="Path 29" d="M495.35,323.032c-27.335-15.783-71.66-15.783-99,0l-35.539-20.517V255.178L539.751,260.9v47.337l-39.243,18.129A60.611,60.611,0,0,0,495.35,323.032Z" transform="translate(-360.816 -234.841)" fill="#ed1d90"/>
      <path id="Path_30" data-name="Path 30" d="M495.35,290.657c-27.335-15.783-71.66-15.783-99,0L360.816,270.14c46.962-27.116,123.111-27.116,170.073,0a105.169,105.169,0,0,1,8.862,5.721L500.508,293.99A60.581,60.581,0,0,0,495.35,290.657Z" transform="translate(-360.816 -249.804)" fill="#f130e0"/>
    </g>
    <g id="Group_95" data-name="Group 95" transform="translate(169.687 26.058)">
      <path id="Path_31" data-name="Path 31" d="M359.113,308.8l.083-47.337,65.466,26.5v46.16c-.008,17.784-11.776,35.546-35.3,49.074l-35.5-20.581C379.376,347.949,381.128,324.712,359.113,308.8Z" transform="translate(-353.857 -243.391)" fill="#ed1d90"/>
      <path id="Path_32" data-name="Path 32" d="M359.009,274.819l39.243-18.129c17.573,12.654,26.359,28.031,26.351,43.409-.008,17.758-11.742,35.512-35.213,49.066l-35.539-20.52C379.344,313.93,381.055,290.689,359.009,274.819Z" transform="translate(-353.78 -256.69)" fill="#f130e0"/>
    </g>
    <g id="Group_96" data-name="Group 96" transform="translate(124.125 98.013)">
      <path id="Path_33" data-name="Path 33" d="M444.331,287.6v47.333c-21.792,12.582-49.869,19.317-78.4,20.221l-2.777-29.008V278.806Z" transform="translate(-363.158 -267.076)" fill="#6b4ee2"/>
      <path id="Path_34" data-name="Path 34" d="M408.792,275.706h0l35.539,20.52c-21.792,12.582-49.869,19.313-78.4,20.217l-2.777-29.008C379.762,286.91,396.108,283.028,408.792,275.706Z" transform="translate(-363.158 -275.706)" fill="#9780f7"/>
    </g>
    <g id="Group_97" data-name="Group 97" transform="translate(0 20.337)">
      <path id="Path_35" data-name="Path 35" d="M419.1,259.648l35.539,3.6v47.337c-13.668,7.893-20.505,18.235-20.505,28.58s41.586,2.369,60.766,1.763l15.877,20.217v47.337c-32.951,1.048-66.507-5.687-91.677-20.221-23.483-13.558-35.225-31.327-35.225-49.1V291.83Z" transform="translate(-383.876 -242.734)" fill="#ed1d90"/>
      <path id="Path_36" data-name="Path 36" d="M383.876,304.275c0-17.769,11.742-35.539,35.225-49.1l35.539,20.517h0c-27.339,15.787-27.339,41.377,0,57.16,14.651,8.461,34.18,12.339,53.361,11.73l2.777,29.008c-32.951,1.048-66.507-5.687-91.677-20.217C395.618,339.817,383.876,322.044,383.876,304.275Z" transform="translate(-383.876 -255.178)" fill="#f130e0"/>
    </g>
  </g>
</svg>
