<svg xmlns="http://www.w3.org/2000/svg" width="249.986" height="186.193" viewBox="0 0 249.986 186.193">
  <g id="Group_7504" data-name="Group 7504" transform="translate(-1600.833 -1038.5)">
    <g id="Group_845" data-name="Group 845" transform="translate(1457.376 673.66)">
      <g id="Group_840" data-name="Group 840" transform="translate(143.456 364.84)">
        <g id="Group_836" data-name="Group 836">
          <path id="Path_448" data-name="Path 448" d="M144.231,470.78c-.909-8.842-.7-42.254-.7-42.254,22.047-28.368,81.563-68.892,212.175-56.456l.7,93.387-87.762.42Z" transform="translate(-143.311 -351.646)" fill="#c24c6b"/>
          <path id="Path_449" data-name="Path 449" d="M143.676,441.72c-2.025-19.706,9.914-39.876,35.893-55.135,48.468-28.471,127.391-29.06,176.282-1.322l-87.762,51.549Z" transform="translate(-143.456 -364.84)" fill="#f130e0"/>
        </g>
        <g id="Group_837" data-name="Group 837" transform="translate(0.22 71.973)">
          <path id="Path_450" data-name="Path 450" d="M268.628,426.649,180.87,478.2c-22.684-12.873-34.9-29.586-36.655-46.646l-.7-42.254,124.413-4.907Z" transform="translate(-143.516 -384.391)" fill="#ed1d90"/>
          <path id="Path_451" data-name="Path 451" d="M267.79,383.683l-87.619,52.261c-22.684-12.873-34.775-30.466-36.531-47.529Z" transform="translate(-143.516 -384.391)" fill="#f130e0"/>
        </g>
        <g id="Group_838" data-name="Group 838" transform="translate(124.633 20.424)">
          <path id="Path_452" data-name="Path 452" d="M301.964,384.138l.7,42.254c.136,18.418-11.894,36.927-36.128,51.163-3.276,1.925-6.7,3.711-10.234,5.378l-78.29-55.606-.7-42.258Z" transform="translate(-177.312 -333.52)" fill="#ed1d90"/>
          <path id="Path_453" data-name="Path 453" d="M176.811,421.054l88.263-50.666c24.444,13.871,36.75,32.2,36.89,50.618s-11.894,36.927-36.128,51.163c-3.276,1.925-6.7,3.711-10.234,5.378l-80.168-55.61Z" transform="translate(-177.312 -370.388)" fill="#f130e0"/>
        </g>
        <g id="Group_839" data-name="Group 839" transform="translate(36.875 71.973)">
          <path id="Path_454" data-name="Path 454" d="M319.521,406.841l1.1,42.25c-48.773,23.03-120.463,21.808-166.048-4.057l-1.1-42.25,88.1-6.026Z" transform="translate(-153.473 -351.232)" fill="#ed1d90"/>
          <path id="Path_455" data-name="Path 455" d="M241.345,384.391,319.631,440c-48.773,23.034-121.2,21.582-166.783-4.283l88.5-52.608Z" transform="translate(-153.178 -384.391)" fill="#f130e0"/>
        </g>
      </g>
    </g>
    <path id="Path_12295" data-name="Path 12295" d="M-60.769,14125.415l66.049,36.244,49.216-40.349" transform="translate(1721.962 -13050)" fill="none" stroke="#6b4ee2" stroke-linecap="round" stroke-width="6"/>
    <path id="Path_12296" data-name="Path 12296" d="M-60.769,14125.415l66.049,36.244,49.216-40.349" transform="translate(1721.962 -13053)" fill="none" stroke="#9780f7" stroke-linecap="round" stroke-width="6"/>
  </g>
</svg>
