<svg xmlns="http://www.w3.org/2000/svg" width="37.2" height="30" viewBox="0 0 37.2 30">
  <path id="icons8-red-carpet" d="M4.6,7A2.411,2.411,0,0,0,2.2,9.4a2.365,2.365,0,0,0,.894,1.822c-.062.054-.144.088-.2.146A2.39,2.39,0,0,0,2.2,13V33.858L1.063,36.132A.6.6,0,0,0,1.6,37h6a.6.6,0,0,0,.537-.868L7,33.858V13a2.39,2.39,0,0,0-.694-1.631c-.056-.059-.138-.092-.2-.146A2.365,2.365,0,0,0,7,9.4,2.411,2.411,0,0,0,4.6,7Zm30,0a2.411,2.411,0,0,0-2.4,2.4,2.365,2.365,0,0,0,.9,1.827c-.065.057-.151.094-.21.156A2.385,2.385,0,0,0,32.2,13V33.858l-1.137,2.273A.6.6,0,0,0,31.6,37h6a.6.6,0,0,0,.537-.868L37,33.858V13a2.385,2.385,0,0,0-.691-1.617c-.058-.062-.145-.1-.21-.156A2.365,2.365,0,0,0,37,9.4,2.411,2.411,0,0,0,34.6,7ZM4.6,8.2A1.2,1.2,0,1,1,3.4,9.4,1.2,1.2,0,0,1,4.6,8.2Zm30,0a1.2,1.2,0,1,1-1.2,1.2A1.2,1.2,0,0,1,34.6,8.2Zm-30,3.6a1.179,1.179,0,0,1,.836.395A1.289,1.289,0,0,1,5.8,13V33.4H3.4V13a1.289,1.289,0,0,1,.364-.805A1.179,1.179,0,0,1,4.6,11.8Zm30,0a1.179,1.179,0,0,1,.833.4,1.324,1.324,0,0,1,.367.8V33.4H33.4V13a1.324,1.324,0,0,1,.367-.8A1.179,1.179,0,0,1,34.6,11.8ZM8.976,13.252a.6.6,0,0,0-.572.423l-.371,1.141a.6.6,0,1,0,1.141.37l.37-1.141a.6.6,0,0,0-.568-.793Zm21.23,0a.6.6,0,0,0-.55.793l.37,1.141a.6.6,0,1,0,1.141-.37L30.8,13.675A.6.6,0,0,0,30.205,13.252Zm-18.26.894a.6.6,0,0,0-.55.451l-.313,1.159a.6.6,0,0,0,1.159.312l.312-1.158a.6.6,0,0,0-.608-.764Zm15.291,0a.6.6,0,0,0-.589.764l.312,1.158a.6.6,0,0,0,1.159-.312L27.8,14.6a.6.6,0,0,0-.568-.451ZM15,14.86a.6.6,0,0,0-.579.492l-.233,1.177a.6.6,0,1,0,1.177.233l.233-1.177a.6.6,0,0,0-.6-.725Zm9.177,0a.6.6,0,0,0-.58.725l.233,1.177a.6.6,0,1,0,1.177-.233l-.233-1.177A.6.6,0,0,0,24.18,14.86Zm-6.122.452a.6.6,0,0,0-.582.557l-.1,1.2a.6.6,0,1,0,1.2.1l.1-1.2a.6.6,0,0,0-.614-.661Zm3.067,0a.6.6,0,0,0-.6.661l.1,1.2a.6.6,0,1,0,1.2-.1l-.1-1.2a.6.6,0,0,0-.6-.557ZM16,19.6a.6.6,0,0,0-.562.391l-6,16.2A.6.6,0,0,0,10,37H29.186a.6.6,0,0,0,.555-.826l-6.586-16.2A.6.6,0,0,0,22.6,19.6Zm.417,1.2H22.2l6.1,15H10.862ZM3.17,34.6H6.03l.6,1.2H2.57Zm30,0H36.03l.6,1.2H32.57Z" transform="translate(-1 -7)" fill="#fff"/>
</svg>
