<svg id="icons8-upset-face-expression-with-a-tear-drop" xmlns="http://www.w3.org/2000/svg" width="35" height="35" viewBox="0 0 35 35">
  <path id="icons8-upset-face-expression-with-a-tear-drop-2" data-name="icons8-upset-face-expression-with-a-tear-drop" d="M17.5,0A17.5,17.5,0,1,0,35,17.5a17.331,17.331,0,0,0-1.336-6.688A3.723,3.723,0,0,0,35,7.97c0-1.8-2.624-5.694-3.15-6.454a.755.755,0,0,0-1.2,0c-.258.373-1.017,1.5-1.726,2.763A17.33,17.33,0,0,0,17.5,0Zm0,1.458A15.883,15.883,0,0,1,28.232,5.614,6.342,6.342,0,0,0,27.5,7.97a3.754,3.754,0,0,0,3.751,3.748,3.7,3.7,0,0,0,1.125-.188,15.872,15.872,0,0,1,1.165,5.97A16.042,16.042,0,1,1,17.5,1.458ZM31.252,3.247c1.1,1.706,2.29,3.888,2.29,4.722a2.291,2.291,0,0,1-4.583,0C28.959,7.135,30.156,4.953,31.252,3.247ZM8.021,11.667a.729.729,0,0,0-.729.729,3.646,3.646,0,0,0,7.292,0,.729.729,0,1,0-1.458,0,2.188,2.188,0,0,1-4.375,0A.729.729,0,0,0,8.021,11.667Zm13.125,0a.729.729,0,0,0-.729.729,3.646,3.646,0,1,0,7.292,0,.729.729,0,1,0-1.458,0,2.188,2.188,0,0,1-4.375,0A.729.729,0,0,0,21.146,11.667ZM17.5,23.419a11.629,11.629,0,0,0-8.249,3.409.729.729,0,0,0,1.031,1.031,10.219,10.219,0,0,1,14.435,0,.738.738,0,0,0,.518.214.729.729,0,0,0,.513-1.245A11.629,11.629,0,0,0,17.5,23.419Z" fill="#fff"/>
</svg>
