<svg id="icons8-neutral-face-emoji-with-flat-mouth-expression" xmlns="http://www.w3.org/2000/svg" width="35" height="35" viewBox="0 0 35 35">
  <path id="icons8-neutral-face-emoji-with-flat-mouth-expression-2" data-name="icons8-neutral-face-emoji-with-flat-mouth-expression" d="M17.5,0A17.5,17.5,0,1,0,35,17.5,17.519,17.519,0,0,0,17.5,0Zm0,1.458A16.042,16.042,0,1,1,1.458,17.5,16.061,16.061,0,0,1,17.5,1.458Zm-7.292,8.75a2.917,2.917,0,1,0,2.917,2.917A2.92,2.92,0,0,0,10.208,10.208Zm14.583,0a2.917,2.917,0,1,0,2.917,2.917A2.92,2.92,0,0,0,24.792,10.208ZM10.208,11.667A1.458,1.458,0,1,1,8.75,13.125,1.461,1.461,0,0,1,10.208,11.667Zm14.583,0a1.458,1.458,0,1,1-1.458,1.458A1.461,1.461,0,0,1,24.792,11.667ZM12.4,24.792a.729.729,0,1,0,0,1.458H22.6a.729.729,0,0,0,0-1.458Z" fill="#fff"/>
</svg>
