<svg xmlns="http://www.w3.org/2000/svg" width="183.316" height="162.867" viewBox="0 0 183.316 162.867">
  <g id="Group_90" data-name="Group 90" transform="translate(-214.609 -359.871)">
    <g id="Group_86" data-name="Group 86" transform="translate(214.609 359.871)">
      <path id="Path_323" data-name="Path 323" d="M241.461,399.3c-27.155,15.68-33.717,38.737-19.671,57.975,4.463,6.128,11.025,11.875,19.671,16.86,22.635,13.074,54.177,17.86,83.353,14.387L338.088,387.1C305.56,380.16,267.585,384.217,241.461,399.3Z" transform="translate(-214.609 -326.763)" fill="#4a2ebc"/>
      <path id="Path_324" data-name="Path 324" d="M307.121,397.395a113.666,113.666,0,0,0-32.986-12.2L260.862,486.616c3.834-.455,7.634-1.039,11.361-1.782a115.166,115.166,0,0,0,34.9-12.6C342.923,451.567,342.923,418.057,307.121,397.395Z" transform="translate(-150.657 -324.858)" fill="#0495c1"/>
      <path id="Path_325" data-name="Path 325" d="M253.271,405.238l60.908-39.656v59l-60.908,39.656Z" transform="translate(-161.153 -351.973)" fill="#6b4ee2"/>
      <rect id="Rectangle_1" data-name="Rectangle 1" width="92.116" height="58.998" transform="translate(0.003 53.265)" fill="#4a2ebc"/>
      <path id="Path_326" data-name="Path 326" d="M282.111,435.612l-28.839-49.327v59l29.447,1.476Z" transform="translate(-161.153 -323.349)" fill="#0a798c"/>
      <path id="Path_327" data-name="Path 327" d="M308.635,393.294l-29.447-12.657v59l29.447,1.476Z" transform="translate(-125.319 -331.157)" fill="#0495c1"/>
      <path id="Path_328" data-name="Path 328" d="M317.617,446.086C307.286,452.06,295.1,456.3,282.111,458.8l-28.84-49.448,60.908-39.657.262-.174c1.075.555,2.135,1.129,3.176,1.737C353.419,391.914,353.419,425.424,317.617,446.086Z" transform="translate(-161.153 -346.533)" fill="#1dcbff"/>
      <path id="Path_329" data-name="Path 329" d="M367.633,373.479l-60.908,39.657L222.516,434.3c-14.985-19.431-8.663-42.99,18.942-58.93C276.114,355.352,331.657,354.727,367.633,373.479Z" transform="translate(-214.607 -359.871)" fill="#6b4ee2"/>
      <path id="Path_330" data-name="Path 330" d="M332.008,428.773v36.567c-32.085,6.39-69.1,2.187-94.713-12.6-8.647-4.984-15.209-10.732-19.671-16.86V399.292Z" transform="translate(-210.442 -305.364)" fill="#ed1d90"/>
      <path id="Path_331" data-name="Path 331" d="M332.008,440.964c-32.085,6.374-69.1,2.171-94.713-12.621-8.647-4.985-15.209-10.732-19.671-16.86l84.937-21.008,28.84,49.447Z" transform="translate(-210.442 -317.555)" fill="#f130e0"/>
    </g>
  </g>
</svg>
