<svg xmlns="http://www.w3.org/2000/svg" width="189.91" height="202.017" viewBox="0 0 189.91 202.017">
  <g id="Group_27" data-name="Group 27" transform="translate(-37.716 -154.595)">
    <path id="Path_51" data-name="Path 51" d="M227.557,223.688l-.1-13.084-13,1.685-18.023,2.336,6.914,4.021L37.716,313.454,54.1,322.971l165.624-94.81,7.9,4.59Z" transform="translate(0 33.305)" opacity="0.2"/>
    <g id="Group_24" data-name="Group 24" transform="translate(37.717 154.595)">
      <g id="Group_23" data-name="Group 23" style="isolation: isolate">
        <g id="Group_14" data-name="Group 14" transform="translate(156.048)">
          <g id="Group_12" data-name="Group 12">
            <path id="Path_52" data-name="Path 52" d="M169.436,196.376l-31.2-18.132-2.661-1.9L166.348,154.6l2.661,1.9Z" transform="translate(-135.574 -154.595)" fill="#ce0072"/>
          </g>
          <g id="Group_13" data-name="Group 13">
            <path id="Path_53" data-name="Path 53" d="M169.436,196.376l-31.2-18.132-2.661-1.9L166.348,154.6l2.661,1.9Z" transform="translate(-135.574 -154.595)" fill="#ce0072"/>
          </g>
        </g>
        <g id="Group_15" data-name="Group 15" transform="translate(163.866 23.221)">
          <path id="Path_54" data-name="Path 54" d="M156.857,178.676l-16.38-9.519,2.337,1.332,16.38,9.519Z" transform="translate(-140.477 -169.157)"/>
        </g>
        <g id="Group_16" data-name="Group 16" transform="translate(134.604 23.221)">
          <path id="Path_55" data-name="Path 55" d="M138.507,229.36l-16.38-9.519,29.262-50.684,16.38,9.519Z" transform="translate(-122.127 -169.157)" fill="#ed1d90"/>
        </g>
        <g id="Group_17" data-name="Group 17" transform="translate(62.009 97.271)">
          <path id="Path_56" data-name="Path 56" d="M92.983,280.745,76.6,271.226l32.124-55.632,16.38,9.519Z" transform="translate(-76.603 -215.594)" fill="#ed1d90"/>
        </g>
        <g id="Group_18" data-name="Group 18" transform="translate(94.133 73.905)">
          <path id="Path_57" data-name="Path 57" d="M113.127,233.826l-16.38-9.519,40.471-23.366,16.38,9.519Z" transform="translate(-96.747 -200.941)" fill="#f130e0"/>
        </g>
        <g id="Group_19" data-name="Group 19" transform="translate(0 152.903)">
          <path id="Path_58" data-name="Path 58" d="M54.1,295.8l-16.38-9.519,62.009-35.8L116.106,260Z" transform="translate(-37.717 -250.481)" fill="#f130e0"/>
        </g>
        <g id="Group_20" data-name="Group 20" transform="translate(0 188.704)">
          <path id="Path_59" data-name="Path 59" d="M54.107,286.244l-16.38-9.519-.011-3.794L54.1,282.45Z" transform="translate(-37.717 -272.931)" fill="#ce0072"/>
        </g>
        <g id="Group_21" data-name="Group 21" transform="translate(16.38 32.74)">
          <path id="Path_60" data-name="Path 60" d="M211.855,175.127l2.337,1.332-30.223,52.357L143.5,252.182,111.381,307.81,48,344.4l-.011-3.794L110,304.809l32.124-55.632,40.471-23.366Z" transform="translate(-47.989 -175.127)" fill="#ce0072"/>
        </g>
        <g id="Group_22" data-name="Group 22" transform="translate(156.048)">
          <path id="Path_61" data-name="Path 61" d="M166.775,194.472l-31.2-18.132L166.348,154.6Z" transform="translate(-135.574 -154.595)" fill="#ed1d90"/>
        </g>
      </g>
    </g>
  </g>
</svg>
