<svg xmlns="http://www.w3.org/2000/svg" width="35.854" height="39.048" viewBox="0 0 35.854 39.048">
  <path id="icons8-security-configuration" d="M29.784,8.91l-.276.138a41.838,41.838,0,0,1-17.032,3.644h-.618v.618c0,14.343,4.383,23.014,8.806,28.07A22.568,22.568,0,0,0,29.595,47.9l.19.06.188-.06A22.568,22.568,0,0,0,38.9,41.38c4.424-5.056,8.808-13.727,8.808-28.07v-.618h-.618A41.838,41.838,0,0,1,30.061,9.048Zm0,1.366A42.766,42.766,0,0,0,46.452,13.9c-.123,13.719-4.311,21.9-8.479,26.667-4.077,4.659-7.9,5.968-8.188,6.063-.284-.095-4.112-1.4-8.189-6.063C17.426,35.8,13.239,27.618,13.117,13.9A42.767,42.767,0,0,0,29.784,10.276Zm-1.159,8.581-.718,1.816A7.017,7.017,0,0,0,25,22.37l-1.911-.278-1.248,2.183,1.2,1.537a7.052,7.052,0,0,0,0,3.4l-1.2,1.537,1.248,2.184L25,32.652a7.021,7.021,0,0,0,2.911,1.7l.718,1.816H31.12l.718-1.816a7.01,7.01,0,0,0,2.911-1.7l1.911.279,1.248-2.184-1.2-1.537a7.052,7.052,0,0,0,0-3.4l1.2-1.537L36.66,22.091l-1.911.279a7.021,7.021,0,0,0-2.911-1.7l-.718-1.816Zm.682,1.019h1.13l.656,1.654.249.064a6.01,6.01,0,0,1,2.869,1.672l.179.186,1.74-.254.566.991-1.088,1.4.07.25a6.044,6.044,0,0,1,0,3.349l-.07.25,1.087,1.4-.565.991-1.741-.254-.179.186a6,6,0,0,1-2.867,1.672l-.25.064-.654,1.654h-1.13l-.656-1.654-.249-.064a6.01,6.01,0,0,1-2.869-1.672l-.179-.186-1.74.254-.566-.991,1.088-1.4-.071-.25a6.058,6.058,0,0,1,0-3.349l.07-.25-1.087-1.4.565-.991,1.741.254.179-.186A6,6,0,0,1,28.4,21.593l.25-.064Zm.565,4.606a2.985,2.985,0,0,0-2.27.96,3.2,3.2,0,0,0,0,4.139,3.164,3.164,0,0,0,4.54,0,3.2,3.2,0,0,0,0-4.139A2.985,2.985,0,0,0,29.872,24.481Zm0,1.113a1.8,1.8,0,0,1,1.439.586,2.094,2.094,0,0,1,0,2.661,2.061,2.061,0,0,1-2.878,0,2.094,2.094,0,0,1,0-2.661A1.8,1.8,0,0,1,29.872,25.595Z" transform="translate(-11.857 -8.91)" fill="#1dcbff"/>
</svg>
