<svg id="icons8-half-moon" xmlns="http://www.w3.org/2000/svg" width="35.002" height="35" viewBox="0 0 35.002 35">
  <path id="icons8-half-moon-2" data-name="icons8-half-moon" d="M24,.059A.738.738,0,0,0,23.2.212a.727.727,0,0,0-.153.805A16.648,16.648,0,0,1,24.42,7.659,16.778,16.778,0,0,1,7.66,24.417a16.642,16.642,0,0,1-6.642-1.372.738.738,0,0,0-.805.153A.727.727,0,0,0,.06,24,18.217,18.217,0,1,0,24,.059ZM16.783,33.543A16.753,16.753,0,0,1,2.2,25.04a18.077,18.077,0,0,0,5.457.836A18.239,18.239,0,0,0,25.877,7.659,18.047,18.047,0,0,0,25.039,2.2a16.757,16.757,0,0,1-8.256,31.341Z" transform="translate(0 -0.001)" fill="#fff"/>
</svg>
