<svg xmlns="http://www.w3.org/2000/svg" width="35.444" height="25.462" viewBox="0 0 35.444 25.462">
  <path id="icons8-storytelling" d="M8.219,18.826a.844.844,0,0,0-.844.844V21.5H6.142a2.352,2.352,0,0,0-1.426.457A1.737,1.737,0,0,0,4,23.324V40.78a1.737,1.737,0,0,0,.719,1.365,2.352,2.352,0,0,0,1.426.457H17.891a4.807,4.807,0,0,0,3.83,1.688A4.8,4.8,0,0,0,25.549,42.6H37.3a2.352,2.352,0,0,0,1.426-.457,1.737,1.737,0,0,0,.719-1.365V23.324s0,0,0,0a1.741,1.741,0,0,0-.72-1.363A2.354,2.354,0,0,0,37.3,21.5H36.064V19.67a.844.844,0,0,0-.844-.844,32.824,32.824,0,0,0-11.034,1.523,11.646,11.646,0,0,0-2.311,1.094,1.815,1.815,0,0,0-.157.12,1.816,1.816,0,0,0-.157-.12,11.646,11.646,0,0,0-2.311-1.094A32.824,32.824,0,0,0,8.219,18.826Zm.844,1.747a31.4,31.4,0,0,1,9.618,1.365,9.96,9.96,0,0,1,1.974.929,1.285,1.285,0,0,1,.221.162v15.02a13.089,13.089,0,0,0-1.735-.544,47.925,47.925,0,0,0-10.078-.966Zm25.314,0V36.539a47.925,47.925,0,0,0-10.078.966,13.089,13.089,0,0,0-1.735.544V23.029a1.285,1.285,0,0,1,.221-.162,9.96,9.96,0,0,1,1.974-.929A31.4,31.4,0,0,1,34.376,20.573ZM6.142,23.193H7.375v14.15a.844.844,0,0,0,.844.844,46.227,46.227,0,0,1,10.529.958,13.193,13.193,0,0,1,2.025.633,2.755,2.755,0,0,1,.473.227l0,0,.036.021.049.028a.842.842,0,0,0,.077.035q.038.015.077.026l.064.015.061.01.021,0a.842.842,0,0,0,.091,0q.037,0,.074,0h.007q.041,0,.081-.013a.842.842,0,0,0,.082-.021l.061-.021.018-.007.018-.008.058-.03,0,0q.031-.017.061-.036a2.753,2.753,0,0,1,.473-.227,13.193,13.193,0,0,1,2.025-.633,46.23,46.23,0,0,1,10.529-.958.844.844,0,0,0,.844-.844V23.193H37.3a.728.728,0,0,1,.41.115.461.461,0,0,1,.046.038V40.758a.525.525,0,0,1-.044.036.729.729,0,0,1-.41.115H25.236a.845.845,0,0,0-.694.364,3.671,3.671,0,0,1-5.645,0,.845.845,0,0,0-.694-.364H6.142a.729.729,0,0,1-.41-.115.322.322,0,0,1-.043-.036V23.345a.322.322,0,0,1,.043-.036A.729.729,0,0,1,6.142,23.193Z" transform="translate(-3.998 -18.826)" fill="#1dcbff"/>
</svg>
