<svg xmlns="http://www.w3.org/2000/svg" width="158.15" height="41.93" viewBox="0 0 158.15 41.93">
  <g id="Group_6764" data-name="Group 6764" transform="translate(0)">
    <path id="icons8-squiggly-line" d="M28.452,29.657A1.17,1.17,0,0,1,27.3,28.47v-.39a3.1,3.1,0,0,0-3.12-3.12H23.4a5.478,5.478,0,0,1-5.46-5.46v-.39a3.1,3.1,0,0,0-3.12-3.12,5.478,5.478,0,0,1-5.46-5.46v-.39A3.1,3.1,0,0,0,6.24,7.02H5.46A5.478,5.478,0,0,1,0,1.56V1.17a1.17,1.17,0,1,1,2.34,0v.39A3.1,3.1,0,0,0,5.46,4.68h.78a5.478,5.478,0,0,1,5.46,5.46v.39a3.1,3.1,0,0,0,3.12,3.12,5.478,5.478,0,0,1,5.46,5.46v.39a3.1,3.1,0,0,0,3.12,3.12h.78a5.478,5.478,0,0,1,5.46,5.46v.39a1.17,1.17,0,0,1-1.188,1.187Z" transform="translate(0 20.959) rotate(-45)" fill="#1dcbff"/>
    <path id="icons8-squiggly-line-2" data-name="icons8-squiggly-line" d="M28.452,29.657A1.17,1.17,0,0,1,27.3,28.47v-.39a3.1,3.1,0,0,0-3.12-3.12H23.4a5.478,5.478,0,0,1-5.46-5.46v-.39a3.1,3.1,0,0,0-3.12-3.12,5.478,5.478,0,0,1-5.46-5.46v-.39A3.1,3.1,0,0,0,6.24,7.02H5.46A5.478,5.478,0,0,1,0,1.56V1.17a1.17,1.17,0,1,1,2.34,0v.39A3.1,3.1,0,0,0,5.46,4.68h.78a5.478,5.478,0,0,1,5.46,5.46v.39a3.1,3.1,0,0,0,3.12,3.12,5.478,5.478,0,0,1,5.46,5.46v.39a3.1,3.1,0,0,0,3.12,3.12h.78a5.478,5.478,0,0,1,5.46,5.46v.39a1.17,1.17,0,0,1-1.188,1.187Z" transform="translate(39 20.959) rotate(-45)" fill="#1dcbff"/>
    <path id="icons8-squiggly-line-3" data-name="icons8-squiggly-line" d="M28.452,29.657A1.17,1.17,0,0,1,27.3,28.47v-.39a3.1,3.1,0,0,0-3.12-3.12H23.4a5.478,5.478,0,0,1-5.46-5.46v-.39a3.1,3.1,0,0,0-3.12-3.12,5.478,5.478,0,0,1-5.46-5.46v-.39A3.1,3.1,0,0,0,6.24,7.02H5.46A5.478,5.478,0,0,1,0,1.56V1.17a1.17,1.17,0,1,1,2.34,0v.39A3.1,3.1,0,0,0,5.46,4.68h.78a5.478,5.478,0,0,1,5.46,5.46v.39a3.1,3.1,0,0,0,3.12,3.12,5.478,5.478,0,0,1,5.46,5.46v.39a3.1,3.1,0,0,0,3.12,3.12h.78a5.478,5.478,0,0,1,5.46,5.46v.39a1.17,1.17,0,0,1-1.188,1.187Z" transform="translate(78 20.959) rotate(-45)" fill="#1dcbff"/>
    <path id="icons8-squiggly-line-4" data-name="icons8-squiggly-line" d="M28.452,29.657A1.17,1.17,0,0,1,27.3,28.47v-.39a3.1,3.1,0,0,0-3.12-3.12H23.4a5.478,5.478,0,0,1-5.46-5.46v-.39a3.1,3.1,0,0,0-3.12-3.12,5.478,5.478,0,0,1-5.46-5.46v-.39A3.1,3.1,0,0,0,6.24,7.02H5.46A5.478,5.478,0,0,1,0,1.56V1.17a1.17,1.17,0,1,1,2.34,0v.39A3.1,3.1,0,0,0,5.46,4.68h.78a5.478,5.478,0,0,1,5.46,5.46v.39a3.1,3.1,0,0,0,3.12,3.12,5.478,5.478,0,0,1,5.46,5.46v.39a3.1,3.1,0,0,0,3.12,3.12h.78a5.478,5.478,0,0,1,5.46,5.46v.39a1.17,1.17,0,0,1-1.188,1.187Z" transform="translate(116.221 20.959) rotate(-45)" fill="#1dcbff"/>
  </g>
</svg>
