<svg xmlns="http://www.w3.org/2000/svg" width="40.73" height="38.014" viewBox="0 0 40.73 38.014">
  <path id="icons8-tune" d="M25.613,12a2.047,2.047,0,0,0-2.036,2.036v1.358H10v1.358H23.577v1.358a2.047,2.047,0,0,0,2.036,2.036h1.358a2.047,2.047,0,0,0,2.036-2.036V14.036A2.047,2.047,0,0,0,26.971,12Zm0,1.358h1.358a.667.667,0,0,1,.679.679v4.073a.667.667,0,0,1-.679.679H25.613a.667.667,0,0,1-.679-.679V14.036A.667.667,0,0,1,25.613,13.358Zm5.431,2.036a.679.679,0,1,0,.679.679A.68.68,0,0,0,31.044,15.394Zm2.715,0a.679.679,0,1,0,.679.679A.68.68,0,0,0,33.759,15.394Zm2.715,0a.679.679,0,1,0,.679.679A.68.68,0,0,0,36.474,15.394Zm2.715,0a.679.679,0,1,0,.679.679A.68.68,0,0,0,39.19,15.394Zm2.715,0a.679.679,0,1,0,.679.679A.68.68,0,0,0,41.905,15.394Zm2.715,0a.679.679,0,1,0,.679.679A.68.68,0,0,0,44.62,15.394Zm2.715,0a.679.679,0,1,0,.679.679A.68.68,0,0,0,47.336,15.394Zm2.715,0a.679.679,0,1,0,.679.679A.68.68,0,0,0,50.051,15.394ZM39.19,26.934a2.047,2.047,0,0,0-2.036,2.036v1.358H10v1.358H37.153v1.358A2.047,2.047,0,0,0,39.19,35.08h1.358a2.047,2.047,0,0,0,2.036-2.036V28.971a2.047,2.047,0,0,0-2.036-2.036Zm0,1.358h1.358a.667.667,0,0,1,.679.679v4.073a.667.667,0,0,1-.679.679H39.19a.667.667,0,0,1-.679-.679V28.971A.667.667,0,0,1,39.19,28.292Zm5.431,2.036a.679.679,0,1,0,.679.679A.68.68,0,0,0,44.62,30.328Zm2.715,0a.679.679,0,1,0,.679.679A.68.68,0,0,0,47.336,30.328Zm2.715,0a.679.679,0,1,0,.679.679A.68.68,0,0,0,50.051,30.328ZM20.182,41.869a2.047,2.047,0,0,0-2.036,2.036v1.358H10V46.62h8.146v1.358a2.047,2.047,0,0,0,2.036,2.036H21.54a2.047,2.047,0,0,0,2.036-2.036V43.905a2.047,2.047,0,0,0-2.036-2.036Zm0,1.358H21.54a.667.667,0,0,1,.679.679v4.073a.667.667,0,0,1-.679.679H20.182a.667.667,0,0,1-.679-.679V43.905A.667.667,0,0,1,20.182,43.226Zm5.431,2.036a.679.679,0,1,0,.679.679A.68.68,0,0,0,25.613,45.263Zm2.715,0a.679.679,0,1,0,.679.679A.68.68,0,0,0,28.328,45.263Zm2.715,0a.679.679,0,1,0,.679.679A.68.68,0,0,0,31.044,45.263Zm2.715,0a.679.679,0,1,0,.679.679A.68.68,0,0,0,33.759,45.263Zm2.715,0a.679.679,0,1,0,.679.679A.68.68,0,0,0,36.474,45.263Zm2.715,0a.679.679,0,1,0,.679.679A.68.68,0,0,0,39.19,45.263Zm2.715,0a.679.679,0,1,0,.679.679A.68.68,0,0,0,41.905,45.263Zm2.715,0a.679.679,0,1,0,.679.679A.68.68,0,0,0,44.62,45.263Zm2.715,0a.679.679,0,1,0,.679.679A.68.68,0,0,0,47.336,45.263Zm2.715,0a.679.679,0,1,0,.679.679A.68.68,0,0,0,50.051,45.263Z" transform="translate(-10 -12)" fill="#fff"/>
</svg>
