<svg xmlns="http://www.w3.org/2000/svg" width="36.553" height="35.134" viewBox="0 0 36.553 35.134">
  <g id="Group_6911" data-name="Group 6911" transform="translate(-315.276 -4517)">
    <g id="Ellipse_393" data-name="Ellipse 393" transform="translate(320.518 4517)" fill="none" stroke="#fff" stroke-width="2">
      <circle cx="7.186" cy="7.186" r="7.186" stroke="none"/>
      <circle cx="7.186" cy="7.186" r="6.186" fill="none"/>
    </g>
    <g id="Ellipse_395" data-name="Ellipse 395" transform="translate(338.321 4529.778)" fill="none" stroke="#fff" stroke-width="2">
      <circle cx="4.931" cy="4.931" r="4.931" stroke="none"/>
      <circle cx="4.931" cy="4.931" r="3.931" fill="none"/>
    </g>
    <path id="Path_11885" data-name="Path 11885" d="M-14724.3,13087.1v-9.249a5.731,5.731,0,0,1,2.258-4.85c2-1.673,5.44-1.288,9.012-1.288s7.161-.229,8.892,1.288,2.3,1.925,2.3,4.85v9.249" transform="translate(15040.58 -8534.972)" fill="none" stroke="#fff" stroke-width="2"/>
    <path id="Path_11887" data-name="Path 11887" d="M-14719.253,13071.731c.926-.114,2.3-.029,3.7-.029,2.449,0,4.913-.156,6.1.884s1.58,1.32,1.58,3.327v4.751" transform="translate(15058.701 -8528.53)" fill="none" stroke="#fff" stroke-width="2"/>
  </g>
</svg>
