<svg xmlns="http://www.w3.org/2000/svg" xmlns:xlink="http://www.w3.org/1999/xlink" width="20.671" height="103.448" viewBox="0 0 20.671 103.448">
  <defs>
    <linearGradient id="linear-gradient" x1="-0.062" y1="0.5" x2="1" y2="0.5" gradientUnits="objectBoundingBox">
      <stop offset="0" stop-color="#6b4ee2"/>
      <stop offset="0.543" stop-color="#5783e5"/>
      <stop offset="1" stop-color="#47afe7"/>
    </linearGradient>
  </defs>
  <path id="icons8-wave-lines" d="M37.461,15.01a1.724,1.724,0,1,0-.1,3.447h.051a1.724,1.724,0,0,0,.054-3.447Zm-7.2.465a1.728,1.728,0,0,0,.276,3.431,1.371,1.371,0,0,0,.273-.017,1.729,1.729,0,0,0-.549-3.414Zm13.689.481a1.725,1.725,0,0,0-.125,3.38,1.685,1.685,0,0,0,.4.054,1.736,1.736,0,0,0,1.69-1.33,1.751,1.751,0,0,0-1.963-2.1ZM23.971,17.175a1.725,1.725,0,0,0-1.73,2.3,1.76,1.76,0,0,0,1.64,1.155,1.652,1.652,0,0,0,.569-.1,1.728,1.728,0,0,0-.478-3.353Zm26.788.983a1.72,1.72,0,0,0-.7,3.3,1.6,1.6,0,0,0,.673.155,1.727,1.727,0,0,0,.687-3.309A1.69,1.69,0,0,0,50.759,18.158ZM17.416,19.976a1.7,1.7,0,0,0-.656.205,1.726,1.726,0,0,0-.707,2.326,1.726,1.726,0,0,0,2.347.707,1.731,1.731,0,0,0-.983-3.239Zm39.665,1.289a1.726,1.726,0,0,0-1.02,3.225,1.8,1.8,0,0,0,.845.209,1.722,1.722,0,0,0,.175-3.434ZM111.66,23.6a1.724,1.724,0,0,0-.919.306C100.33,30.9,91.9,32.3,85.866,32.23c-9.378-.107-16.245-3.872-23.287-7.965a1.724,1.724,0,1,0-1.73,2.979c7.089,4.121,14.688,8.316,24.977,8.433,6.626.076,15.88-1.555,26.835-8.911a1.724,1.724,0,0,0-1-3.168Zm-99.644.04a1.738,1.738,0,0,0-1.289.3v-.017a1.738,1.738,0,0,0-.414,2.414,1.771,1.771,0,0,0,1.414.724,1.8,1.8,0,0,0,1-.31v-.017a1.728,1.728,0,0,0,.411-2.4A1.7,1.7,0,0,0,12.016,23.639Z" transform="translate(-15.009 113.444) rotate(-90)" fill="url(#linear-gradient)"/>
</svg>
