<svg xmlns="http://www.w3.org/2000/svg" xmlns:xlink="http://www.w3.org/1999/xlink" width="38.687" height="36.175" viewBox="0 0 38.687 36.175">
  <defs>
    <radialGradient id="radial-gradient" cx="0.439" cy="0.365" r="0.571" gradientTransform="matrix(0.695, -0.707, 0.695, 0.707, -0.18, 0.47)" gradientUnits="objectBoundingBox">
      <stop offset="0" stop-color="#ffe16e"/>
      <stop offset="0.629" stop-color="#ffd226"/>
      <stop offset="0.75" stop-color="#fdcd23"/>
      <stop offset="0.899" stop-color="#f6bd1b"/>
      <stop offset="0.999" stop-color="#f0af13"/>
    </radialGradient>
    <radialGradient id="radial-gradient-2" cx="0.502" cy="0.499" r="0.311" gradientTransform="matrix(-1.436, 0.074, 0.15, 1.412, -151.476, 9.266)" gradientUnits="objectBoundingBox">
      <stop offset="0.425" stop-color="#ffe16e"/>
      <stop offset="1" stop-color="#ffe16e" stop-opacity="0"/>
    </radialGradient>
    <radialGradient id="radial-gradient-3" cx="0.5" cy="0.502" r="0.401" gradientTransform="matrix(-0.289, 0.918, 1.059, 0.628, -102.2, 65.748)" xlink:href="#radial-gradient-2"/>
    <radialGradient id="radial-gradient-4" cx="0.5" cy="0.498" r="0.133" gradientTransform="matrix(-0.76, 0.688, 3.217, 3.233, -187.617, 55.281)" xlink:href="#radial-gradient-2"/>
    <radialGradient id="radial-gradient-5" cx="0.498" cy="0.502" r="0.133" gradientTransform="matrix(-0.707, 0.707, 3.231, 3.231, -189.873, 58.266)" xlink:href="#radial-gradient-2"/>
    <radialGradient id="radial-gradient-6" cx="0.495" cy="0.506" r="0.181" gradientTransform="matrix(-0.625, 0.738, 2.352, 2.32, -223.012, 84.87)" xlink:href="#radial-gradient-2"/>
    <radialGradient id="radial-gradient-7" cx="0.506" cy="0.496" r="0.147" gradientTransform="matrix(-0.76, 0.688, 2.904, 2.921, -244.333, 82.232)" xlink:href="#radial-gradient-2"/>
    <linearGradient id="linear-gradient" x1="0.508" y1="-0.107" x2="-0.88" y2="0.166" gradientUnits="objectBoundingBox">
      <stop offset="0" stop-color="#ffdc58" stop-opacity="0"/>
      <stop offset="1" stop-color="#f5c02c"/>
    </linearGradient>
    <linearGradient id="linear-gradient-2" x1="-0.356" y1="0.636" x2="1.027" y2="0.606" gradientUnits="objectBoundingBox">
      <stop offset="0" stop-color="#f9c41e"/>
      <stop offset="0.605" stop-color="#f6c12d"/>
      <stop offset="0.999" stop-color="#ffd532"/>
    </linearGradient>
    <linearGradient id="linear-gradient-3" x1="-0.048" y1="0.093" x2="1.006" y2="1.059" gradientUnits="objectBoundingBox">
      <stop offset="0" stop-color="#f1f7fe" stop-opacity="0"/>
      <stop offset="0.52" stop-color="#3c8af0"/>
      <stop offset="1" stop-color="#f1f7fe" stop-opacity="0"/>
    </linearGradient>
    <linearGradient id="linear-gradient-4" x1="-0.05" y1="0.111" x2="0.95" y2="0.98" xlink:href="#linear-gradient-3"/>
    <linearGradient id="linear-gradient-5" x1="0.075" y1="-0.03" x2="0.964" y2="0.839" xlink:href="#linear-gradient-3"/>
    <linearGradient id="linear-gradient-6" x1="0.065" y1="-0.028" x2="0.977" y2="0.839" xlink:href="#linear-gradient-3"/>
    <linearGradient id="linear-gradient-7" x1="1.679" y1="0.592" x2="0.02" y2="1.231" gradientUnits="objectBoundingBox">
      <stop offset="0" stop-color="#ffdb53" stop-opacity="0"/>
      <stop offset="0.605" stop-color="#f6c02d"/>
      <stop offset="0.999" stop-color="#f2b416" stop-opacity="0.635"/>
    </linearGradient>
  </defs>
  <g id="icons8-waving-hand-emoji" transform="translate(-1.244 -2.707)">
    <path id="Path_12156" data-name="Path 12156" d="M35.608,7.023c-1.976.811-2.536,3.231-2.744,5.356,0,0-.3,2.389-.543,3.459-.584,2.566-2.388,1.144-3.248.295,0,0-8.948-8.39-9.027-8.466a3.3,3.3,0,0,0-2.194-1.105,1.559,1.559,0,0,0-1.144.412c-.77.792-.549,2.237.527,3.368l7.8,8.792C20.925,15.2,14.11,8.7,14.059,8.65c-1.119-1.1-2.592-1.365-3.359-.6l-.006.006a1.567,1.567,0,0,0-.43,1.139,3.288,3.288,0,0,0,1.049,2.2l10.07,11.368c-3.424-3.187-9.888-9.166-9.968-9.241-1.131-1.075-2.6-1.318-3.359-.558l-.02.02a1.558,1.558,0,0,0-.413,1.145A3.3,3.3,0,0,0,8.719,16.31l10.174,10.3c-2.161-1.819-7.675-6.363-7.741-6.419-1.193-1.025-2.672-1.194-3.41-.382a1.55,1.55,0,0,0-.364,1.159,3.244,3.244,0,0,0,1.184,2.11s6.4,6.653,7.149,7.6a32.768,32.768,0,0,0,2.624,2.944,29.977,29.977,0,0,0,6.72,5.1,6.042,6.042,0,0,0,7.084-1.035l6.689-6.665a9.079,9.079,0,0,0,1.775-7.7c-.034-.176-2.618-14.938-2.618-14.938A1.735,1.735,0,0,0,35.608,7.023Z" transform="translate(-0.861 -0.542)" fill="url(#radial-gradient)"/>
    <path id="Path_12157" data-name="Path 12157" d="M33.006,27.469c.281,3.808,2.644,6.738,5.277,6.543s4.54-3.44,4.258-7.248-2.644-6.738-5.277-6.543S32.725,23.66,33.006,27.469Z" transform="translate(-4.459 -2.46)" opacity="0.49" fill="url(#radial-gradient-2)"/>
    <path id="Path_12158" data-name="Path 12158" d="M26.494,41.538c3.391,1.465,6.873.952,7.778-1.144s-1.109-4.983-4.5-6.448-6.873-.952-7.778,1.144S23.1,40.074,26.494,41.538Z" transform="translate(-2.885 -4.272)" opacity="0.37" fill="url(#radial-gradient-3)"/>
    <path id="Path_12159" data-name="Path 12159" d="M16.656,16.665c3.459,3.644,6.914,5.983,7.714,5.223s-1.355-4.331-4.815-7.975S12.641,7.93,11.841,8.69,13.2,13.02,16.656,16.665Z" transform="translate(-1.465 -0.821)" opacity="0.58" fill="url(#radial-gradient-4)"/>
    <path id="Path_12160" data-name="Path 12160" d="M13.235,21.582c3.437,3.437,6.821,5.626,7.558,4.89s-1.453-4.12-4.89-7.558-6.821-5.626-7.558-4.89S9.8,18.145,13.235,21.582Z" transform="translate(-0.978 -1.57)" opacity="0.35" fill="url(#radial-gradient-5)"/>
    <path id="Path_12161" data-name="Path 12161" d="M11.78,28.068c2.689,2.457,5.437,3.829,6.137,3.063S17,27.753,14.314,25.3s-5.437-3.829-6.137-3.063S9.091,25.61,11.78,28.068Z" transform="translate(-0.951 -2.714)" opacity="0.36" fill="url(#radial-gradient-6)"/>
    <path id="Path_12162" data-name="Path 12162" d="M23.358,14.805c2.764,2.912,5.579,4.728,6.287,4.056s-.959-3.577-3.723-6.489-5.579-4.728-6.287-4.056S20.594,11.893,23.358,14.805Z" transform="translate(-2.561 -0.769)" opacity="0.56" fill="url(#radial-gradient-7)"/>
    <path id="Path_12163" data-name="Path 12163" d="M33.57,19.952s-4.693,2.636-6.655,9.479c-.187.718.365,1.055.679.376s2.347-6.646,6.311-9.411C34.6,19.832,33.57,19.952,33.57,19.952Z" transform="translate(-3.602 -2.422)" fill="url(#linear-gradient)"/>
    <path id="Path_12164" data-name="Path 12164" d="M29.388,17.9s-6.577,3.31-11.946,12.009c-.541.913-.064,1.349.606.486s5.721-8.445,11.522-11.927C30.626,17.758,29.388,17.9,29.388,17.9Z" transform="translate(-2.243 -2.133)" fill="url(#linear-gradient-2)"/>
    <path id="Path_12165" data-name="Path 12165" d="M9.35,31.656a.419.419,0,0,1-.125-.019,6.348,6.348,0,0,1-4.68-4.83.43.43,0,1,1,.85-.124,5.5,5.5,0,0,0,4.079,4.132.43.43,0,0,1-.124.841Z" transform="translate(-0.463 -3.317)" fill="url(#linear-gradient-3)"/>
    <path id="Path_12166" data-name="Path 12166" d="M8.566,34.611a.419.419,0,0,1-.125-.019c-3.886-1.18-6.71-4.084-7.192-7.4a.43.43,0,1,1,.85-.124c.436,2.988,3.023,5.619,6.591,6.7a.43.43,0,0,1-.124.841Z" transform="translate(0 -3.371)" fill="url(#linear-gradient-4)"/>
    <path id="Path_12167" data-name="Path 12167" d="M29.825,11.18a.43.43,0,0,1-.411-.305,5.5,5.5,0,0,0-4.132-4.08.43.43,0,0,1-.364-.487.435.435,0,0,1,.486-.364,6.348,6.348,0,0,1,4.83,4.681.429.429,0,0,1-.286.536A.4.4,0,0,1,29.825,11.18Z" transform="translate(-3.326 -0.454)" fill="url(#linear-gradient-5)"/>
    <g id="Group_7205" data-name="Group 7205" transform="translate(21.862 2.707)">
      <path id="Path_12168" data-name="Path 12168" d="M32.714,10.457a.43.43,0,0,1-.411-.305C31.219,6.583,28.588,4,25.6,3.56a.43.43,0,0,1-.364-.487.436.436,0,0,1,.486-.364c3.316.484,6.221,3.306,7.4,7.192a.431.431,0,0,1-.41.555Z" transform="translate(-25.233 -2.707)" fill="url(#linear-gradient-6)"/>
    </g>
    <path id="Path_12169" data-name="Path 12169" d="M33,19.054a14.477,14.477,0,0,0-1.5,4.7,14.915,14.915,0,0,0-.111,3.141,12.5,12.5,0,0,0,1.44,5.086,9.536,9.536,0,0,0,1.011,1.48,4.788,4.788,0,0,0,1.27,1.247.759.759,0,0,0,.432.149.493.493,0,0,0,.367-.15.332.332,0,0,0,.022-.027.607.607,0,0,0-.209-.835c-2.5-1.973-3.751-5.867-3.175-9.942a13.329,13.329,0,0,1,1.546-4.631Z" transform="translate(-4.23 -2.297)" fill="url(#linear-gradient-7)"/>
  </g>
</svg>
